<?xml version="1.0" standalone="no"?>
<!DOCTYPE svg PUBLIC "-//W3C//DTD SVG 1.1//EN" "http://www.w3.org/Graphics/SVG/1.1/DTD/svg11.dtd" >
<svg xmlns="http://www.w3.org/2000/svg" xmlns:xlink="http://www.w3.org/1999/xlink" version="1.1">
<metadata>
Created by FontForge 20230101 at Fri Aug 16 10:25:21 2019
 By Unknown
Copyright (c) 2016-2019 Apple Inc. All rights reserved.
</metadata>
<defs>
<font id="SFMono-Medium" horiz-adv-x="1266" >
  <font-face 
    font-family="SF Mono"
    font-weight="500"
    font-stretch="normal"
    units-per-em="2048"
    panose-1="2 11 0 9 0 0 2 0 0 0"
    ascent="1638"
    descent="-410"
    x-height="1090"
    cap-height="1443"
    bbox="-440 -840 1434 2309"
    underline-thickness="100"
    underline-position="-250"
    unicode-range="U+0020-FB02"
  />
<missing-glyph 
 />
    <glyph glyph-name=".notdef" 
 />
    <glyph glyph-name=".null" 
 />
    <glyph glyph-name="nonmarkingreturn" horiz-adv-x="0" 
 />
    <glyph glyph-name="space" unicode=" " 
 />
    <glyph glyph-name="exclam" unicode="!" 
d="M517 1443h233l-19 -994h-196zM633 -22q-63 0 -106.5 44t-43.5 107q0 62 43.5 106t106.5 44t106.5 -44t43.5 -106q0 -63 -43.5 -107t-106.5 -44z" />
    <glyph glyph-name="quotedbl" unicode="&#x22;" 
d="M529 787h-208v656h208v-656zM945 787h-210v656h210v-656z" />
    <glyph glyph-name="numbersign" unicode="#" 
d="M1173 887h-208l-62 -313h208l-33 -171h-208l-80 -403h-166l80 403h-275l-78 -403h-167l81 403h-207l34 171h207l61 313h-207l33 169h207l77 388h166l-77 -388h274l77 388h166l-77 -388h208zM520 894l-64 -330h286l65 330h-287z" />
    <glyph glyph-name="dollar" unicode="$" 
d="M123 384h182q11 -102 86.5 -168t194.5 -80v519l-33 8q-203 49 -299 146.5t-96 255.5q0 173 116 283t312 125v111h123v-111q185 -17 299.5 -124.5t123.5 -274.5h-180q-12 95 -76.5 156.5t-166.5 76.5v-493l41 -11q216 -52 311.5 -147.5t95.5 -258.5q0 -182 -120.5 -296
t-327.5 -131v-111h-123v111q-204 14 -328.5 124.5t-134.5 289.5zM345 1074q0 -87 56 -140.5t185 -89.5v464q-112 -14 -176.5 -76t-64.5 -158zM970 384q0 92 -61.5 149t-199.5 93v-490q118 14 189.5 81.5t71.5 166.5z" />
    <glyph glyph-name="percent" unicode="%" 
d="M285 746q-129 0 -204 85.5t-75 231.5v90q0 143 75.5 227.5t203.5 84.5q127 0 202.5 -84.5t75.5 -227.5v-90q0 -146 -74.5 -231.5t-203.5 -85.5zM1266 1443v-156l-1266 -1287v156zM285 884q67 0 102 49t35 143v60q0 94 -35 143t-102 49t-102 -49t-35 -143v-60
q0 -94 35 -143t102 -49zM981 -23q-129 0 -203.5 85.5t-74.5 231.5v90q0 143 75.5 227.5t202.5 84.5q128 0 203.5 -84.5t75.5 -227.5v-90q0 -146 -75 -231.5t-204 -85.5zM981 115q67 0 102 49t35 143v60q0 191 -137 191q-67 0 -102 -48.5t-35 -142.5v-60q0 -94 35 -143
t102 -49z" />
    <glyph glyph-name="ampersand" unicode="&#x26;" 
d="M1003 0l-110 139q-168 -165 -401 -165q-191 0 -312 112t-121 288q0 236 256 401l49 33q-162 193 -162 350q0 139 93 227t241 88q145 0 236.5 -88t91.5 -227q0 -108 -61 -195t-203 -180l291 -362q48 111 54 296v14h165v-24q-8 -260 -111 -430l228 -277h-224zM533 1315
q-69 0 -115 -46t-46 -115q0 -57 31 -118t102 -143q105 69 147 127.5t42 133.5q0 69 -46 115t-115 46zM420 660q-176 -110 -176 -274q0 -110 72 -177.5t189 -67.5q185 0 291 123l-339 420z" />
    <glyph glyph-name="quotesingle" unicode="'" 
d="M737 781h-208v662h208v-662z" />
    <glyph glyph-name="parenleft" unicode="(" 
d="M395 722q0 261 78.5 484.5t229.5 394.5h203q-157 -226 -227 -432.5t-70 -446.5q0 -241 69.5 -447t227.5 -432h-203q-151 171 -229.5 394.5t-78.5 484.5z" />
    <glyph glyph-name="parenright" unicode=")" 
d="M871 722q0 -261 -78.5 -484.5t-229.5 -394.5h-203q158 226 227.5 432t69.5 447q0 240 -70 446.5t-227 432.5h203q151 -171 229.5 -394.5t78.5 -484.5z" />
    <glyph glyph-name="asterisk" unicode="*" 
d="M86 859l82 148l397 -247l-14 466h164l-14 -465l397 245l82 -147l-407 -219l407 -218l-82 -148l-397 246l14 -465h-164l14 465l-397 -246l-82 148l407 218z" />
    <glyph glyph-name="plus" unicode="+" 
d="M726 549v-442h-186v442h-443v182h443v444h186v-444h443v-182h-443z" />
    <glyph glyph-name="comma" unicode="," 
d="M547 -337h-184l119 662h251z" />
    <glyph glyph-name="hyphen" unicode="-" 
d="M1162 549h-1058v182h1058v-182z" />
    <glyph glyph-name="hyphen" unicode="&#x2011;" 
d="M1162 549h-1058v182h1058v-182z" />
    <glyph glyph-name="hyphen" unicode="&#x2011;" 
d="M1162 549h-1058v182h1058v-182z" />
    <glyph glyph-name="period" unicode="." 
d="M633 -10q-79 0 -135.5 58t-56.5 138q0 81 56.5 138.5t135.5 57.5t135.5 -57.5t56.5 -138.5q0 -80 -56.5 -138t-135.5 -58z" />
    <glyph glyph-name="slash" unicode="/" 
d="M382 -160h-197l695 1763h201z" />
    <glyph glyph-name="zero" unicode="0" 
d="M634 -32q-242 0 -372.5 195t-130.5 558q0 364 130.5 559t372.5 195t372.5 -195t130.5 -559q0 -363 -130.5 -558t-372.5 -195zM336 721q0 -72 4 -124l558 440q-68 260 -264 260q-146 0 -222 -146.5t-76 -429.5zM634 145q145 0 221 147t76 429q0 73 -4 126l-557 -443
q69 -259 264 -259z" />
    <glyph glyph-name="one" unicode="1" 
d="M1182 0h-1014v177h414v1043h-16l-401 -261v210l418 274h204v-1266h395v-177z" />
    <glyph glyph-name="two" unicode="2" 
d="M156 1029q0 195 131.5 319.5t337.5 124.5t334 -113.5t128 -295.5q0 -114 -65.5 -226t-241.5 -296l-322 -343v-17h652v-182h-944v143l483 522q140 152 186.5 229t46.5 159q0 111 -72 177.5t-191 66.5q-120 0 -193 -73.5t-73 -194.5v-6h-197v6z" />
    <glyph glyph-name="three" unicode="3" 
d="M457 659v166h161q117 0 190.5 67t73.5 174q0 105 -71.5 168.5t-189.5 63.5t-190.5 -64t-82.5 -175h-194q11 192 138 303t336 111q202 0 329.5 -105.5t127.5 -271.5q0 -129 -66 -217.5t-183 -115.5v-16q145 -19 226.5 -113t81.5 -240q0 -187 -142.5 -305.5t-366.5 -118.5
q-221 0 -360 115.5t-149 306.5h195q10 -110 94 -175.5t214 -65.5q141 0 223.5 67.5t82.5 183.5q0 118 -84.5 187.5t-226.5 69.5h-167z" />
    <glyph glyph-name="four" unicode="4" 
d="M785 0v296h-653v166l475 981h211l-466 -958v-14h438v399h187v-399h213v-175h-212v-296h-193z" />
    <glyph glyph-name="five" unicode="5" 
d="M622 -29q-208 0 -343 116t-144 304h200q13 -106 95 -172t201 -66q133 0 214 85.5t81 224.5q0 140 -81.5 226t-213.5 86q-92 0 -163.5 -39.5t-112.5 -112.5h-198l71 820h816v-181h-651l-38 -447h17q104 133 302 133q200 0 326.5 -134t126.5 -346q0 -223 -139.5 -360
t-365.5 -137z" />
    <glyph glyph-name="six" unicode="6" 
d="M1147 469q0 -216 -143.5 -357.5t-363.5 -141.5q-223 0 -365.5 141t-142.5 362q0 129 46.5 253.5t151.5 274.5q17 25 160 224t158 218h237l-384 -524q-41 -57 -53 -82l16 -6q35 42 102 69.5t135 27.5q193 0 319.5 -130.5t126.5 -328.5zM639 150q130 0 217 88.5t87 220.5
q0 133 -87 221.5t-217 88.5t-217 -88.5t-87 -221.5q0 -132 87 -220.5t217 -88.5z" />
    <glyph glyph-name="seven" unicode="7" 
d="M275 0l645 1250v14h-770v179h982v-183l-637 -1260h-220z" />
    <glyph glyph-name="eight" unicode="8" 
d="M637 -32q-234 0 -380 116.5t-146 302.5q0 134 81.5 234.5t217.5 132.5v16q-111 30 -176 116.5t-65 202.5q0 169 131 277.5t337 108.5t337 -108.5t131 -277.5q0 -117 -65 -202.5t-177 -116.5v-16q134 -28 217 -130t83 -237q0 -186 -146.5 -302.5t-379.5 -116.5zM637 836
q119 0 191.5 64.5t72.5 170.5q0 105 -73 169.5t-191 64.5q-119 0 -191.5 -64.5t-72.5 -169.5q0 -106 72.5 -170.5t191.5 -64.5zM637 139q140 0 227 73.5t87 191.5t-87 191.5t-227 73.5t-227 -73.5t-87 -191.5t87 -191.5t227 -73.5z" />
    <glyph glyph-name="nine" unicode="9" 
d="M125 975q0 215 143.5 356.5t363.5 141.5q223 0 365 -141t142 -362q0 -125 -47.5 -249.5t-153.5 -278.5q-17 -26 -160.5 -225t-157.5 -217h-237l384 525q39 54 54 81l-17 7q-34 -43 -99.5 -70t-134.5 -27q-193 0 -319 129.5t-126 329.5zM632 1294q-130 0 -217 -89
t-87 -221t87 -221t217 -89t217 89t87 221t-87 221t-217 89z" />
    <glyph glyph-name="colon" unicode=":" 
d="M633 756q-79 0 -135.5 57.5t-56.5 137.5q0 81 56.5 138.5t135.5 57.5t135.5 -57.5t56.5 -138.5q0 -80 -56.5 -137.5t-135.5 -57.5zM633 -10q-79 0 -135.5 58t-56.5 138q0 81 56.5 138.5t135.5 57.5t135.5 -57.5t56.5 -138.5q0 -80 -56.5 -138t-135.5 -58z" />
    <glyph glyph-name="semicolon" unicode=";" 
d="M633 756q-79 0 -135.5 57.5t-56.5 137.5q0 81 56.5 138.5t135.5 57.5t135.5 -57.5t56.5 -138.5q0 -80 -56.5 -137.5t-135.5 -57.5zM563 -337h-185l120 662h250z" />
    <glyph glyph-name="less" unicode="&#x3c;" 
d="M1074 1008l-673 -359v-17l673 -358v-224l-881 504v173l881 504v-223z" />
    <glyph glyph-name="equal" unicode="=" 
d="M1162 778h-1058v195h1058v-195zM1162 307h-1058v195h1058v-195z" />
    <glyph glyph-name="greater" unicode="&#x3e;" 
d="M193 1008v223l881 -504v-173l-881 -504v224l672 358v17z" />
    <glyph glyph-name="question" unicode="?" 
d="M198 1061q8 185 126.5 292t314.5 107q189 0 309.5 -104t120.5 -268q0 -217 -206 -342q-93 -56 -126.5 -105t-33.5 -127v-65h-201l-1 84q-2 105 42.5 178t146.5 135q89 55 124 106.5t35 126.5q0 88 -61 142t-159 54q-101 0 -162.5 -57t-69.5 -157h-199zM610 -22
q-63 0 -106.5 44t-43.5 107q0 62 43.5 106t106.5 44q62 0 106 -44t44 -106q0 -63 -44 -107t-106 -44z" />
    <glyph glyph-name="at" unicode="@" 
d="M669 -200q-279 0 -420 188.5t-141 561.5v171q0 374 136.5 564.5t403.5 190.5q255 0 389.5 -161t134.5 -467v-292q0 -122 -60 -190t-168 -68h-263q-57 0 -90.5 34.5t-33.5 92.5v416q0 58 28 92t75 34t75 -34t28 -92v-421h156q67 0 94.5 29t27.5 100v273q0 524 -394 524
q-210 0 -306.5 -151t-96.5 -480v-143q0 -334 105.5 -488.5t334.5 -154.5q67 0 130 10t95 25v-126q-36 -17 -103.5 -27.5t-136.5 -10.5z" />
    <glyph glyph-name="A" unicode="A" 
d="M983 0l-115 398h-480l-116 -398h-210l455 1443h232l455 -1443h-221zM625 1212l-188 -645h382l-187 645h-7z" />
    <glyph glyph-name="B" unicode="B" 
d="M668 0h-493v1443h486q202 0 316.5 -95t114.5 -262q0 -119 -70.5 -207.5t-181.5 -107.5v-15q145 -13 234.5 -110t89.5 -241q0 -190 -132 -297.5t-364 -107.5zM380 1273v-445h207q143 0 219.5 57t76.5 164t-71 165.5t-202 58.5h-230zM380 172h236q332 0 332 249
q0 121 -85 182.5t-252 61.5h-231v-493z" />
    <glyph glyph-name="C" unicode="C" 
d="M665 161q135 0 215 79t83 215h210q0 -219 -139.5 -352t-367.5 -133q-258 0 -401.5 162.5t-143.5 455.5v267q0 293 143.5 455.5t401.5 162.5q234 0 369 -134.5t138 -371.5h-210q-4 142 -86.5 228.5t-212.5 86.5q-162 0 -245.5 -108.5t-83.5 -318.5v-267
q0 -210 83.5 -318.5t246.5 -108.5z" />
    <glyph glyph-name="D" unicode="D" 
d="M148 1443h422q305 0 460 -180.5t155 -536.5q0 -726 -615 -726h-422v1443zM357 1258v-1073h190q218 0 321.5 131t103.5 408q0 271 -104.5 402.5t-320.5 131.5h-190z" />
    <glyph glyph-name="E" unicode="E" 
d="M1089 185v-185h-868v1443h868v-185h-659v-437h622v-174h-622v-462h659z" />
    <glyph glyph-name="F" unicode="F" 
d="M451 0h-209v1443h870v-185h-661v-466h603v-179h-603v-613z" />
    <glyph glyph-name="G" unicode="G" 
d="M953 450v125h-313v168h524v-305q0 -209 -140 -338.5t-365 -129.5q-258 0 -400.5 162.5t-142.5 455.5v267q0 293 142.5 455.5t400.5 162.5q229 0 364.5 -131t140.5 -358h-210q-6 134 -88.5 216t-210.5 82q-162 0 -245.5 -108.5t-83.5 -318.5v-267q0 -211 84 -319t247 -108
q137 0 216.5 77.5t79.5 211.5z" />
    <glyph glyph-name="H" unicode="H" 
d="M1123 0h-206v643h-568v-643h-206v1443h206v-615h568v615h206v-1443z" />
    <glyph glyph-name="I" unicode="I" 
d="M1031 0h-796v181h294v1081h-294v181h796v-181h-294v-1081h294v-181z" />
    <glyph glyph-name="J" unicode="J" 
d="M591 -30q-197 0 -319 112.5t-123 296.5h203q4 -97 69 -156.5t167 -59.5q116 0 178.5 68t62.5 195v836h-503v181h711v-1021q0 -212 -118.5 -332t-327.5 -120z" />
    <glyph glyph-name="K" unicode="K" 
d="M401 0h-202v1443h202v-701h13l561 701h233l-522 -638l568 -805h-252l-458 651l-143 -174v-477z" />
    <glyph glyph-name="L" unicode="L" 
d="M1129 188v-188h-875v1443h206v-1255h669z" />
    <glyph glyph-name="M" unicode="M" 
d="M288 533v-533h-181v1443h226l293 -877h14l292 877h227v-1443h-181v533l17 582h-15l-270 -776h-154l-270 776h-15z" />
    <glyph glyph-name="N" unicode="N" 
d="M330 0h-185v1443h194l582 -1079h15v1079h185v-1443h-192l-584 1082h-15v-1082z" />
    <glyph glyph-name="O" unicode="O" 
d="M1169 607q0 -299 -143 -468t-393 -169t-393 169t-143 468v229q0 299 143 468t393 169t393 -169t143 -468v-229zM633 160q155 0 240.5 116t85.5 332v227q0 216 -85.5 332t-240.5 116t-240.5 -116t-85.5 -332v-227q0 -216 85.5 -332t240.5 -116z" />
    <glyph glyph-name="P" unicode="P" 
d="M183 1443h494q215 0 344.5 -128.5t129.5 -342.5t-131 -342t-349 -128h-279v-502h-209v1443zM392 1265v-586h234q152 0 232.5 75t80.5 218t-80.5 218t-232.5 75h-234z" />
    <glyph glyph-name="Q" unicode="Q" 
d="M959 -163l-109 173q-98 -40 -217 -40q-250 0 -393 169t-143 468v229q0 299 143 468t393 169t393 -169t143 -468v-229q0 -330 -170 -498l171 -272h-211zM633 152q63 0 115 20l-181 289h211l110 -175q74 119 74 320v223q0 219 -86 336.5t-243 117.5t-243 -117.5t-86 -336.5
v-223q0 -219 86 -336.5t243 -117.5z" />
    <glyph glyph-name="R" unicode="R" 
d="M672 563h-295v-563h-207v1443h496q221 0 349 -118t128 -323q0 -141 -72 -249.5t-193 -150.5l292 -602h-234zM377 1266v-535h260q142 0 219 69.5t77 197.5q0 127 -76 197.5t-213 70.5h-267z" />
    <glyph glyph-name="S" unicode="S" 
d="M126 390h201q12 -112 96.5 -175.5t222.5 -63.5q137 0 218 64.5t81 173.5q0 88 -62 143t-202 89l-132 31q-199 49 -294 148.5t-95 257.5q0 189 132 302t352 113q211 0 343.5 -111t140.5 -294h-200q-12 106 -86.5 165t-195.5 59q-130 0 -203.5 -58t-73.5 -161
q0 -89 60 -143t194 -86l132 -33q210 -50 304.5 -147t94.5 -261q0 -199 -137.5 -316t-372.5 -117q-230 0 -368.5 112.5t-149.5 307.5z" />
    <glyph glyph-name="T" unicode="T" 
d="M737 0h-208v1258h-429v185h1066v-185h-429v-1258z" />
    <glyph glyph-name="U" unicode="U" 
d="M633 161q147 0 228 93t81 262v927h208v-940q0 -251 -137 -392t-380 -141t-380 141t-137 392v940h208v-927q0 -169 81 -262t228 -93z" />
    <glyph glyph-name="V" unicode="V" 
d="M641 231l354 1212h209l-455 -1443h-232l-455 1443h220l352 -1212h7z" />
    <glyph glyph-name="W" unicode="W" 
d="M639 883h-12l-195 -883h-191l-241 1443h194l78 -556l78 -593h13l181 819h178l181 -819h13l78 593l78 556h194l-241 -1443h-191z" />
    <glyph glyph-name="X" unicode="X" 
d="M59 0l449 725l-446 718h233l341 -562h9l344 562h218l-457 -722l451 -721h-227l-345 553h-9l-348 -553h-213z" />
    <glyph glyph-name="Y" unicode="Y" 
d="M737 0h-208v579l-476 864h230l343 -648h14l343 648h230l-476 -864v-579z" />
    <glyph glyph-name="Z" unicode="Z" 
d="M136 0v147l727 1097v14h-704v185h965v-147l-726 -1097v-14h741v-185h-1003z" />
    <glyph glyph-name="bracketleft" unicode="[" 
d="M360 1603h557v-160h-360v-1443h363v-160h-560v1763z" />
    <glyph glyph-name="backslash" unicode="\" 
d="M884 -160l-699 1763h201l695 -1763h-197z" />
    <glyph glyph-name="bracketright" unicode="]" 
d="M920 1603v-1763h-560v160h363v1443h-359v160h556z" />
    <glyph glyph-name="asciicircum" unicode="^" 
d="M624 1235l-227 -554h-203l335 762h208l335 -762h-203l-227 554h-18z" />
    <glyph glyph-name="underscore" unicode="_" 
d="M1152 -323h-1038v173h1038v-173z" />
    <glyph glyph-name="grave" unicode="`" 
d="M870 1296h-205l-269 343h235z" />
    <glyph glyph-name="a" unicode="a" 
d="M512 -18q-156 0 -251 90t-95 238q0 145 101.5 228.5t292.5 94.5l286 15v96q0 94 -56.5 144.5t-161.5 50.5q-87 0 -146.5 -36t-78.5 -100h-196q15 135 132.5 218.5t292.5 83.5q197 0 305 -94.5t108 -266.5v-745h-191v159h-19q-39 -84 -123.5 -130t-199.5 -46zM574 149
q117 0 194.5 69t77.5 173v115l-259 -13q-109 -6 -165 -50t-56 -124q0 -79 56 -124.5t152 -45.5z" />
    <glyph glyph-name="b" unicode="b" 
d="M717 -18q-118 0 -200 49t-120 141h-19v-172h-202v1515h206v-598h20q33 91 115 141t200 50q189 0 300 -125.5t111 -338.5v-198q0 -213 -111 -338.5t-300 -125.5zM651 160q126 0 200 82.5t74 222.5v163q0 140 -74 223t-200 83q-125 0 -199.5 -82.5t-74.5 -223.5v-163
q0 -140 74.5 -222.5t199.5 -82.5z" />
    <glyph glyph-name="c" unicode="c" 
d="M1099 739h-198q-14 94 -81.5 147.5t-168.5 53.5q-133 0 -204 -90t-71 -258v-92q0 -168 71 -258t204 -90q101 0 168 52t82 144h198q-20 -174 -138 -271.5t-308 -97.5q-227 0 -352.5 131t-125.5 369v134q0 238 125 368.5t353 130.5q191 0 308.5 -98t137.5 -275z" />
    <glyph glyph-name="d" unicode="d" 
d="M549 -18q-189 0 -300 125.5t-111 338.5v198q0 213 111 338.5t300 125.5q118 0 200.5 -50t115.5 -141h19v598h206v-1515h-201v172h-19q-39 -92 -121 -141t-200 -49zM615 160q126 0 200 82.5t74 222.5v163q0 141 -74 223.5t-200 82.5t-200 -83t-74 -223v-163
q0 -140 74 -222.5t200 -82.5z" />
    <glyph glyph-name="e" unicode="e" 
d="M910 288h192q-22 -137 -145 -223t-299 -86q-229 0 -355 128.5t-126 361.5v166q0 215 129 345.5t341 130.5q214 0 336 -133t122 -365v-118h-731v-49q0 -138 77 -220t206 -82q97 0 165 38.5t88 105.5zM645 947q-127 0 -199 -82.5t-72 -228.5h534q0 146 -69.5 228.5
t-193.5 82.5z" />
    <glyph glyph-name="f" unicode="f" 
d="M465 0v919h-292v165h292v102q0 165 97 241t305 76q210 0 264 -9v-155q-80 8 -260 8q-209 0 -209 -154v-109h469v-165h-466v-919h-200z" />
    <glyph glyph-name="g" unicode="g" 
d="M602 -409q-197 0 -319 79.5t-138 217.5h198q16 -64 87 -102t175 -38q135 0 207 65.5t72 188.5v182h-19q-32 -88 -119 -139t-207 -51q-189 0 -301 125.5t-112 338.5v186q0 214 113.5 339t306.5 125q118 0 203.5 -51t118.5 -140h19v173h198v-1089q0 -192 -128.5 -301
t-354.5 -109zM330 477q0 -140 75 -223t202 -83q126 0 201.5 83.5t75.5 222.5v151q0 140 -75.5 223t-201.5 83q-127 0 -202 -83t-75 -223v-151z" />
    <glyph glyph-name="h" unicode="h" 
d="M173 0v1515h194v-616h15q42 101 131.5 155.5t213.5 54.5q178 0 272 -104t94 -300v-705h-200v656q0 139 -58.5 206.5t-179.5 67.5q-127 0 -204 -80.5t-77 -212.5v-637h-201z" />
    <glyph glyph-name="i" unicode="i" 
d="M651 1345q-67 0 -111 42t-44 106q0 65 44 107t111 42q68 0 111.5 -42t43.5 -107q0 -64 -43.5 -106t-111.5 -42zM1111 0h-915v162h367v766h-359v162h555v-928h352v-162z" />
    <glyph glyph-name="j" unicode="j" 
d="M771 1345q-68 0 -111.5 42t-43.5 106q0 65 43.5 107t111.5 42q67 0 110.5 -42t43.5 -107q0 -64 -43.5 -106t-110.5 -42zM883 1090v-1074q0 -190 -99.5 -271.5t-331.5 -81.5q-186 0 -269 7v175q64 -6 262 -6q137 0 189.5 41.5t52.5 149.5v898h-483v162h679z" />
    <glyph glyph-name="k" unicode="k" 
d="M464 615l446 475h238l-417 -438l446 -652h-236l-355 521l-137 -134v-387h-200v1515h200v-900h15z" />
    <glyph glyph-name="l" unicode="l" 
d="M1111 0h-915v162h365v1190h-357v163h557v-1353h350v-162z" />
    <glyph glyph-name="m" unicode="m" 
d="M1166 815v-815h-176v753q0 87 -33 133.5t-95 46.5q-65 0 -102.5 -52t-37.5 -142v-739h-175v754q0 88 -33 133.5t-95 45.5q-66 0 -104.5 -52t-38.5 -142v-739h-176v1090h177v-158h22q19 85 74 132t133 47q76 0 127.5 -46t68.5 -129h22q19 81 78 128t140 47
q110 0 167 -75.5t57 -220.5z" />
    <glyph glyph-name="n" unicode="n" 
d="M175 0v1090h194v-190h14q43 101 132 156t211 55q178 0 271.5 -103.5t93.5 -300.5v-707h-201v657q0 140 -57.5 207.5t-178.5 67.5q-125 0 -202 -80.5t-77 -212.5v-639h-200z" />
    <glyph glyph-name="o" unicode="o" 
d="M633 -21q-220 0 -350.5 131t-130.5 352v165q0 222 130 352.5t351 130.5t351 -130.5t130 -352.5v-165q0 -221 -130.5 -352t-350.5 -131zM633 940q-131 0 -207 -88t-76 -239v-137q0 -151 76 -239t207 -88t207 88t76 239v137q0 151 -76 239t-207 88z" />
    <glyph glyph-name="p" unicode="p" 
d="M718 1107q188 0 299.5 -125t111.5 -338v-199q0 -213 -111.5 -338t-299.5 -125q-118 0 -200.5 49.5t-115.5 141.5h-19v-539h-206v1456h201v-173h19q38 93 120 141.5t201 48.5zM651 929q-125 0 -199 -82.5t-74 -222.5v-163q0 -141 74 -223.5t199 -82.5q126 0 200.5 83
t74.5 223v163q0 140 -74.5 222.5t-200.5 82.5z" />
    <glyph glyph-name="q" unicode="q" 
d="M548 1107q119 0 201 -48.5t120 -141.5h19v173h201v-1456h-206v539h-19q-33 -92 -115.5 -141.5t-200.5 -49.5q-188 0 -299.5 125t-111.5 338v199q0 213 111.5 338t299.5 125zM615 929q-126 0 -200.5 -82.5t-74.5 -222.5v-163q0 -140 74.5 -223t200.5 -83q125 0 199 82.5
t74 223.5v163q0 140 -74 222.5t-199 82.5z" />
    <glyph glyph-name="r" unicode="r" 
d="M597 486v-332h331v-154h-742v154h216v782h-237v154h431v-278h28q64 306 379 306q102 0 157 -23v-220q-84 31 -180 31q-184 0 -283.5 -109.5t-99.5 -310.5z" />
    <glyph glyph-name="s" unicode="s" 
d="M223 789q0 146 113 234.5t300 88.5q179 0 289 -80.5t123 -222.5h-192q-14 67 -73.5 105.5t-149.5 38.5q-96 0 -153.5 -41t-57.5 -109q0 -58 42 -93t138 -56l158 -35q162 -36 237 -108t75 -192q0 -155 -118.5 -247t-318.5 -92q-193 0 -310.5 81.5t-130.5 225.5h202
q16 -70 80.5 -108t163.5 -38q103 0 164 42.5t61 113.5q0 60 -41 94.5t-140 56.5l-163 37q-298 67 -298 304z" />
    <glyph glyph-name="t" unicode="t" 
d="M435 1388h198v-304h431v-165h-428v-589q0 -81 55 -124t159 -43q168 0 208 5v-164q-44 -8 -222 -8q-210 0 -305.5 79.5t-95.5 254.5v589h-288v165h288v304z" />
    <glyph glyph-name="u" unicode="u" 
d="M1091 1090v-1090h-194v189h-14q-43 -101 -132 -155.5t-211 -54.5q-178 0 -271.5 103.5t-93.5 300.5v707h201v-658q0 -140 57.5 -207t178.5 -67q125 0 202 80.5t77 212.5v639h200z" />
    <glyph glyph-name="v" unicode="v" 
d="M128 1090h215l285 -885h14l283 885h213l-393 -1090h-223z" />
    <glyph glyph-name="w" unicode="w" 
d="M1227 1090l-230 -1090h-185l-173 817h-11l-174 -817h-185l-230 1090h194l129 -845h23l159 843h178l159 -843h23l129 845h194z" />
    <glyph glyph-name="x" unicode="x" 
d="M637 405h-14l-258 -405h-219l366 544l-368 546h234l253 -401h14l251 401h224l-365 -538l368 -552h-229z" />
    <glyph glyph-name="y" unicode="y" 
d="M322 -390q-43 0 -82 3v169q16 -3 60 -3q79 0 125.5 36.5t76.5 122.5l17 54l-397 1098h220l287 -892h14l285 892h213l-400 -1123q-71 -203 -161.5 -280t-257.5 -77z" />
    <glyph glyph-name="z" unicode="z" 
d="M201 0v132l618 777v15h-614v166h854v-142l-602 -767v-15h608v-166h-864z" />
    <glyph glyph-name="braceleft" unicode="{" 
d="M1031 -160h-143q-193 0 -266 73t-73 264v223q0 121 -73.5 176.5t-240.5 41.5v207q167 -14 240.5 41t73.5 176v224q0 191 73 264t266 73h143v-160h-105q-110 0 -143 -39t-33 -167v-270q0 -106 -77 -169.5t-222 -67.5v-17q145 -4 222 -67.5t77 -169.5v-270q0 -128 33 -167
t143 -39h105v-160z" />
    <glyph glyph-name="bar" unicode="|" 
d="M728 -483h-190v2086h190v-2086z" />
    <glyph glyph-name="braceright" unicode="}" 
d="M235 -160v160h105q110 0 143 39t33 167v270q0 106 77 169.5t222 67.5v17q-145 4 -222 67.5t-77 169.5v270q0 128 -33 167t-143 39h-105v160h143q193 0 266 -73t73 -264v-224q0 -121 73.5 -176t240.5 -41v-207q-167 14 -240.5 -41.5t-73.5 -176.5v-223q0 -191 -73 -264
t-266 -73h-143z" />
    <glyph glyph-name="asciitilde" unicode="~" 
d="M422 921q71 0 130.5 -29t126.5 -98q49 -52 83.5 -72.5t69.5 -20.5q114 0 125 179h176q1 -9 1 -30q0 -156 -78.5 -250t-208.5 -94q-73 0 -132 29t-126 97q-49 52 -82 72.5t-66 20.5q-120 0 -130 -178h-178q-1 8 -1 30q0 156 79.5 250t210.5 94z" />
    <glyph glyph-name="nonbreakingspace" unicode="&#xa0;" 
 />
    <glyph glyph-name="exclamdown" unicode="&#xa1;" 
d="M633 1115q63 0 106.5 -44t43.5 -107q0 -62 -43.5 -106t-106.5 -44t-106.5 44t-43.5 106q0 63 43.5 107t106.5 44zM517 -350l18 994h196l19 -994h-233z" />
    <glyph glyph-name="cent" unicode="&#xa2;" 
d="M190 629v178q0 197 99.5 316t264.5 148v176h191v-175q146 -23 234 -115.5t94 -225.5h-196q-9 71 -70 119t-153 48q-121 0 -190.5 -79t-69.5 -218v-166q0 -141 68 -219.5t192 -78.5q96 0 158 44t72 107h197q-3 -127 -97 -215t-239 -113v-177h-191v176q-170 25 -267 144.5
t-97 325.5z" />
    <glyph glyph-name="sterling" unicode="&#xa3;" 
d="M1161 192v-192h-1035v182q127 25 208 120t83 220q0 65 -20 127h-272v168h221q-60 160 -60 271q0 184 133 287t371 103q91 0 153 -8t136 -31v-188q-130 40 -268 40q-147 0 -227 -62t-80 -175q0 -56 11 -102.5t42 -134.5h427v-168h-379q20 -63 20 -121q2 -98 -44 -183
t-129 -136v-17h709z" />
    <glyph glyph-name="currency" unicode="&#xa4;" 
d="M1142 1039l-158 -164q64 -98 64 -221q0 -125 -65 -223l159 -164l-123 -129l-160 169q-95 -65 -217 -65q-120 0 -217 65l-160 -169l-124 129l162 165q-65 97 -65 222t65 220l-162 165l124 129l161 -168q97 66 216 66q122 0 217 -66l160 168zM643 404q106 0 175.5 71
t69.5 179t-69.5 179t-175.5 71t-176 -71.5t-70 -178.5t70 -178.5t176 -71.5z" />
    <glyph glyph-name="yen" unicode="&#xa5;" 
d="M737 0h-208v248h-271v147h271v155h-271v147h206l-411 746h230l343 -648h14l343 648h230l-411 -746h207v-147h-272v-155h272v-147h-272v-248z" />
    <glyph glyph-name="brokenbar" unicode="&#xa6;" 
d="M728 782h-190v821h190v-821zM728 -483h-190v820h190v-820z" />
    <glyph glyph-name="section" unicode="&#xa7;" 
d="M636 -267q-172 0 -285 86.5t-122 224.5h197q10 -64 69.5 -103.5t148.5 -39.5q91 0 147.5 40.5t56.5 106.5q0 54 -43 90t-134 58l-151 46q-152 43 -226 116.5t-74 182.5q0 93 56 160t159 97v17q-209 89 -209 273q0 145 111 233t291 88q169 0 276.5 -81.5t122.5 -220.5
h-195q-9 61 -65.5 98t-141.5 37q-90 0 -145.5 -40.5t-55.5 -106.5q0 -55 42.5 -90.5t131.5 -57.5l152 -45q151 -43 224 -115t73 -179q0 -99 -65 -174t-174 -100v-17q237 -67 237 -260q0 -143 -114 -233.5t-295 -90.5zM572 421l92 -27q86 6 138 51t52 116q0 117 -157 159
l-93 29q-84 -5 -137 -51.5t-53 -115.5q0 -59 41 -101.5t117 -59.5z" />
    <glyph glyph-name="dieresis" unicode="&#xa8;" 
d="M423 1315q-51 0 -88.5 38.5t-37.5 90.5t37.5 90.5t88.5 38.5q50 0 88 -38.5t38 -90.5t-38 -90.5t-88 -38.5zM843 1315q-50 0 -88 38.5t-38 90.5t38 90.5t88 38.5q51 0 88.5 -38.5t37.5 -90.5t-37.5 -90.5t-88.5 -38.5z" />
    <glyph glyph-name="copyright" unicode="&#xa9;" 
d="M633 172q-149 0 -273.5 72t-196.5 198.5t-72 278.5t72 278.5t196.5 198.5t273.5 72t273.5 -72t196.5 -198.5t72 -278.5t-72 -278.5t-196.5 -198.5t-273.5 -72zM633 270q184 0 310 131t126 320t-126 320t-310 131t-310 -131t-126 -320t126 -320t310 -131zM882 810h-127
q-24 87 -111 87q-64 0 -99.5 -46.5t-35.5 -128.5t35.5 -128.5t99.5 -46.5q43 0 72.5 22t38.5 60h127q-12 -89 -76.5 -142.5t-160.5 -53.5q-124 0 -194 76t-70 213t70 213t194 76q96 0 160 -54.5t77 -146.5z" />
    <glyph glyph-name="ordfeminine" unicode="&#xaa;" 
d="M548 510q-132 0 -212.5 77t-80.5 204q0 124 87.5 195t251.5 82l227 14v71q0 72 -45.5 111t-127.5 39q-68 0 -113.5 -28t-55.5 -76h-190q10 121 109.5 193t256.5 72q169 0 262.5 -81t93.5 -228v-623h-184v117h-16q-37 -67 -105.5 -103t-157.5 -36zM610 663q93 0 154.5 57
t61.5 143v90l-205 -15q-174 -12 -174 -139q0 -62 44.5 -99t118.5 -37z" />
    <glyph glyph-name="guillemotleft" unicode="&#xab;" 
d="M321 641v-4l346 -420h-200l-347 420v4l347 420h200zM796 641v-4l347 -420h-201l-347 420v4l347 420h201z" />
    <glyph glyph-name="logicalnot" unicode="&#xac;" 
d="M1162 731v-570h-183v388h-875v182h1058z" />
    <glyph glyph-name="registered" unicode="&#xae;" 
d="M633 442q-150 0 -274.5 72.5t-196 198.5t-71.5 278t71.5 278t196 198.5t274.5 72.5t274.5 -72.5t196 -198.5t71.5 -278t-71.5 -278t-196 -198.5t-274.5 -72.5zM633 540q183 0 309.5 130.5t126.5 320.5t-126.5 320.5t-309.5 130.5t-309.5 -130.5t-126.5 -320.5
t126.5 -320.5t309.5 -130.5zM531 725h-113v538h257q87 0 137.5 -45.5t50.5 -124.5q0 -57 -29.5 -99.5t-82.5 -62.5l140 -206h-140l-127 190h-93v-190zM531 1158v-149h119q43 0 66 20t23 57q0 35 -23 53.5t-66 18.5h-119z" />
    <glyph glyph-name="macron" unicode="&#xaf;" 
d="M972 1366h-678v152h678v-152z" />
    <glyph glyph-name="degree" unicode="&#xb0;" 
d="M634 828q-141 0 -234.5 93.5t-93.5 234.5t93.5 234.5t234.5 93.5t234.5 -93.5t93.5 -234.5t-93.5 -234.5t-234.5 -93.5zM634 964q82 0 135.5 54.5t53.5 137.5t-53.5 137.5t-135.5 54.5t-135.5 -54.5t-53.5 -137.5t53.5 -137.5t135.5 -54.5z" />
    <glyph glyph-name="plusminus" unicode="&#xb1;" 
d="M722 659v-272h-178v272h-411v165h411v272h178v-272h411v-165h-411zM1133 99h-1000v164h1000v-164z" />
    <glyph glyph-name="two.sups" unicode="&#xb2;" 
d="M271 1334q0 145 99.5 236t258.5 91q155 0 251.5 -82t96.5 -215q0 -83 -50 -165.5t-179 -208.5l-206 -204v-13h450v-160h-711v132l336 341q103 106 138 159.5t35 106.5q0 70 -46 112t-122 42q-77 0 -125 -47.5t-48 -124.5v-4h-178v4z" />
    <glyph glyph-name="three.sups" unicode="&#xb3;" 
d="M508 1068v144h119q77 0 124.5 41t47.5 109q0 66 -46.5 105.5t-124.5 39.5q-77 0 -125 -41.5t-53 -112.5h-172q6 143 101.5 225.5t254.5 82.5q153 0 248.5 -75.5t95.5 -196.5q0 -91 -48.5 -153.5t-131.5 -80.5v-12q103 -13 161.5 -78t58.5 -167q0 -136 -106 -221t-275 -85
q-166 0 -268.5 85t-109.5 227h176q5 -69 58.5 -109.5t138.5 -40.5q90 0 142.5 42t52.5 113q0 72 -54 115.5t-144 43.5h-121z" />
    <glyph glyph-name="acute" unicode="&#xb4;" 
d="M396 1296l239 343h235l-269 -343h-205z" />
    <glyph glyph-name="mugreek" unicode="&#xb5;" 
d="M171 -366v1456h198v-662q0 -130 59 -199.5t169 -69.5q118 0 191.5 77.5t73.5 206.5v647h197v-812q0 -65 23 -93t76 -28q26 0 56 7v-160q-39 -14 -105 -14q-108 0 -162.5 43.5t-62.5 138.5l-2 24h-16q-61 -217 -266 -217q-163 0 -216 123h-15v-468h-198z" />
    <glyph glyph-name="mugreek" unicode="&#x3bc;" 
d="M171 -366v1456h198v-662q0 -130 59 -199.5t169 -69.5q118 0 191.5 77.5t73.5 206.5v647h197v-812q0 -65 23 -93t76 -28q26 0 56 7v-160q-39 -14 -105 -14q-108 0 -162.5 43.5t-62.5 138.5l-2 24h-16q-61 -217 -266 -217q-163 0 -216 123h-15v-468h-198z" />
    <glyph glyph-name="mugreek" unicode="&#x3bc;" 
d="M171 -366v1456h198v-662q0 -130 59 -199.5t169 -69.5q118 0 191.5 77.5t73.5 206.5v647h197v-812q0 -65 23 -93t76 -28q26 0 56 7v-160q-39 -14 -105 -14q-108 0 -162.5 43.5t-62.5 138.5l-2 24h-16q-61 -217 -266 -217q-163 0 -216 123h-15v-468h-198z" />
    <glyph glyph-name="paragraph" unicode="&#xb6;" 
d="M801 -160h-180v692h-14q-203 0 -340.5 127.5t-137.5 321.5q0 201 137.5 331.5t341.5 130.5h193v-1603zM962 -160v1603h180v-1603h-180z" />
    <glyph glyph-name="middledot" unicode="&#xb7;" 
d="M634 579q-68 0 -113 45.5t-45 113.5t45 112.5t113 44.5q69 0 113 -44.5t44 -112.5q0 -69 -44 -114t-113 -45z" />
    <glyph glyph-name="cedilla" unicode="&#xb8;" 
d="M473 -236v94l59 142h143l-51 -126q95 -2 145 -45t50 -123q0 -89 -66 -141.5t-179 -52.5q-68 0 -134 18v117q44 -14 117 -14q113 0 113 68q0 33 -32.5 48t-106.5 15h-58z" />
    <glyph glyph-name="one.sups" unicode="&#xb9;" 
d="M1030 613h-734v159h280v677h-13l-267 -178v181l280 188h187v-868h267v-159z" />
    <glyph glyph-name="ordmasculine" unicode="&#xba;" 
d="M633 510q-197 0 -311 128t-114 349t114 349t311 128t311 -128t114 -349t-114 -349t-311 -128zM633 674q110 0 169 81t59 232t-59 232t-169 81t-169 -81t-59 -232t59 -232t169 -81z" />
    <glyph glyph-name="guillemotright" unicode="&#xbb;" 
d="M942 641l-347 420h200l348 -420v-4l-348 -420h-200l347 420v4zM467 641l-347 420h200l347 -420v-4l-347 -420h-200l347 420v4z" />
    <glyph glyph-name="onequarter" unicode="&#xbc;" 
d="M175 753v533h-3l-172 -129v158l175 128h173v-690h-173zM1266 1443v-156l-1266 -1287v156zM1012 0v122h-345v149q7 14 131 206.5t136 214.5h243v-438h89v-116h-89v-138h-165zM819 256v-4h198v316h-3q-9 -19 -99 -157t-96 -155z" />
    <glyph glyph-name="onehalf" unicode="&#xbd;" 
d="M175 753v533h-3l-172 -129v158l175 128h173v-690h-173zM1266 1443v-156l-1266 -1287v156zM737 477q0 104 73.5 167.5t193.5 63.5q115 0 185.5 -56.5t70.5 -147.5q0 -55 -27.5 -102t-96.5 -112l-154 -144v-4h284v-142h-518v124l265 247q73 70 73 120q0 36 -25 58t-65 22
t-66.5 -27t-26.5 -67v-3h-166v3z" />
    <glyph glyph-name="threequarters" unicode="&#xbe;" 
d="M149 1044v125h82q42 0 66.5 21.5t24.5 58.5q0 35 -24.5 55.5t-67.5 20.5t-69.5 -23.5t-28.5 -63.5h-158q1 104 72.5 164t193.5 60q112 0 179.5 -51.5t67.5 -136.5q0 -62 -37.5 -104.5t-102.5 -52.5v-9q75 -5 119.5 -48.5t44.5 -113.5q0 -93 -76.5 -151.5t-198.5 -58.5
q-124 0 -197.5 59.5t-77.5 165.5h169q2 -37 30 -59t73 -22q44 0 71.5 22.5t27.5 58.5q0 39 -26.5 61t-73.5 22h-83zM1266 1443v-156l-1266 -1287v156zM1003 0v122h-345v149q12 28 136 218.5t131 202.5h243v-438h89v-116h-89v-138h-165zM810 256v-4h198v316h-2
q-7 -14 -99 -156t-97 -156z" />
    <glyph glyph-name="questiondown" unicode="&#xbf;" 
d="M657 1113q63 0 106.5 -44t43.5 -107q0 -62 -43.5 -106t-106.5 -44q-62 0 -106 44t-44 106q0 63 44 107t106 44zM1069 30q-8 -185 -126.5 -292t-314.5 -107q-189 0 -309.5 104t-120.5 268q0 217 206 342q93 56 126.5 105t33.5 127v65h201l1 -84q2 -105 -42.5 -178
t-146.5 -135q-89 -55 -124 -106.5t-35 -126.5q0 -88 61 -142t159 -54q101 0 162.5 57t69.5 157h199z" />
    <glyph glyph-name="Agrave" unicode="&#xc0;" 
d="M755 1610h-208l-319 307h233zM983 0l-115 398h-480l-116 -398h-210l455 1443h232l455 -1443h-221zM625 1212l-188 -645h382l-187 645h-7z" />
    <glyph glyph-name="Aacute" unicode="&#xc1;" 
d="M510 1610l294 307h232l-319 -307h-207zM983 0l-115 398h-480l-116 -398h-210l455 1443h232l455 -1443h-221zM625 1212l-188 -645h382l-187 645h-7z" />
    <glyph glyph-name="Acircumflex" unicode="&#xc2;" 
d="M727 1925l285 -315h-200l-172 197h-14l-172 -197h-200l285 315h188zM983 0l-115 398h-480l-116 -398h-210l455 1443h232l455 -1443h-221zM625 1212l-188 -645h382l-187 645h-7z" />
    <glyph glyph-name="Atilde" unicode="&#xc3;" 
d="M784 1612q-43 0 -79.5 15.5t-61.5 38t-47 45t-48 38t-53 15.5q-91 0 -95 -142h-138q0 129 60 204t160 75q45 0 83.5 -15.5t64 -38t47.5 -45t46 -38t48 -15.5q90 0 96 140h137q0 -127 -60.5 -202t-159.5 -75zM983 0l-115 398h-480l-116 -398h-210l455 1443h232l455 -1443
h-221zM625 1212l-188 -645h382l-187 645h-7z" />
    <glyph glyph-name="Adieresis" unicode="&#xc4;" 
d="M423 1643q-51 0 -88.5 38.5t-37.5 90.5t37.5 90.5t88.5 38.5q50 0 88 -38.5t38 -90.5t-38 -90.5t-88 -38.5zM843 1643q-50 0 -88 38.5t-38 90.5t38 90.5t88 38.5q51 0 88.5 -38.5t37.5 -90.5t-37.5 -90.5t-88.5 -38.5zM983 0l-115 398h-480l-116 -398h-210l455 1443h232
l455 -1443h-221zM625 1212l-188 -645h382l-187 645h-7z" />
    <glyph glyph-name="Aring" unicode="&#xc5;" 
d="M633 1557q-83 0 -139.5 56t-56.5 138q0 81 56.5 136.5t139.5 55.5t139.5 -55.5t56.5 -136.5q0 -82 -56.5 -138t-139.5 -56zM633 1650q43 0 71.5 28.5t28.5 71.5t-28.5 71t-71.5 28t-71.5 -28t-28.5 -71t28.5 -71.5t71.5 -28.5zM983 0l-115 398h-480l-116 -398h-210
l455 1443h232l455 -1443h-221zM625 1212l-188 -645h382l-187 645h-7z" />
    <glyph glyph-name="AE" unicode="&#xc6;" 
d="M632 0v413h-310l-108 -413h-211l407 1443h827v-184h-415v-444h379v-176h-379v-454h415v-185h-605zM542 1248l-173 -659h263v659h-90z" />
    <glyph glyph-name="Ccedilla" unicode="&#xc7;" 
d="M536 -236v94l48 117q-221 26 -342 185t-121 428v267q0 293 143.5 455.5t401.5 162.5q234 0 369 -134.5t138 -371.5h-210q-4 142 -86.5 228.5t-212.5 86.5q-162 0 -245.5 -108.5t-83.5 -318.5v-267q0 -210 83.5 -318.5t246.5 -108.5q135 0 215 79t83 215h210
q0 -204 -121.5 -334t-324.5 -148l-40 -99q95 -2 145 -45t50 -123q0 -89 -66.5 -141.5t-179.5 -52.5q-67 0 -133 18v117q44 -14 117 -14q112 0 112 68q0 33 -32.5 48t-105.5 15h-58z" />
    <glyph glyph-name="Egrave" unicode="&#xc8;" 
d="M777 1610h-207l-320 307h233zM1089 185v-185h-868v1443h868v-185h-659v-437h622v-174h-622v-462h659z" />
    <glyph glyph-name="Eacute" unicode="&#xc9;" 
d="M526 1610l293 307h233l-319 -307h-207zM1089 185v-185h-868v1443h868v-185h-659v-437h622v-174h-622v-462h659z" />
    <glyph glyph-name="Ecircumflex" unicode="&#xca;" 
d="M749 1925l285 -315h-200l-172 197h-14l-172 -197h-200l285 315h188zM1089 185v-185h-868v1443h868v-185h-659v-437h622v-174h-622v-462h659z" />
    <glyph glyph-name="Edieresis" unicode="&#xcb;" 
d="M445 1643q-51 0 -88.5 38.5t-37.5 90.5t37.5 90.5t88.5 38.5q50 0 88 -38.5t38 -90.5t-38 -90.5t-88 -38.5zM865 1643q-50 0 -87.5 38.5t-37.5 90.5t37.5 90.5t87.5 38.5q51 0 88.5 -38.5t37.5 -90.5t-37.5 -90.5t-88.5 -38.5zM1089 185v-185h-868v1443h868v-185h-659
v-437h622v-174h-622v-462h659z" />
    <glyph glyph-name="Igrave" unicode="&#xcc;" 
d="M755 1610h-208l-319 307h233zM1031 0h-796v181h294v1081h-294v181h796v-181h-294v-1081h294v-181z" />
    <glyph glyph-name="Iacute" unicode="&#xcd;" 
d="M510 1610l294 307h232l-319 -307h-207zM1031 0h-796v181h294v1081h-294v181h796v-181h-294v-1081h294v-181z" />
    <glyph glyph-name="Icircumflex" unicode="&#xce;" 
d="M727 1925l285 -315h-200l-172 197h-14l-172 -197h-200l285 315h188zM1031 0h-796v181h294v1081h-294v181h796v-181h-294v-1081h294v-181z" />
    <glyph glyph-name="Idieresis" unicode="&#xcf;" 
d="M423 1643q-51 0 -88.5 38.5t-37.5 90.5t37.5 90.5t88.5 38.5q50 0 88 -38.5t38 -90.5t-38 -90.5t-88 -38.5zM843 1643q-50 0 -88 38.5t-38 90.5t38 90.5t88 38.5q51 0 88.5 -38.5t37.5 -90.5t-37.5 -90.5t-88.5 -38.5zM1031 0h-796v181h294v1081h-294v181h796v-181h-294
v-1081h294v-181z" />
    <glyph glyph-name="Eth" unicode="&#xd0;" 
d="M148 1443h422q305 0 460 -180.5t155 -536.5q0 -726 -615 -726h-422v646h-131v177h131v620zM610 646h-253v-461h190q218 0 321.5 131t103.5 408q0 271 -104.5 402.5t-320.5 131.5h-190v-435h253v-177z" />
    <glyph glyph-name="Ntilde" unicode="&#xd1;" 
d="M781 1612q-43 0 -79.5 15.5t-61.5 38t-47 45t-47.5 38t-53.5 15.5q-91 0 -95 -142h-138q0 129 60 204t160 75q45 0 83.5 -15.5t64 -38t47.5 -45t46 -38t49 -15.5q43 0 68 35.5t28 104.5h137q0 -127 -61 -202t-160 -75zM330 0h-185v1443h194l582 -1079h15v1079h185v-1443
h-192l-584 1082h-15v-1082z" />
    <glyph glyph-name="Ograve" unicode="&#xd2;" 
d="M755 1610h-208l-319 307h233zM1169 607q0 -299 -143 -468t-393 -169t-393 169t-143 468v229q0 299 143 468t393 169t393 -169t143 -468v-229zM633 160q155 0 240.5 116t85.5 332v227q0 216 -85.5 332t-240.5 116t-240.5 -116t-85.5 -332v-227q0 -216 85.5 -332
t240.5 -116z" />
    <glyph glyph-name="Oacute" unicode="&#xd3;" 
d="M510 1610l294 307h232l-319 -307h-207zM1169 607q0 -299 -143 -468t-393 -169t-393 169t-143 468v229q0 299 143 468t393 169t393 -169t143 -468v-229zM633 160q155 0 240.5 116t85.5 332v227q0 216 -85.5 332t-240.5 116t-240.5 -116t-85.5 -332v-227q0 -216 85.5 -332
t240.5 -116z" />
    <glyph glyph-name="Ocircumflex" unicode="&#xd4;" 
d="M727 1925l285 -315h-200l-172 197h-14l-172 -197h-200l285 315h188zM1169 607q0 -299 -143 -468t-393 -169t-393 169t-143 468v229q0 299 143 468t393 169t393 -169t143 -468v-229zM633 160q155 0 240.5 116t85.5 332v227q0 216 -85.5 332t-240.5 116t-240.5 -116
t-85.5 -332v-227q0 -216 85.5 -332t240.5 -116z" />
    <glyph glyph-name="Otilde" unicode="&#xd5;" 
d="M784 1612q-43 0 -79.5 15.5t-61.5 38t-47 45t-48 38t-53 15.5q-91 0 -95 -142h-138q0 129 60 204t160 75q45 0 83.5 -15.5t64 -38t47.5 -45t46 -38t48 -15.5q90 0 96 140h137q0 -127 -60.5 -202t-159.5 -75zM1169 607q0 -299 -143 -468t-393 -169t-393 169t-143 468v229
q0 299 143 468t393 169t393 -169t143 -468v-229zM633 160q155 0 240.5 116t85.5 332v227q0 216 -85.5 332t-240.5 116t-240.5 -116t-85.5 -332v-227q0 -216 85.5 -332t240.5 -116z" />
    <glyph glyph-name="Odieresis" unicode="&#xd6;" 
d="M423 1643q-51 0 -88.5 38.5t-37.5 90.5t37.5 90.5t88.5 38.5q50 0 88 -38.5t38 -90.5t-38 -90.5t-88 -38.5zM843 1643q-50 0 -88 38.5t-38 90.5t38 90.5t88 38.5q51 0 88.5 -38.5t37.5 -90.5t-37.5 -90.5t-88.5 -38.5zM1169 607q0 -299 -143 -468t-393 -169t-393 169
t-143 468v229q0 299 143 468t393 169t393 -169t143 -468v-229zM633 160q155 0 240.5 116t85.5 332v227q0 216 -85.5 332t-240.5 116t-240.5 -116t-85.5 -332v-227q0 -216 85.5 -332t240.5 -116z" />
    <glyph glyph-name="multiply" unicode="&#xd7;" 
d="M634 779l320 321l127 -138l-320 -321l320 -321l-129 -138l-320 320l-319 -321l-128 137l320 321l-320 322l128 139z" />
    <glyph glyph-name="Oslash" unicode="&#xd8;" 
d="M84 0l122 184q-109 163 -109 423v229q0 299 143 468t393 169q209 0 347 -121l61 91h139l-121 -182q110 -162 110 -425v-229q0 -299 -143 -468t-393 -169q-211 0 -348 123l-62 -93h-139zM307 608q0 -130 32 -224l526 794q-84 105 -232 105q-155 0 -240.5 -116t-85.5 -332
v-227zM633 160q155 0 240.5 116t85.5 332v227q0 132 -32 226l-527 -795q84 -106 233 -106z" />
    <glyph glyph-name="Ugrave" unicode="&#xd9;" 
d="M753 1610h-208l-319 307h233zM633 161q147 0 228 93t81 262v927h208v-940q0 -251 -137 -392t-380 -141t-380 141t-137 392v940h208v-927q0 -169 81 -262t228 -93z" />
    <glyph glyph-name="Uacute" unicode="&#xda;" 
d="M508 1610l293 307h233l-319 -307h-207zM633 161q147 0 228 93t81 262v927h208v-940q0 -251 -137 -392t-380 -141t-380 141t-137 392v940h208v-927q0 -169 81 -262t228 -93z" />
    <glyph glyph-name="Ucircumflex" unicode="&#xdb;" 
d="M725 1925l285 -315h-200l-172 197h-14l-172 -197h-200l285 315h188zM633 161q147 0 228 93t81 262v927h208v-940q0 -251 -137 -392t-380 -141t-380 141t-137 392v940h208v-927q0 -169 81 -262t228 -93z" />
    <glyph glyph-name="Udieresis" unicode="&#xdc;" 
d="M421 1643q-51 0 -88.5 38.5t-37.5 90.5t37.5 90.5t88.5 38.5q50 0 88 -38.5t38 -90.5t-38 -90.5t-88 -38.5zM841 1643q-50 0 -88 38.5t-38 90.5t38 90.5t88 38.5q51 0 88.5 -38.5t37.5 -90.5t-37.5 -90.5t-88.5 -38.5zM633 161q147 0 228 93t81 262v927h208v-940
q0 -251 -137 -392t-380 -141t-380 141t-137 392v940h208v-927q0 -169 81 -262t228 -93z" />
    <glyph glyph-name="Yacute" unicode="&#xdd;" 
d="M507 1610l293 307h233l-319 -307h-207zM737 0h-208v579l-476 864h230l343 -648h14l343 648h230l-476 -864v-579z" />
    <glyph glyph-name="Thorn" unicode="&#xde;" 
d="M183 1443h215v-254h321q194 0 311.5 -119.5t117.5 -311.5t-120 -312t-316 -120h-313v-326h-216v1443zM399 999v-485h259q269 0 269 244q0 241 -269 241h-259z" />
    <glyph glyph-name="germandbls" unicode="&#xdf;" 
d="M398 0h-206v1098q0 185 115.5 289.5t318.5 104.5q202 0 316.5 -101.5t114.5 -281.5q0 -112 -63 -202.5t-164 -123.5v-18q159 -19 247 -115t88 -250q0 -191 -123.5 -303t-333.5 -112q-75 0 -150 15v183q52 -16 133 -16q259 0 259 241q0 119 -81 184t-229 65h-56v195h42
q106 0 164 62.5t58 175.5q0 98 -62.5 158.5t-163.5 60.5q-109 0 -166.5 -57t-57.5 -166v-1086z" />
    <glyph glyph-name="agrave" unicode="&#xe0;" 
d="M799 1296h-205l-269 343h234zM512 -18q-156 0 -251 90t-95 238q0 145 101.5 228.5t292.5 94.5l286 15v96q0 94 -56.5 144.5t-161.5 50.5q-87 0 -146.5 -36t-78.5 -100h-196q15 135 132.5 218.5t292.5 83.5q197 0 305 -94.5t108 -266.5v-745h-191v159h-19
q-39 -84 -123.5 -130t-199.5 -46zM574 149q117 0 194.5 69t77.5 173v115l-259 -13q-109 -6 -165 -50t-56 -124q0 -79 56 -124.5t152 -45.5z" />
    <glyph glyph-name="aacute" unicode="&#xe1;" 
d="M519 1296l240 343h234l-269 -343h-205zM512 -18q-156 0 -251 90t-95 238q0 145 101.5 228.5t292.5 94.5l286 15v96q0 94 -56.5 144.5t-161.5 50.5q-87 0 -146.5 -36t-78.5 -100h-196q15 135 132.5 218.5t292.5 83.5q197 0 305 -94.5t108 -266.5v-745h-191v159h-19
q-39 -84 -123.5 -130t-199.5 -46zM574 149q117 0 194.5 69t77.5 173v115l-259 -13q-109 -6 -165 -50t-56 -124q0 -79 56 -124.5t152 -45.5z" />
    <glyph glyph-name="acircumflex" unicode="&#xe2;" 
d="M518 1625h226l272 -346h-214l-163 222h-16l-164 -222h-213zM512 -18q-156 0 -251 90t-95 238q0 145 101.5 228.5t292.5 94.5l286 15v96q0 94 -56.5 144.5t-161.5 50.5q-87 0 -146.5 -36t-78.5 -100h-196q15 135 132.5 218.5t292.5 83.5q197 0 305 -94.5t108 -266.5v-745
h-191v159h-19q-39 -84 -123.5 -130t-199.5 -46zM574 149q117 0 194.5 69t77.5 173v115l-259 -13q-109 -6 -165 -50t-56 -124q0 -79 56 -124.5t152 -45.5z" />
    <glyph glyph-name="atilde" unicode="&#xe3;" 
d="M491 1419q-84 0 -85 -153h-153q0 139 63.5 220.5t172.5 81.5q52 0 96.5 -24t70 -52t56.5 -52t58 -24q85 0 85 149h153q0 -138 -63 -219t-172 -81q-52 0 -96.5 24t-70.5 53t-57 53t-58 24zM512 -18q-156 0 -251 90t-95 238q0 145 101.5 228.5t292.5 94.5l286 15v96
q0 94 -56.5 144.5t-161.5 50.5q-87 0 -146.5 -36t-78.5 -100h-196q15 135 132.5 218.5t292.5 83.5q197 0 305 -94.5t108 -266.5v-745h-191v159h-19q-39 -84 -123.5 -130t-199.5 -46zM574 149q117 0 194.5 69t77.5 173v115l-259 -13q-109 -6 -165 -50t-56 -124
q0 -79 56 -124.5t152 -45.5z" />
    <glyph glyph-name="adieresis" unicode="&#xe4;" 
d="M427 1296q-50 0 -88 39t-38 91t38 90.5t88 38.5q51 0 88.5 -38.5t37.5 -90.5q0 -53 -37.5 -91.5t-88.5 -38.5zM848 1296q-50 0 -88 39t-38 91t38 90.5t88 38.5q51 0 88.5 -38.5t37.5 -90.5q0 -53 -37.5 -91.5t-88.5 -38.5zM512 -18q-156 0 -251 90t-95 238
q0 145 101.5 228.5t292.5 94.5l286 15v96q0 94 -56.5 144.5t-161.5 50.5q-87 0 -146.5 -36t-78.5 -100h-196q15 135 132.5 218.5t292.5 83.5q197 0 305 -94.5t108 -266.5v-745h-191v159h-19q-39 -84 -123.5 -130t-199.5 -46zM574 149q117 0 194.5 69t77.5 173v115l-259 -13
q-109 -6 -165 -50t-56 -124q0 -79 56 -124.5t152 -45.5z" />
    <glyph glyph-name="aring" unicode="&#xe5;" 
d="M631 1248q-95 0 -162.5 68.5t-67.5 165.5t67.5 165.5t162.5 68.5t162 -68.5t67 -165.5t-67 -165.5t-162 -68.5zM631 1366q48 0 80.5 33.5t32.5 82.5t-32.5 82.5t-80.5 33.5q-49 0 -81.5 -33t-32.5 -83t32.5 -83t81.5 -33zM512 -18q-156 0 -251 90t-95 238
q0 145 101.5 228.5t292.5 94.5l286 15v96q0 94 -56.5 144.5t-161.5 50.5q-87 0 -146.5 -36t-78.5 -100h-196q15 135 132.5 218.5t292.5 83.5q197 0 305 -94.5t108 -266.5v-745h-191v159h-19q-39 -84 -123.5 -130t-199.5 -46zM574 149q117 0 194.5 69t77.5 173v115l-259 -13
q-109 -6 -165 -50t-56 -124q0 -79 56 -124.5t152 -45.5z" />
    <glyph glyph-name="ae" unicode="&#xe6;" 
d="M1214 307q-31 -160 -112.5 -242.5t-208.5 -82.5q-88 0 -158 58t-105 162h-5q-40 -106 -114.5 -163t-173.5 -57q-125 0 -203 89.5t-78 232.5q0 289 307 321l178 18v89q0 100 -40.5 153.5t-114.5 53.5q-56 0 -94.5 -40t-45.5 -106h-163q13 141 98.5 227.5t212.5 86.5
q86 0 150 -45t96 -129h5q82 174 249 174q155 0 240 -140.5t85 -399.5v-75h-508v-16q1 -153 48.5 -237.5t132.5 -84.5q62 0 102.5 36.5t66.5 116.5h153zM1044 646q-2 144 -42.5 218.5t-117.5 74.5q-73 0 -116.5 -76t-51.5 -217h328zM362 154q80 0 131 66t51 171v102l-157 -15
q-76 -7 -118 -51.5t-42 -117.5q0 -155 135 -155z" />
    <glyph glyph-name="ccedilla" unicode="&#xe7;" 
d="M508 -236v94l53 127q-185 26 -285.5 154t-100.5 340v134q0 238 125 368.5t353 130.5q191 0 308.5 -98t137.5 -275h-198q-14 94 -81.5 147.5t-168.5 53.5q-133 0 -204 -90t-71 -258v-92q0 -168 71 -258t204 -90q101 0 168 52t82 144h198q-19 -162 -123 -258t-274 -109
l-43 -107q95 -2 145 -45t50 -123q0 -89 -66.5 -141.5t-179.5 -52.5q-67 0 -133 18v117q44 -14 117 -14q112 0 112 68q0 33 -32.5 48t-105.5 15h-58z" />
    <glyph glyph-name="egrave" unicode="&#xe8;" 
d="M773 1296h-205l-269 343h235zM910 288h192q-22 -137 -145 -223t-299 -86q-229 0 -355 128.5t-126 361.5v166q0 215 129 345.5t341 130.5q214 0 336 -133t122 -365v-118h-731v-49q0 -138 77 -220t206 -82q97 0 165 38.5t88 105.5zM645 947q-127 0 -199 -82.5t-72 -228.5
h534q0 146 -69.5 228.5t-193.5 82.5z" />
    <glyph glyph-name="eacute" unicode="&#xe9;" 
d="M530 1296l239 343h235l-269 -343h-205zM910 288h192q-22 -137 -145 -223t-299 -86q-229 0 -355 128.5t-126 361.5v166q0 215 129 345.5t341 130.5q214 0 336 -133t122 -365v-118h-731v-49q0 -138 77 -220t206 -82q97 0 165 38.5t88 105.5zM645 947q-127 0 -199 -82.5
t-72 -228.5h534q0 146 -69.5 228.5t-193.5 82.5z" />
    <glyph glyph-name="ecircumflex" unicode="&#xea;" 
d="M528 1625h226l272 -346h-213l-164 222h-16l-164 -222h-213zM910 288h192q-22 -137 -145 -223t-299 -86q-229 0 -355 128.5t-126 361.5v166q0 215 129 345.5t341 130.5q214 0 336 -133t122 -365v-118h-731v-49q0 -138 77 -220t206 -82q97 0 165 38.5t88 105.5zM645 947
q-127 0 -199 -82.5t-72 -228.5h534q0 146 -69.5 228.5t-193.5 82.5z" />
    <glyph glyph-name="edieresis" unicode="&#xeb;" 
d="M430 1315q-50 0 -88 38.5t-38 90.5t38 90.5t88 38.5q51 0 88.5 -38.5t37.5 -90.5t-37.5 -90.5t-88.5 -38.5zM851 1315q-51 0 -88.5 38.5t-37.5 90.5t37.5 90.5t88.5 38.5t88.5 -38.5t37.5 -90.5t-37.5 -90.5t-88.5 -38.5zM910 288h192q-22 -137 -145 -223t-299 -86
q-229 0 -355 128.5t-126 361.5v166q0 215 129 345.5t341 130.5q214 0 336 -133t122 -365v-118h-731v-49q0 -138 77 -220t206 -82q97 0 165 38.5t88 105.5zM645 947q-127 0 -199 -82.5t-72 -228.5h534q0 146 -69.5 228.5t-193.5 82.5z" />
    <glyph glyph-name="igrave" unicode="&#xec;" 
d="M786 1290h-205l-269 342h234zM1111 0h-915v162h367v766h-359v162h555v-928h352v-162z" />
    <glyph glyph-name="iacute" unicode="&#xed;" 
d="M542 1290l240 342h235l-270 -342h-205zM1111 0h-915v162h367v766h-359v162h555v-928h352v-162z" />
    <glyph glyph-name="icircumflex" unicode="&#xee;" 
d="M540 1618h226l272 -345h-213l-164 221h-16l-163 -221h-214zM1111 0h-915v162h367v766h-359v162h555v-928h352v-162z" />
    <glyph glyph-name="idieresis" unicode="&#xef;" 
d="M443 1308q-51 0 -88.5 38.5t-37.5 91.5q0 52 37.5 90.5t88.5 38.5q50 0 88 -38.5t38 -90.5t-38 -91t-88 -39zM863 1308q-50 0 -88 39t-38 91t38 90.5t88 38.5q51 0 88.5 -38.5t37.5 -90.5q0 -53 -37.5 -91.5t-88.5 -38.5zM1111 0h-915v162h367v766h-359v162h555v-928h352
v-162z" />
    <glyph glyph-name="eth" unicode="&#xf0;" 
d="M594 -18q-226 0 -350 130.5t-124 369.5v50q0 228 114.5 360.5t309.5 132.5q179 0 271 -126h12q-45 161 -162 315l-298 -109v135l211 77q-108 114 -251 211h271q82 -61 160 -145l314 114v-134l-229 -84q109 -149 167.5 -325t58.5 -356v-109q0 -242 -124 -374.5
t-351 -132.5zM595 868q-128 0 -197 -85t-69 -243v-62q0 -159 69.5 -246t196.5 -87t196.5 87t69.5 246v62q0 158 -69 243t-197 85z" />
    <glyph glyph-name="ntilde" unicode="&#xf1;" 
d="M494 1424q-44 0 -64.5 -37t-21.5 -115h-153q0 139 63.5 220t172.5 81q42 0 79 -15.5t62.5 -38t48 -45t45.5 -38t46 -15.5q44 0 64.5 36.5t20.5 113.5h153q0 -139 -63 -219.5t-172 -80.5q-52 0 -96.5 24t-70.5 52.5t-56.5 52.5t-57.5 24zM175 0v1090h194v-190h14
q43 101 132 156t211 55q178 0 271.5 -103.5t93.5 -300.5v-707h-201v657q0 140 -57.5 207.5t-178.5 67.5q-125 0 -202 -80.5t-77 -212.5v-639h-200z" />
    <glyph glyph-name="ograve" unicode="&#xf2;" 
d="M751 1296h-205l-270 343h235zM633 -21q-220 0 -350.5 131t-130.5 352v165q0 222 130 352.5t351 130.5t351 -130.5t130 -352.5v-165q0 -221 -130.5 -352t-350.5 -131zM633 940q-131 0 -207 -88t-76 -239v-137q0 -151 76 -239t207 -88t207 88t76 239v137q0 151 -76 239
t-207 88z" />
    <glyph glyph-name="oacute" unicode="&#xf3;" 
d="M521 1296l240 343h235l-270 -343h-205zM633 -21q-220 0 -350.5 131t-130.5 352v165q0 222 130 352.5t351 130.5t351 -130.5t130 -352.5v-165q0 -221 -130.5 -352t-350.5 -131zM633 940q-131 0 -207 -88t-76 -239v-137q0 -151 76 -239t207 -88t207 88t76 239v137
q0 151 -76 239t-207 88z" />
    <glyph glyph-name="ocircumflex" unicode="&#xf4;" 
d="M520 1625h226l272 -346h-213l-164 222h-16l-164 -222h-213zM633 -21q-220 0 -350.5 131t-130.5 352v165q0 222 130 352.5t351 130.5t351 -130.5t130 -352.5v-165q0 -221 -130.5 -352t-350.5 -131zM633 940q-131 0 -207 -88t-76 -239v-137q0 -151 76 -239t207 -88t207 88
t76 239v137q0 151 -76 239t-207 88z" />
    <glyph glyph-name="otilde" unicode="&#xf5;" 
d="M494 1424q-44 0 -64.5 -37t-21.5 -115h-153q0 139 63.5 220t172.5 81q42 0 79 -15.5t62.5 -38t48 -45t45.5 -38t46 -15.5q44 0 64.5 36.5t20.5 113.5h153q0 -139 -63 -219.5t-172 -80.5q-52 0 -96.5 24t-70.5 52.5t-56.5 52.5t-57.5 24zM633 -21q-220 0 -350.5 131
t-130.5 352v165q0 222 130 352.5t351 130.5t351 -130.5t130 -352.5v-165q0 -221 -130.5 -352t-350.5 -131zM633 940q-131 0 -207 -88t-76 -239v-137q0 -151 76 -239t207 -88t207 88t76 239v137q0 151 -76 239t-207 88z" />
    <glyph glyph-name="odieresis" unicode="&#xf6;" 
d="M422 1315q-51 0 -88.5 38.5t-37.5 90.5t37.5 90.5t88.5 38.5t88.5 -38.5t37.5 -90.5t-37.5 -90.5t-88.5 -38.5zM843 1315q-51 0 -88.5 38.5t-37.5 90.5t37.5 90.5t88.5 38.5q50 0 88 -38.5t38 -90.5t-38 -90.5t-88 -38.5zM633 -21q-220 0 -350.5 131t-130.5 352v165
q0 222 130 352.5t351 130.5t351 -130.5t130 -352.5v-165q0 -221 -130.5 -352t-350.5 -131zM633 940q-131 0 -207 -88t-76 -239v-137q0 -151 76 -239t207 -88t207 88t76 239v137q0 151 -76 239t-207 88z" />
    <glyph glyph-name="divide" unicode="&#xf7;" 
d="M633 872q-59 0 -97 38.5t-38 98.5q0 61 38 99.5t97 38.5q60 0 98 -38.5t38 -99.5q0 -60 -38 -98.5t-98 -38.5zM1139 553h-1012v175h1012v-175zM633 135q-59 0 -97 38t-38 98q0 61 38 99.5t97 38.5q60 0 98 -38.5t38 -99.5q0 -60 -38 -98t-98 -38z" />
    <glyph glyph-name="oslash" unicode="&#xf8;" 
d="M633 -21q-179 0 -302 89l-53 -68h-136l111 143q-101 126 -101 319v165q0 222 130 352.5t351 130.5q179 0 301 -88l52 68h139l-112 -144q101 -126 101 -319v-165q0 -221 -130.5 -352t-350.5 -131zM633 940q-131 0 -207 -88t-76 -239v-137q0 -94 31 -167l438 565
q-75 66 -186 66zM916 613q0 96 -32 168l-438 -564q74 -68 187 -68q131 0 207 88t76 239v137z" />
    <glyph glyph-name="ugrave" unicode="&#xf9;" 
d="M765 1296h-205l-269 343h235zM1091 1090v-1090h-194v189h-14q-43 -101 -132 -155.5t-211 -54.5q-178 0 -271.5 103.5t-93.5 300.5v707h201v-658q0 -140 57.5 -207t178.5 -67q125 0 202 80.5t77 212.5v639h200z" />
    <glyph glyph-name="uacute" unicode="&#xfa;" 
d="M521 1296l240 343h235l-270 -343h-205zM1091 1090v-1090h-194v189h-14q-43 -101 -132 -155.5t-211 -54.5q-178 0 -271.5 103.5t-93.5 300.5v707h201v-658q0 -140 57.5 -207t178.5 -67q125 0 202 80.5t77 212.5v639h200z" />
    <glyph glyph-name="ucircumflex" unicode="&#xfb;" 
d="M520 1625h226l272 -346h-214l-163 222h-16l-164 -222h-213zM1091 1090v-1090h-194v189h-14q-43 -101 -132 -155.5t-211 -54.5q-178 0 -271.5 103.5t-93.5 300.5v707h201v-658q0 -140 57.5 -207t178.5 -67q125 0 202 80.5t77 212.5v639h200z" />
    <glyph glyph-name="udieresis" unicode="&#xfc;" 
d="M422 1315q-51 0 -88.5 38.5t-37.5 90.5t37.5 90.5t88.5 38.5t88.5 -38.5t37.5 -90.5t-37.5 -90.5t-88.5 -38.5zM843 1315q-51 0 -88.5 38.5t-37.5 90.5t37.5 90.5t88.5 38.5q50 0 88 -38.5t38 -90.5t-38 -90.5t-88 -38.5zM1091 1090v-1090h-194v189h-14
q-43 -101 -132 -155.5t-211 -54.5q-178 0 -271.5 103.5t-93.5 300.5v707h201v-658q0 -140 57.5 -207t178.5 -67q125 0 202 80.5t77 212.5v639h200z" />
    <glyph glyph-name="yacute" unicode="&#xfd;" 
d="M521 1296l239 343h235l-269 -343h-205zM322 -390q-43 0 -82 3v169q16 -3 60 -3q79 0 125.5 36.5t76.5 122.5l17 54l-397 1098h220l287 -892h14l285 892h213l-400 -1123q-71 -203 -161.5 -280t-257.5 -77z" />
    <glyph glyph-name="thorn" unicode="&#xfe;" 
d="M706 -18q-227 0 -307 184h-20v-511h-206v1810h206v-546h20q35 91 116.5 141t194.5 50q189 0 301.5 -126t112.5 -337v-203q0 -211 -113.5 -336.5t-304.5 -125.5zM649 157q124 0 195 82t71 226v156q0 143 -70.5 225t-194.5 82q-126 0 -198 -81.5t-72 -225.5v-156
q0 -145 71 -226.5t198 -81.5z" />
    <glyph glyph-name="ydieresis" unicode="&#xff;" 
d="M421 1315q-50 0 -88 38.5t-38 90.5t38 90.5t88 38.5q51 0 88.5 -38.5t37.5 -90.5t-37.5 -90.5t-88.5 -38.5zM842 1315q-51 0 -88.5 38.5t-37.5 90.5t37.5 90.5t88.5 38.5t88.5 -38.5t37.5 -90.5t-37.5 -90.5t-88.5 -38.5zM322 -390q-43 0 -82 3v169q16 -3 60 -3
q79 0 125.5 36.5t76.5 122.5l17 54l-397 1098h220l287 -892h14l285 892h213l-400 -1123q-71 -203 -161.5 -280t-257.5 -77z" />
    <glyph glyph-name="Amacron" unicode="&#x100;" 
d="M972 1685h-678v151h678v-151zM983 0l-115 398h-480l-116 -398h-210l455 1443h232l455 -1443h-221zM625 1212l-188 -645h382l-187 645h-7z" />
    <glyph glyph-name="amacron" unicode="&#x101;" 
d="M969 1366h-677v152h677v-152zM512 -18q-156 0 -251 90t-95 238q0 145 101.5 228.5t292.5 94.5l286 15v96q0 94 -56.5 144.5t-161.5 50.5q-87 0 -146.5 -36t-78.5 -100h-196q15 135 132.5 218.5t292.5 83.5q197 0 305 -94.5t108 -266.5v-745h-191v159h-19
q-39 -84 -123.5 -130t-199.5 -46zM574 149q117 0 194.5 69t77.5 173v115l-259 -13q-109 -6 -165 -50t-56 -124q0 -79 56 -124.5t152 -45.5z" />
    <glyph glyph-name="Abreve" unicode="&#x102;" 
d="M276 1920h154q1 -82 57.5 -133.5t145.5 -51.5t145.5 51.5t57.5 133.5h154q0 -140 -98.5 -228t-258.5 -88t-258.5 88t-98.5 228zM983 0l-115 398h-480l-116 -398h-210l455 1443h232l455 -1443h-221zM625 1212l-188 -645h382l-187 645h-7z" />
    <glyph glyph-name="abreve" unicode="&#x103;" 
d="M621 1402q94 0 146.5 53.5t52.5 139.5h167q0 -149 -99.5 -242.5t-266.5 -93.5t-266.5 93.5t-99.5 242.5h168q0 -86 52.5 -139.5t145.5 -53.5zM512 -18q-156 0 -251 90t-95 238q0 145 101.5 228.5t292.5 94.5l286 15v96q0 94 -56.5 144.5t-161.5 50.5q-87 0 -146.5 -36
t-78.5 -100h-196q15 135 132.5 218.5t292.5 83.5q197 0 305 -94.5t108 -266.5v-745h-191v159h-19q-39 -84 -123.5 -130t-199.5 -46zM574 149q117 0 194.5 69t77.5 173v115l-259 -13q-109 -6 -165 -50t-56 -124q0 -79 56 -124.5t152 -45.5z" />
    <glyph glyph-name="Aogonek" unicode="&#x104;" 
d="M1198 -421q-44 -17 -122 -17q-113 0 -182.5 59.5t-69.5 155.5q0 73 37 128.5t119 105.5l-112 387h-480l-116 -398h-210l455 1443h232l455 -1443l-9 -3q-103 -34 -152 -79.5t-49 -108.5q0 -48 36 -77.5t94 -29.5q48 0 74 7v-130zM625 1212l-188 -645h382l-187 645h-7z" />
    <glyph glyph-name="aogonek" unicode="&#x105;" 
d="M854 0v159h-19q-39 -85 -123 -131t-200 -46q-156 0 -251 90t-95 238q0 145 101.5 229t292.5 95l286 15v95q0 94 -56.5 145t-161.5 51q-87 0 -146.5 -36t-78.5 -101h-196q15 136 132 219t293 83q197 0 305 -94.5t108 -266.5v-744l-12 -4q-78 -32 -123.5 -84t-45.5 -108
q0 -44 30.5 -70t82.5 -26q47 0 68 9v-136q-42 -21 -122 -21q-104 0 -169 56t-65 145q0 141 165 239zM574 150q117 0 194.5 68.5t77.5 173.5v115l-259 -13q-109 -6 -165 -50t-56 -124q0 -79 56 -124.5t152 -45.5z" />
    <glyph glyph-name="Cacute" unicode="&#x106;" 
d="M532 1610l294 307h233l-319 -307h-208zM665 161q135 0 215 79t83 215h210q0 -219 -139.5 -352t-367.5 -133q-258 0 -401.5 162.5t-143.5 455.5v267q0 293 143.5 455.5t401.5 162.5q234 0 369 -134.5t138 -371.5h-210q-4 142 -86.5 228.5t-212.5 86.5
q-162 0 -245.5 -108.5t-83.5 -318.5v-267q0 -210 83.5 -318.5t246.5 -108.5z" />
    <glyph glyph-name="cacute" unicode="&#x107;" 
d="M528 1296l239 343h235l-269 -343h-205zM1099 739h-198q-14 94 -81.5 147.5t-168.5 53.5q-133 0 -204 -90t-71 -258v-92q0 -168 71 -258t204 -90q101 0 168 52t82 144h198q-20 -174 -138 -271.5t-308 -97.5q-227 0 -352.5 131t-125.5 369v134q0 238 125 368.5t353 130.5
q191 0 308.5 -98t137.5 -275z" />
    <glyph glyph-name="Ccircumflex" unicode="&#x108;" 
d="M750 1925l284 -315h-199l-172 197h-15l-171 -197h-200l285 315h188zM665 161q135 0 215 79t83 215h210q0 -219 -139.5 -352t-367.5 -133q-258 0 -401.5 162.5t-143.5 455.5v267q0 293 143.5 455.5t401.5 162.5q234 0 369 -134.5t138 -371.5h-210q-4 142 -86.5 228.5
t-212.5 86.5q-162 0 -245.5 -108.5t-83.5 -318.5v-267q0 -210 83.5 -318.5t246.5 -108.5z" />
    <glyph glyph-name="ccircumflex" unicode="&#x109;" 
d="M526 1625h226l272 -346h-214l-163 222h-16l-164 -222h-213zM1099 739h-198q-14 94 -81.5 147.5t-168.5 53.5q-133 0 -204 -90t-71 -258v-92q0 -168 71 -258t204 -90q101 0 168 52t82 144h198q-20 -174 -138 -271.5t-308 -97.5q-227 0 -352.5 131t-125.5 369v134
q0 238 125 368.5t353 130.5q191 0 308.5 -98t137.5 -275z" />
    <glyph glyph-name="Cdotaccent" unicode="&#x10a;" 
d="M656 1628q-55 0 -95.5 41t-40.5 97t40.5 97t95.5 41t95 -41t40 -97t-40 -97t-95 -41zM665 161q135 0 215 79t83 215h210q0 -219 -139.5 -352t-367.5 -133q-258 0 -401.5 162.5t-143.5 455.5v267q0 293 143.5 455.5t401.5 162.5q234 0 369 -134.5t138 -371.5h-210
q-4 142 -86.5 228.5t-212.5 86.5q-162 0 -245.5 -108.5t-83.5 -318.5v-267q0 -210 83.5 -318.5t246.5 -108.5z" />
    <glyph glyph-name="cdotaccent" unicode="&#x10b;" 
d="M639 1301q-55 0 -95 41t-40 97t40 97t95 41t95.5 -41t40.5 -97t-40.5 -97t-95.5 -41zM1099 739h-198q-14 94 -81.5 147.5t-168.5 53.5q-133 0 -204 -90t-71 -258v-92q0 -168 71 -258t204 -90q101 0 168 52t82 144h198q-20 -174 -138 -271.5t-308 -97.5q-227 0 -352.5 131
t-125.5 369v134q0 238 125 368.5t353 130.5q191 0 308.5 -98t137.5 -275z" />
    <glyph glyph-name="Ccaron" unicode="&#x10c;" 
d="M750 1606h-188l-285 315h200l171 -197h15l172 197h199zM665 161q135 0 215 79t83 215h210q0 -219 -139.5 -352t-367.5 -133q-258 0 -401.5 162.5t-143.5 455.5v267q0 293 143.5 455.5t401.5 162.5q234 0 369 -134.5t138 -371.5h-210q-4 142 -86.5 228.5t-212.5 86.5
q-162 0 -245.5 -108.5t-83.5 -318.5v-267q0 -210 83.5 -318.5t246.5 -108.5z" />
    <glyph glyph-name="ccaron" unicode="&#x10d;" 
d="M526 1296l-272 346h213l164 -222h16l163 222h214l-272 -346h-226zM1099 739h-198q-14 94 -81.5 147.5t-168.5 53.5q-133 0 -204 -90t-71 -258v-92q0 -168 71 -258t204 -90q101 0 168 52t82 144h198q-20 -174 -138 -271.5t-308 -97.5q-227 0 -352.5 131t-125.5 369v134
q0 238 125 368.5t353 130.5q191 0 308.5 -98t137.5 -275z" />
    <glyph glyph-name="Dcaron" unicode="&#x10e;" 
d="M678 1606h-188l-285 315h200l172 -197h14l172 197h200zM148 1443h422q305 0 460 -180.5t155 -536.5q0 -726 -615 -726h-422v1443zM357 1258v-1073h190q218 0 321.5 131t103.5 408q0 271 -104.5 402.5t-320.5 131.5h-190z" />
    <glyph glyph-name="dcaron" unicode="&#x10f;" 
d="M1067 1515h169l-36 -468h-133v468zM452 -18q-180 0 -275.5 119t-95.5 345v198q0 226 95.5 345t275.5 119q218 0 287 -191h19v598h181v-1515h-176v172h-19q-81 -190 -292 -190zM507 160q118 0 179.5 78.5t61.5 230.5v156q0 152 -61.5 230.5t-179.5 78.5t-179.5 -78.5
t-61.5 -230.5v-156q0 -152 61.5 -230.5t179.5 -78.5z" />
    <glyph glyph-name="Dcroat" unicode="&#x110;" 
d="M172 1443h398q306 0 460.5 -180.5t154.5 -536.5q0 -726 -615 -726h-398v652h-147v170h147v621zM644 652h-276v-475h186q218 0 321 132.5t103 414.5q0 277 -104.5 409.5t-322.5 132.5h-183v-444h276v-170z" />
    <glyph glyph-name="dcroat" unicode="&#x111;" 
d="M547 -18q-189 0 -300.5 125t-111.5 339v198q0 214 111.5 339t300.5 125q118 0 200 -50t115 -141h20v350h-209v121h209v127h205v-127h151v-121h-151v-1267h-201v172h-19q-38 -92 -120 -141t-200 -49zM613 160q125 0 199 82.5t74 222.5v163q0 141 -74 223.5t-199 82.5
q-126 0 -200.5 -83t-74.5 -223v-163q0 -140 74.5 -222.5t200.5 -82.5z" />
    <glyph glyph-name="Emacron" unicode="&#x112;" 
d="M994 1685h-678v151h678v-151zM1089 185v-185h-868v1443h868v-185h-659v-437h622v-174h-622v-462h659z" />
    <glyph glyph-name="emacron" unicode="&#x113;" 
d="M980 1366h-678v152h678v-152zM910 288h192q-22 -137 -145 -223t-299 -86q-229 0 -355 128.5t-126 361.5v166q0 215 129 345.5t341 130.5q214 0 336 -133t122 -365v-118h-731v-49q0 -138 77 -220t206 -82q97 0 165 38.5t88 105.5zM645 947q-127 0 -199 -82.5t-72 -228.5
h534q0 146 -69.5 228.5t-193.5 82.5z" />
    <glyph glyph-name="Ebreve" unicode="&#x114;" 
d="M298 1920h154q1 -82 57.5 -133.5t145.5 -51.5t145.5 51.5t57.5 133.5h155q0 -140 -99 -228t-259 -88t-258.5 88t-98.5 228zM1089 185v-185h-868v1443h868v-185h-659v-437h622v-174h-622v-462h659z" />
    <glyph glyph-name="ebreve" unicode="&#x115;" 
d="M641 1409q94 0 146.5 53.5t52.5 139.5h167q0 -150 -99 -243.5t-267 -93.5q-167 0 -266.5 93.5t-99.5 243.5h168q0 -86 52.5 -139.5t145.5 -53.5zM910 288h192q-22 -137 -145 -223t-299 -86q-229 0 -355 128.5t-126 361.5v166q0 215 129 345.5t341 130.5q214 0 336 -133
t122 -365v-118h-731v-49q0 -138 77 -220t206 -82q97 0 165 38.5t88 105.5zM645 947q-127 0 -199 -82.5t-72 -228.5h534q0 146 -69.5 228.5t-193.5 82.5z" />
    <glyph glyph-name="Edotaccent" unicode="&#x116;" 
d="M658 1628q-55 0 -95 41t-40 97t40 97t95 41t95.5 -41t40.5 -97t-40.5 -97t-95.5 -41zM1089 185v-185h-868v1443h868v-185h-659v-437h622v-174h-622v-462h659z" />
    <glyph glyph-name="edotaccent" unicode="&#x117;" 
d="M641 1301q-55 0 -95 41t-40 97t40 97t95 41t95.5 -41t40.5 -97t-40.5 -97t-95.5 -41zM910 288h192q-22 -137 -145 -223t-299 -86q-229 0 -355 128.5t-126 361.5v166q0 215 129 345.5t341 130.5q214 0 336 -133t122 -365v-118h-731v-49q0 -138 77 -220t206 -82
q97 0 165 38.5t88 105.5zM645 947q-127 0 -199 -82.5t-72 -228.5h534q0 146 -69.5 228.5t-193.5 82.5z" />
    <glyph glyph-name="Eogonek" unicode="&#x118;" 
d="M878 0h-657v1443h868v-185h-659v-437h622v-174h-622v-462h659v-178l-14 -6q-170 -68 -170 -190q0 -47 35 -78t88 -31q40 0 68 7v-129q-46 -18 -116 -18q-107 0 -175 57t-68 148q0 132 141 219v14z" />
    <glyph glyph-name="eogonek" unicode="&#x119;" 
d="M846 -438q-109 0 -178 57.5t-69 147.5q0 62 35.5 117t99.5 94v15q-38 -14 -96 -14q-217 0 -339 129.5t-122 360.5v166q0 215 129 345.5t341 130.5q214 0 336 -133t122 -365v-118h-731v-49q0 -138 77 -220t206 -82q97 0 165 38.5t88 105.5h192q-20 -127 -161 -246
q-96 -79 -134.5 -131t-38.5 -103q0 -48 33.5 -77t88.5 -29q45 0 68 7v-130q-46 -17 -112 -17zM645 947q-127 0 -199 -82.5t-72 -228.5h534q0 146 -69.5 228.5t-193.5 82.5z" />
    <glyph glyph-name="Ecaron" unicode="&#x11a;" 
d="M749 1606h-188l-285 315h200l172 -197h14l172 197h200zM1089 185v-185h-868v1443h868v-185h-659v-437h622v-174h-622v-462h659z" />
    <glyph glyph-name="ecaron" unicode="&#x11b;" 
d="M528 1296l-272 346h213l164 -222h16l163 222h214l-272 -346h-226zM910 288h192q-22 -137 -145 -223t-299 -86q-229 0 -355 128.5t-126 361.5v166q0 215 129 345.5t341 130.5q214 0 336 -133t122 -365v-118h-731v-49q0 -138 77 -220t206 -82q97 0 165 38.5t88 105.5z
M645 947q-127 0 -199 -82.5t-72 -228.5h534q0 146 -69.5 228.5t-193.5 82.5z" />
    <glyph glyph-name="Gcircumflex" unicode="&#x11c;" 
d="M740 1925l284 -315h-199l-172 197h-15l-172 -197h-199l284 315h189zM953 450v125h-313v168h524v-305q0 -209 -140 -338.5t-365 -129.5q-258 0 -400.5 162.5t-142.5 455.5v267q0 293 142.5 455.5t400.5 162.5q229 0 364.5 -131t140.5 -358h-210q-6 134 -88.5 216
t-210.5 82q-162 0 -245.5 -108.5t-83.5 -318.5v-267q0 -211 84 -319t247 -108q137 0 216.5 77.5t79.5 211.5z" />
    <glyph glyph-name="gcircumflex" unicode="&#x11d;" 
d="M492 1625h226l272 -346h-213l-164 222h-16l-163 -222h-214zM602 -409q-197 0 -319 79.5t-138 217.5h198q16 -64 87 -102t175 -38q135 0 207 65.5t72 188.5v182h-19q-32 -88 -119 -139t-207 -51q-189 0 -301 125.5t-112 338.5v186q0 214 113.5 339t306.5 125
q118 0 203.5 -51t118.5 -140h19v173h198v-1089q0 -192 -128.5 -301t-354.5 -109zM330 477q0 -140 75 -223t202 -83q126 0 201.5 83.5t75.5 222.5v151q0 140 -75.5 223t-201.5 83q-127 0 -202 -83t-75 -223v-151z" />
    <glyph glyph-name="Gbreve" unicode="&#x11e;" 
d="M288 1920h155q1 -82 57.5 -133.5t145.5 -51.5t145 51.5t57 133.5h155q0 -140 -99 -228t-258 -88q-160 0 -259 88t-99 228zM953 450v125h-313v168h524v-305q0 -209 -140 -338.5t-365 -129.5q-258 0 -400.5 162.5t-142.5 455.5v267q0 293 142.5 455.5t400.5 162.5
q229 0 364.5 -131t140.5 -358h-210q-6 134 -88.5 216t-210.5 82q-162 0 -245.5 -108.5t-83.5 -318.5v-267q0 -211 84 -319t247 -108q137 0 216.5 77.5t79.5 211.5z" />
    <glyph glyph-name="gbreve" unicode="&#x11f;" 
d="M606 1409q93 0 146 53.5t53 139.5h167q0 -150 -99.5 -243.5t-266.5 -93.5t-266.5 93.5t-99.5 243.5h167q1 -86 53.5 -139.5t145.5 -53.5zM602 -409q-197 0 -319 79.5t-138 217.5h198q16 -64 87 -102t175 -38q135 0 207 65.5t72 188.5v182h-19q-32 -88 -119 -139t-207 -51
q-189 0 -301 125.5t-112 338.5v186q0 214 113.5 339t306.5 125q118 0 203.5 -51t118.5 -140h19v173h198v-1089q0 -192 -128.5 -301t-354.5 -109zM330 477q0 -140 75 -223t202 -83q126 0 201.5 83.5t75.5 222.5v151q0 140 -75.5 223t-201.5 83q-127 0 -202 -83t-75 -223v-151
z" />
    <glyph glyph-name="Gdotaccent" unicode="&#x120;" 
d="M646 1628q-55 0 -95.5 41t-40.5 97t40.5 97t95.5 41t95 -41t40 -97t-40 -97t-95 -41zM953 450v125h-313v168h524v-305q0 -209 -140 -338.5t-365 -129.5q-258 0 -400.5 162.5t-142.5 455.5v267q0 293 142.5 455.5t400.5 162.5q229 0 364.5 -131t140.5 -358h-210
q-6 134 -88.5 216t-210.5 82q-162 0 -245.5 -108.5t-83.5 -318.5v-267q0 -211 84 -319t247 -108q137 0 216.5 77.5t79.5 211.5z" />
    <glyph glyph-name="gdotaccent" unicode="&#x121;" 
d="M606 1301q-55 0 -95.5 41t-40.5 97t40.5 97t95.5 41t95 -41t40 -97t-40 -97t-95 -41zM602 -409q-197 0 -319 79.5t-138 217.5h198q16 -64 87 -102t175 -38q135 0 207 65.5t72 188.5v182h-19q-32 -88 -119 -139t-207 -51q-189 0 -301 125.5t-112 338.5v186
q0 214 113.5 339t306.5 125q118 0 203.5 -51t118.5 -140h19v173h198v-1089q0 -192 -128.5 -301t-354.5 -109zM330 477q0 -140 75 -223t202 -83q126 0 201.5 83.5t75.5 222.5v151q0 140 -75.5 223t-201.5 83q-127 0 -202 -83t-75 -223v-151z" />
    <glyph glyph-name="Gcommaaccent" unicode="&#x122;" 
d="M953 450v125h-313v168h524v-305q0 -209 -140 -338.5t-365 -129.5q-258 0 -400.5 162.5t-142.5 455.5v267q0 293 142.5 455.5t400.5 162.5q229 0 364.5 -131t140.5 -358h-210q-6 134 -88.5 216t-210.5 82q-162 0 -245.5 -108.5t-83.5 -318.5v-267q0 -211 84 -319t247 -108
q137 0 216.5 77.5t79.5 211.5zM632 -503h-183l117 359h205z" />
    <glyph glyph-name="gcommaaccent" unicode="&#x123;" 
d="M641 1656h183l-117 -359h-205zM602 -409q-197 0 -319 79.5t-138 217.5h198q16 -64 87 -102t175 -38q135 0 207 65.5t72 188.5v182h-19q-32 -88 -119 -139t-207 -51q-189 0 -301 125.5t-112 338.5v186q0 214 113.5 339t306.5 125q118 0 203.5 -51t118.5 -140h19v173h198
v-1089q0 -192 -128.5 -301t-354.5 -109zM330 477q0 -140 75 -223t202 -83q126 0 201.5 83.5t75.5 222.5v151q0 140 -75.5 223t-201.5 83q-127 0 -202 -83t-75 -223v-151z" />
    <glyph glyph-name="Hcircumflex" unicode="&#x124;" 
d="M727 1925l285 -315h-200l-172 197h-14l-172 -197h-200l285 315h188zM1123 0h-206v643h-568v-643h-206v1443h206v-615h568v615h206v-1443z" />
    <glyph glyph-name="hcircumflex" unicode="&#x125;" 
d="M168 1962h226l272 -345h-213l-164 221h-16l-164 -221h-213zM173 0v1515h194v-616h15q42 101 131.5 155.5t213.5 54.5q178 0 272 -104t94 -300v-705h-200v656q0 139 -58.5 206.5t-179.5 67.5q-127 0 -204 -80.5t-77 -212.5v-637h-201z" />
    <glyph glyph-name="Hbar" unicode="&#x126;" 
d="M364 643v-643h-209v1078h-114v154h114v211h209v-211h536v211h209v-211h116v-154h-116v-1078h-209v643h-536zM360 825h544v256h-544v-256z" />
    <glyph glyph-name="hbar" unicode="&#x127;" 
d="M173 0v1268h-152v121h152v126h194v-126h254v-121h-254v-369h15q42 101 131.5 155.5t213.5 54.5q178 0 272 -104t94 -300v-705h-200v656q0 139 -58.5 206.5t-179.5 67.5q-127 0 -204 -80.5t-77 -212.5v-637h-201z" />
    <glyph glyph-name="Itilde" unicode="&#x128;" 
d="M784 1612q-43 0 -79.5 15.5t-61.5 38t-47 45t-48 38t-53 15.5q-91 0 -95 -142h-138q0 129 60 204t160 75q45 0 83.5 -15.5t64 -38t47.5 -45t46 -38t48 -15.5q90 0 96 140h137q0 -127 -60.5 -202t-159.5 -75zM1031 0h-796v181h294v1081h-294v181h796v-181h-294v-1081h294
v-181z" />
    <glyph glyph-name="itilde" unicode="&#x129;" 
d="M514 1418q-85 0 -85 -153h-153q0 140 63 221t172 81q43 0 80 -15.5t62.5 -38t47.5 -45t45.5 -38t46.5 -15.5q85 0 85 149h153q0 -138 -63.5 -219t-171.5 -81q-43 0 -80 16t-62.5 38.5t-47.5 45t-45.5 38.5t-46.5 16zM1111 0h-915v162h367v766h-359v162h555v-928h352v-162
z" />
    <glyph glyph-name="Imacron" unicode="&#x12a;" 
d="M972 1685h-678v151h678v-151zM1031 0h-796v181h294v1081h-294v181h796v-181h-294v-1081h294v-181z" />
    <glyph glyph-name="imacron" unicode="&#x12b;" 
d="M992 1360h-677v151h677v-151zM1111 0h-915v162h367v766h-359v162h555v-928h352v-162z" />
    <glyph glyph-name="Ibreve" unicode="&#x12c;" 
d="M276 1920h154q1 -82 57.5 -133.5t145.5 -51.5t145.5 51.5t57.5 133.5h154q0 -140 -98.5 -228t-258.5 -88t-258.5 88t-98.5 228zM1031 0h-796v181h294v1081h-294v181h796v-181h-294v-1081h294v-181z" />
    <glyph glyph-name="ibreve" unicode="&#x12d;" 
d="M657 1392q93 0 146 53.5t53 139.5h167q0 -149 -99.5 -242.5t-266.5 -93.5t-266.5 93.5t-99.5 242.5h168q0 -86 52.5 -139.5t145.5 -53.5zM1111 0h-915v162h367v766h-359v162h555v-928h352v-162z" />
    <glyph glyph-name="Iogonek" unicode="&#x12e;" 
d="M1031 0l-3 -2q-166 -89 -166 -197q0 -43 28.5 -68.5t77.5 -25.5q41 0 63 7v-133q-54 -19 -117 -19q-95 0 -155 53.5t-60 137.5q0 75 40.5 139.5t116.5 107.5h-621v181h294v1081h-294v181h796v-181h-294v-1081h294v-181z" />
    <glyph glyph-name="iogonek" unicode="&#x12f;" 
d="M651 1345q-67 0 -111 42t-44 106q0 65 44 107t111 42q68 0 111.5 -42t43.5 -107q0 -64 -43.5 -106t-111.5 -42zM1111 -283v-138q-36 -19 -132 -19q-95 0 -151 50t-56 133q0 155 181 257h-757v162h367v766h-359v162h555v-928h352v-162q-86 -41 -132.5 -93t-46.5 -108
q0 -91 106 -91q44 0 73 9z" />
    <glyph glyph-name="Idotaccent" unicode="&#x130;" 
d="M633 1628q-55 0 -95.5 41t-40.5 97t40.5 97t95.5 41t95.5 -41t40.5 -97t-40.5 -97t-95.5 -41zM1031 0h-796v181h294v1081h-294v181h796v-181h-294v-1081h294v-181z" />
    <glyph glyph-name="dotlessi" unicode="&#x131;" 
d="M1111 0h-915v162h367v766h-359v162h555v-928h352v-162z" />
    <glyph glyph-name="IJ" unicode="&#x132;" 
d="M385 0h-198v1443h198v-1443zM856 -33q-164 0 -254.5 106.5t-91.5 301.5h191q4 -106 42.5 -161t108.5 -55q75 0 110.5 60.5t35.5 192.5v848h-367v183h562v-1046q0 -211 -86 -320.5t-251 -109.5z" />
    <glyph glyph-name="ij" unicode="&#x133;" 
d="M911 1345q-68 0 -111.5 42t-43.5 106q0 65 43.5 107t111.5 42q67 0 111 -42t44 -107q0 -64 -44 -106t-111 -42zM352 1345q-68 0 -111.5 42t-43.5 106q0 65 43.5 107t111.5 42q67 0 111 -42t44 -107q0 -64 -44 -106t-111 -42zM450 0h-192v1090h192v-1090zM1019 1090v-1074
q0 -190 -99.5 -271.5t-331.5 -81.5q-191 0 -265 7v170q67 -7 263 -7q137 0 189 42t52 150v1065h192z" />
    <glyph glyph-name="Jcircumflex" unicode="&#x134;" 
d="M771 1925l285 -315h-200l-172 197h-14l-172 -197h-200l285 315h188zM591 -30q-197 0 -319 112.5t-123 296.5h203q4 -97 69 -156.5t167 -59.5q116 0 178.5 68t62.5 195v836h-503v181h711v-1021q0 -212 -118.5 -332t-327.5 -120z" />
    <glyph glyph-name="jcircumflex" unicode="&#x135;" 
d="M672 1625h226l272 -346h-213l-164 222h-16l-164 -222h-213zM883 1090v-1074q0 -190 -99.5 -271.5t-331.5 -81.5q-186 0 -269 7v175q64 -6 262 -6q137 0 189.5 41.5t52.5 149.5v898h-483v162h679z" />
    <glyph glyph-name="Kcommaaccent" unicode="&#x136;" 
d="M401 0h-202v1443h202v-701h13l561 701h233l-522 -638l568 -805h-252l-458 651l-143 -174v-477zM652 -503h-182l116 359h206z" />
    <glyph glyph-name="kcommaaccent" unicode="&#x137;" 
d="M464 615l446 475h238l-417 -438l446 -652h-236l-355 521l-137 -134v-387h-200v1515h200v-900h15zM645 -494h-182l116 359h206z" />
    <glyph glyph-name="Lacute" unicode="&#x139;" 
d="M234 1610l294 307h232l-319 -307h-207zM1129 188v-188h-875v1443h206v-1255h669z" />
    <glyph glyph-name="lacute" unicode="&#x13a;" 
d="M529 1713l240 343h234l-269 -343h-205zM1111 0h-915v162h365v1190h-357v163h557v-1353h350v-162z" />
    <glyph glyph-name="Lcommaaccent" unicode="&#x13b;" 
d="M1129 188v-188h-875v1443h206v-1255h669zM673 -503h-182l116 359h206z" />
    <glyph glyph-name="lcommaaccent" unicode="&#x13c;" 
d="M1111 0h-915v162h365v1190h-357v163h557v-1353h350v-162zM619 -494h-183l117 359h205z" />
    <glyph glyph-name="Lcaron" unicode="&#x13d;" 
d="M780 1443h179l-41 -486h-138v486zM1129 188v-188h-875v1443h206v-1255h669z" />
    <glyph glyph-name="lcaron" unicode="&#x13e;" 
d="M991 1515h181l-41 -468h-140v468zM1111 0h-915v162h365v1190h-357v163h557v-1353h350v-162z" />
    <glyph glyph-name="Ldot" unicode="&#x13f;" 
d="M1129 188v-188h-875v1443h206v-1255h669zM969 849q-55 0 -95 41t-40 97t40 97t95 41t95.5 -41t40.5 -97t-40.5 -97t-95.5 -41z" />
    <glyph glyph-name="ldot" unicode="&#x140;" 
d="M1111 0h-915v162h365v1190h-357v163h557v-1353h350v-162zM1123 738q-55 0 -95.5 40.5t-40.5 97.5q0 56 40.5 96.5t95.5 40.5t95.5 -40.5t40.5 -96.5q0 -57 -40.5 -97.5t-95.5 -40.5z" />
    <glyph glyph-name="Lslash" unicode="&#x141;" 
d="M1129 188v-188h-875v554l-168 -94v176l168 95v712h206v-595l500 283v-182l-500 -280v-481h669z" />
    <glyph glyph-name="lslash" unicode="&#x142;" 
d="M1111 0h-915v162h365v494l-351 -196v176l351 199v517h-357v163h557v-567l323 183v-182l-323 -181v-606h350v-162z" />
    <glyph glyph-name="Nacute" unicode="&#x143;" 
d="M507 1610l294 307h232l-319 -307h-207zM330 0h-185v1443h194l582 -1079h15v1079h185v-1443h-192l-584 1082h-15v-1082z" />
    <glyph glyph-name="nacute" unicode="&#x144;" 
d="M521 1296l240 343h235l-270 -343h-205zM175 0v1090h194v-190h14q43 101 132 156t211 55q178 0 271.5 -103.5t93.5 -300.5v-707h-201v657q0 140 -57.5 207.5t-178.5 67.5q-125 0 -202 -80.5t-77 -212.5v-639h-200z" />
    <glyph glyph-name="Ncommaaccent" unicode="&#x145;" 
d="M330 0h-185v1443h194l582 -1079h15v1079h185v-1443h-192l-584 1082h-15v-1082zM597 -503h-183l117 359h205z" />
    <glyph glyph-name="ncommaaccent" unicode="&#x146;" 
d="M175 0v1090h194v-190h14q43 101 132 156t211 55q178 0 271.5 -103.5t93.5 -300.5v-707h-201v657q0 140 -57.5 207.5t-178.5 67.5q-125 0 -202 -80.5t-77 -212.5v-639h-200zM604 -494h-182l116 359h206z" />
    <glyph glyph-name="Ncaron" unicode="&#x147;" 
d="M724 1606h-188l-285 315h200l172 -197h14l172 197h200zM330 0h-185v1443h194l582 -1079h15v1079h185v-1443h-192l-584 1082h-15v-1082z" />
    <glyph glyph-name="ncaron" unicode="&#x148;" 
d="M520 1296l-272 346h213l164 -222h15l164 222h213l-271 -346h-226zM175 0v1090h194v-190h14q43 101 132 156t211 55q178 0 271.5 -103.5t93.5 -300.5v-707h-201v657q0 140 -57.5 207.5t-178.5 67.5q-125 0 -202 -80.5t-77 -212.5v-639h-200z" />
    <glyph glyph-name="Omacron" unicode="&#x14c;" 
d="M972 1685h-678v151h678v-151zM1169 607q0 -299 -143 -468t-393 -169t-393 169t-143 468v229q0 299 143 468t393 169t393 -169t143 -468v-229zM633 160q155 0 240.5 116t85.5 332v227q0 216 -85.5 332t-240.5 116t-240.5 -116t-85.5 -332v-227q0 -216 85.5 -332
t240.5 -116z" />
    <glyph glyph-name="omacron" unicode="&#x14d;" 
d="M971 1366h-677v152h677v-152zM633 -21q-220 0 -350.5 131t-130.5 352v165q0 222 130 352.5t351 130.5t351 -130.5t130 -352.5v-165q0 -221 -130.5 -352t-350.5 -131zM633 940q-131 0 -207 -88t-76 -239v-137q0 -151 76 -239t207 -88t207 88t76 239v137q0 151 -76 239
t-207 88z" />
    <glyph glyph-name="Obreve" unicode="&#x14e;" 
d="M276 1920h154q1 -82 57.5 -133.5t145.5 -51.5t145.5 51.5t57.5 133.5h154q0 -140 -98.5 -228t-258.5 -88t-258.5 88t-98.5 228zM1169 607q0 -299 -143 -468t-393 -169t-393 169t-143 468v229q0 299 143 468t393 169t393 -169t143 -468v-229zM633 160q155 0 240.5 116
t85.5 332v227q0 216 -85.5 332t-240.5 116t-240.5 -116t-85.5 -332v-227q0 -216 85.5 -332t240.5 -116z" />
    <glyph glyph-name="obreve" unicode="&#x14f;" 
d="M633 1409q93 0 146 53.5t53 139.5h167q0 -150 -99.5 -243.5t-266.5 -93.5t-266.5 93.5t-99.5 243.5h168q0 -86 52.5 -139.5t145.5 -53.5zM633 -21q-220 0 -350.5 131t-130.5 352v165q0 222 130 352.5t351 130.5t351 -130.5t130 -352.5v-165q0 -221 -130.5 -352
t-350.5 -131zM633 940q-131 0 -207 -88t-76 -239v-137q0 -151 76 -239t207 -88t207 88t76 239v137q0 151 -76 239t-207 88z" />
    <glyph glyph-name="Ohungarumlaut" unicode="&#x150;" 
d="M678 1610l283 307h210l-301 -307h-192zM288 1610l282 307h211l-302 -307h-191zM1169 607q0 -299 -143 -468t-393 -169t-393 169t-143 468v229q0 299 143 468t393 169t393 -169t143 -468v-229zM633 160q155 0 240.5 116t85.5 332v227q0 216 -85.5 332t-240.5 116
t-240.5 -116t-85.5 -332v-227q0 -216 85.5 -332t240.5 -116z" />
    <glyph glyph-name="ohungarumlaut" unicode="&#x151;" 
d="M743 1296l218 343h209l-242 -343h-185zM343 1296l218 343h209l-242 -343h-185zM633 -21q-220 0 -350.5 131t-130.5 352v165q0 222 130 352.5t351 130.5t351 -130.5t130 -352.5v-165q0 -221 -130.5 -352t-350.5 -131zM633 940q-131 0 -207 -88t-76 -239v-137
q0 -151 76 -239t207 -88t207 88t76 239v137q0 151 -76 239t-207 88z" />
    <glyph glyph-name="OE" unicode="&#x152;" 
d="M675 205q-30 -121 -100.5 -179.5t-187.5 -58.5q-184 0 -272.5 157.5t-88.5 486.5v222q0 328 88.5 486t272.5 158q116 0 186 -59.5t102 -183.5h15v209h568v-190h-401v-427h366v-184h-366v-453h401v-189h-568v205h-15zM226 817v-190q0 -240 50.5 -346.5t165.5 -106.5
q116 0 169.5 113t53.5 360v150q0 246 -53.5 359t-169.5 113q-115 0 -165.5 -106t-50.5 -346z" />
    <glyph glyph-name="oe" unicode="&#x153;" 
d="M1237 287q-22 -141 -107.5 -224.5t-208.5 -83.5q-90 0 -158.5 52.5t-102.5 146.5q-36 -91 -107.5 -145t-157.5 -54q-159 0 -245.5 123t-86.5 349v179q0 227 86.5 349.5t246.5 122.5q96 0 166 -52.5t101 -148.5q28 88 102 144.5t160 56.5q156 0 238 -137t82 -397v-90h-494
v-34q0 -142 44.5 -216.5t129.5 -74.5q60 0 101.5 34.5t59.5 99.5h151zM400 929q-85 0 -125.5 -72.5t-40.5 -224.5v-182q0 -153 40 -225t126 -72q82 0 127 77.5t45 219.5v182q0 142 -45 219.5t-127 77.5zM752 644h323q-6 149 -42.5 216.5t-111.5 67.5q-79 0 -123 -75
t-46 -209z" />
    <glyph glyph-name="Racute" unicode="&#x154;" 
d="M470 1610l294 307h233l-320 -307h-207zM672 563h-295v-563h-207v1443h496q221 0 349 -118t128 -323q0 -141 -72 -249.5t-193 -150.5l292 -602h-234zM377 1266v-535h260q142 0 219 69.5t77 197.5q0 127 -76 197.5t-213 70.5h-267z" />
    <glyph glyph-name="racute" unicode="&#x155;" 
d="M611 1296l240 343h234l-269 -343h-205zM597 486v-332h331v-154h-742v154h216v782h-237v154h431v-278h28q64 306 379 306q102 0 157 -23v-220q-84 31 -180 31q-184 0 -283.5 -109.5t-99.5 -310.5z" />
    <glyph glyph-name="Rcommaaccent" unicode="&#x156;" 
d="M672 563h-295v-563h-207v1443h496q221 0 349 -118t128 -323q0 -141 -72 -249.5t-193 -150.5l292 -602h-234zM377 1266v-535h260q142 0 219 69.5t77 197.5q0 127 -76 197.5t-213 70.5h-267zM624 -503h-182l117 359h205z" />
    <glyph glyph-name="rcommaaccent" unicode="&#x157;" 
d="M597 486v-332h331v-154h-742v154h216v782h-237v154h431v-278h28q64 306 379 306q102 0 157 -23v-220q-84 31 -180 31q-184 0 -283.5 -109.5t-99.5 -310.5zM477 -503h-182l116 359h206z" />
    <glyph glyph-name="Rcaron" unicode="&#x158;" 
d="M688 1606h-189l-284 315h199l172 -197h15l172 197h199zM672 563h-295v-563h-207v1443h496q221 0 349 -118t128 -323q0 -141 -72 -249.5t-193 -150.5l292 -602h-234zM377 1266v-535h260q142 0 219 69.5t77 197.5q0 127 -76 197.5t-213 70.5h-267z" />
    <glyph glyph-name="rcaron" unicode="&#x159;" 
d="M541 1296l-272 346h214l163 -222h16l164 222h213l-272 -346h-226zM597 486v-332h331v-154h-742v154h216v782h-237v154h431v-278h28q64 306 379 306q102 0 157 -23v-220q-84 31 -180 31q-184 0 -283.5 -109.5t-99.5 -310.5z" />
    <glyph glyph-name="Sacute" unicode="&#x15a;" 
d="M521 1610l294 307h233l-319 -307h-208zM126 390h201q12 -112 96.5 -175.5t222.5 -63.5q137 0 218 64.5t81 173.5q0 88 -62 143t-202 89l-132 31q-199 49 -294 148.5t-95 257.5q0 189 132 302t352 113q211 0 343.5 -111t140.5 -294h-200q-12 106 -86.5 165t-195.5 59
q-130 0 -203.5 -58t-73.5 -161q0 -89 60 -143t194 -86l132 -33q210 -50 304.5 -147t94.5 -261q0 -199 -137.5 -316t-372.5 -117q-230 0 -368.5 112.5t-149.5 307.5z" />
    <glyph glyph-name="sacute" unicode="&#x15b;" 
d="M521 1296l240 343h235l-270 -343h-205zM223 789q0 146 113 234.5t300 88.5q179 0 289 -80.5t123 -222.5h-192q-14 67 -73.5 105.5t-149.5 38.5q-96 0 -153.5 -41t-57.5 -109q0 -58 42 -93t138 -56l158 -35q162 -36 237 -108t75 -192q0 -155 -118.5 -247t-318.5 -92
q-193 0 -310.5 81.5t-130.5 225.5h202q16 -70 80.5 -108t163.5 -38q103 0 164 42.5t61 113.5q0 60 -41 94.5t-140 56.5l-163 37q-298 67 -298 304z" />
    <glyph glyph-name="Scircumflex" unicode="&#x15c;" 
d="M739 1925l284 -315h-199l-172 197h-15l-171 -197h-200l285 315h188zM126 390h201q12 -112 96.5 -175.5t222.5 -63.5q137 0 218 64.5t81 173.5q0 88 -62 143t-202 89l-132 31q-199 49 -294 148.5t-95 257.5q0 189 132 302t352 113q211 0 343.5 -111t140.5 -294h-200
q-12 106 -86.5 165t-195.5 59q-130 0 -203.5 -58t-73.5 -161q0 -89 60 -143t194 -86l132 -33q210 -50 304.5 -147t94.5 -261q0 -199 -137.5 -316t-372.5 -117q-230 0 -368.5 112.5t-149.5 307.5z" />
    <glyph glyph-name="scircumflex" unicode="&#x15d;" 
d="M520 1625h226l272 -346h-214l-163 222h-16l-164 -222h-213zM223 789q0 146 113 234.5t300 88.5q179 0 289 -80.5t123 -222.5h-192q-14 67 -73.5 105.5t-149.5 38.5q-96 0 -153.5 -41t-57.5 -109q0 -58 42 -93t138 -56l158 -35q162 -36 237 -108t75 -192
q0 -155 -118.5 -247t-318.5 -92q-193 0 -310.5 81.5t-130.5 225.5h202q16 -70 80.5 -108t163.5 -38q103 0 164 42.5t61 113.5q0 60 -41 94.5t-140 56.5l-163 37q-298 67 -298 304z" />
    <glyph glyph-name="Scedilla" unicode="&#x15e;" 
d="M126 390h201q12 -112 96.5 -175.5t222.5 -63.5q137 0 218 64.5t81 173.5q0 88 -62 143t-202 89l-132 31q-199 49 -294 148.5t-95 257.5q0 189 132 302t352 113q211 0 343.5 -111t140.5 -294h-200q-12 106 -86.5 165t-195.5 59q-130 0 -203.5 -58t-73.5 -161
q0 -89 60 -143t194 -86l132 -33q210 -50 304.5 -147t94.5 -261q0 -183 -117 -297t-321 -133l-40 -99q95 -2 145 -45t50 -123q0 -89 -66.5 -141.5t-179.5 -52.5q-67 0 -133 18v117q44 -14 117 -14q112 0 112 68q0 33 -32.5 48t-105.5 15h-58v94l48 115q-200 17 -319 127.5
t-128 289.5z" />
    <glyph glyph-name="scedilla" unicode="&#x15f;" 
d="M502 -236v94l52 126q-158 17 -253 96.5t-107 206.5h202q16 -70 80.5 -108t163.5 -38q103 0 164 42.5t61 113.5q0 60 -41 94.5t-140 56.5l-163 37q-298 67 -298 304q0 146 113 234.5t300 88.5q179 0 289 -80.5t123 -222.5h-192q-14 67 -73.5 105.5t-149.5 38.5
q-96 0 -153.5 -41t-57.5 -109q0 -58 42 -93t138 -56l158 -35q162 -36 237 -108t75 -192q0 -143 -101 -233t-274 -104l-44 -108q94 -1 144 -44.5t50 -123.5q0 -89 -66 -141.5t-179 -52.5q-68 0 -134 18v117q46 -14 118 -14q112 0 112 68q0 33 -32.5 48t-105.5 15h-58z" />
    <glyph glyph-name="Scaron" unicode="&#x160;" 
d="M739 1606h-188l-285 315h200l171 -197h15l172 197h199zM126 390h201q12 -112 96.5 -175.5t222.5 -63.5q137 0 218 64.5t81 173.5q0 88 -62 143t-202 89l-132 31q-199 49 -294 148.5t-95 257.5q0 189 132 302t352 113q211 0 343.5 -111t140.5 -294h-200q-12 106 -86.5 165
t-195.5 59q-130 0 -203.5 -58t-73.5 -161q0 -89 60 -143t194 -86l132 -33q210 -50 304.5 -147t94.5 -261q0 -199 -137.5 -316t-372.5 -117q-230 0 -368.5 112.5t-149.5 307.5z" />
    <glyph glyph-name="scaron" unicode="&#x161;" 
d="M520 1296l-272 346h213l164 -222h15l164 222h213l-271 -346h-226zM223 789q0 146 113 234.5t300 88.5q179 0 289 -80.5t123 -222.5h-192q-14 67 -73.5 105.5t-149.5 38.5q-96 0 -153.5 -41t-57.5 -109q0 -58 42 -93t138 -56l158 -35q162 -36 237 -108t75 -192
q0 -155 -118.5 -247t-318.5 -92q-193 0 -310.5 81.5t-130.5 225.5h202q16 -70 80.5 -108t163.5 -38q103 0 164 42.5t61 113.5q0 60 -41 94.5t-140 56.5l-163 37q-298 67 -298 304z" />
    <glyph glyph-name="Tcedilla" unicode="&#x162;" 
d="M513 -236v94l59 142h-43v1258h-429v185h1066v-185h-429v-1258h-22l-51 -126q95 -2 145 -45t50 -123q0 -89 -66 -141.5t-179 -52.5q-68 0 -134 18v117q44 -14 117 -14q113 0 113 68q0 33 -32.5 48t-106.5 15h-58z" />
    <glyph glyph-name="tcedilla" unicode="&#x163;" 
d="M697 -487q-80 0 -142 17v114q44 -14 118 -14q114 0 114 70q0 34 -33 49t-108 15h-58v90l65 162q-112 29 -165 105.5t-53 208.5v589h-288v165h288v304h198v-304h431v-165h-428v-589q0 -81 55 -124t159 -43q168 0 208 5v-164q-44 -8 -204 -8q-36 0 -68 2l-49 -127
q98 -2 152 -45t54 -121q0 -88 -66.5 -140t-179.5 -52z" />
    <glyph glyph-name="Tcaron" unicode="&#x164;" 
d="M727 1606h-188l-285 315h200l172 -197h14l172 197h200zM737 0h-208v1258h-429v185h1066v-185h-429v-1258z" />
    <glyph glyph-name="tcaron" unicode="&#x165;" 
d="M940 1230h-140v468h181zM435 1388h198v-304h431v-165h-428v-589q0 -81 55 -124t159 -43q168 0 208 5v-164q-44 -8 -222 -8q-210 0 -305.5 79.5t-95.5 254.5v589h-288v165h288v304z" />
    <glyph glyph-name="Tbar" unicode="&#x166;" 
d="M737 0h-208v635h-294v159h294v464h-429v185h1066v-185h-429v-464h294v-159h-294v-635z" />
    <glyph glyph-name="tbar" unicode="&#x167;" 
d="M1064 541h-428v-211q0 -81 55 -124t159 -43q168 0 208 5v-164q-44 -8 -222 -8q-210 0 -305.5 79.5t-95.5 254.5v211h-288v132h288v246h-288v165h288v304h198v-304h431v-165h-428v-246h428v-132z" />
    <glyph glyph-name="Utilde" unicode="&#x168;" 
d="M782 1612q-43 0 -79.5 15.5t-61.5 38t-47 45t-48 38t-53 15.5q-91 0 -95 -142h-139q0 129 60.5 204t160.5 75q45 0 83.5 -15.5t64 -38t47.5 -45t46 -38t48 -15.5q90 0 96 140h137q0 -127 -60.5 -202t-159.5 -75zM633 161q147 0 228 93t81 262v927h208v-940
q0 -251 -137 -392t-380 -141t-380 141t-137 392v940h208v-927q0 -169 81 -262t228 -93z" />
    <glyph glyph-name="utilde" unicode="&#x169;" 
d="M494 1424q-44 0 -64.5 -37t-21.5 -115h-153q0 139 63.5 220t172.5 81q42 0 79 -15.5t62.5 -38t48 -45t45.5 -38t46 -15.5q44 0 64.5 36.5t20.5 113.5h153q0 -139 -63 -219.5t-172 -80.5q-52 0 -96.5 24t-70.5 52.5t-56.5 52.5t-57.5 24zM1091 1090v-1090h-194v189h-14
q-43 -101 -132 -155.5t-211 -54.5q-178 0 -271.5 103.5t-93.5 300.5v707h201v-658q0 -140 57.5 -207t178.5 -67q125 0 202 80.5t77 212.5v639h200z" />
    <glyph glyph-name="Umacron" unicode="&#x16a;" 
d="M970 1685h-678v151h678v-151zM633 161q147 0 228 93t81 262v927h208v-940q0 -251 -137 -392t-380 -141t-380 141t-137 392v940h208v-927q0 -169 81 -262t228 -93z" />
    <glyph glyph-name="umacron" unicode="&#x16b;" 
d="M971 1366h-677v152h677v-152zM1091 1090v-1090h-194v189h-14q-43 -101 -132 -155.5t-211 -54.5q-178 0 -271.5 103.5t-93.5 300.5v707h201v-658q0 -140 57.5 -207t178.5 -67q125 0 202 80.5t77 212.5v639h200z" />
    <glyph glyph-name="Ubreve" unicode="&#x16c;" 
d="M273 1920h155q1 -82 57.5 -133.5t145.5 -51.5t145.5 51.5t57.5 133.5h154q0 -140 -98.5 -228t-258.5 -88t-259 88t-99 228zM633 161q147 0 228 93t81 262v927h208v-940q0 -251 -137 -392t-380 -141t-380 141t-137 392v940h208v-927q0 -169 81 -262t228 -93z" />
    <glyph glyph-name="ubreve" unicode="&#x16d;" 
d="M633 1409q93 0 146 53.5t53 139.5h167q0 -150 -99.5 -243.5t-266.5 -93.5t-266.5 93.5t-99.5 243.5h168q0 -86 52.5 -139.5t145.5 -53.5zM1091 1090v-1090h-194v189h-14q-43 -101 -132 -155.5t-211 -54.5q-178 0 -271.5 103.5t-93.5 300.5v707h201v-658q0 -140 57.5 -207
t178.5 -67q125 0 202 80.5t77 212.5v639h200z" />
    <glyph glyph-name="Uring" unicode="&#x16e;" 
d="M631 1557q-83 0 -139.5 56t-56.5 138q0 81 56.5 136.5t139.5 55.5t139.5 -55.5t56.5 -136.5q0 -82 -56.5 -138t-139.5 -56zM631 1650q43 0 71.5 28.5t28.5 71.5t-28.5 71t-71.5 28t-71.5 -28t-28.5 -71t28.5 -71.5t71.5 -28.5zM633 161q147 0 228 93t81 262v927h208v-940
q0 -251 -137 -392t-380 -141t-380 141t-137 392v940h208v-927q0 -169 81 -262t228 -93z" />
    <glyph glyph-name="uring" unicode="&#x16f;" 
d="M633 1255q-95 0 -162.5 68.5t-67.5 164.5q0 97 67.5 165.5t162.5 68.5t162 -68.5t67 -165.5q0 -96 -67.5 -164.5t-161.5 -68.5zM633 1372q48 0 80.5 33.5t32.5 82.5q0 50 -32.5 83.5t-80.5 33.5q-49 0 -81.5 -33.5t-32.5 -83.5q0 -49 32.5 -82.5t81.5 -33.5zM1091 1090
v-1090h-194v189h-14q-43 -101 -132 -155.5t-211 -54.5q-178 0 -271.5 103.5t-93.5 300.5v707h201v-658q0 -140 57.5 -207t178.5 -67q125 0 202 80.5t77 212.5v639h200z" />
    <glyph glyph-name="Uhungarumlaut" unicode="&#x170;" 
d="M676 1610l282 307h211l-301 -307h-192zM286 1610l282 307h211l-302 -307h-191zM633 161q147 0 228 93t81 262v927h208v-940q0 -251 -137 -392t-380 -141t-380 141t-137 392v940h208v-927q0 -169 81 -262t228 -93z" />
    <glyph glyph-name="uhungarumlaut" unicode="&#x171;" 
d="M743 1296l218 343h209l-242 -343h-185zM343 1296l218 343h209l-242 -343h-185zM1091 1090v-1090h-194v189h-14q-43 -101 -132 -155.5t-211 -54.5q-178 0 -271.5 103.5t-93.5 300.5v707h201v-658q0 -140 57.5 -207t178.5 -67q125 0 202 80.5t77 212.5v639h200z" />
    <glyph glyph-name="Uogonek" unicode="&#x172;" 
d="M856 -435q-108 0 -177 57t-69 146q0 124 137 215v15q-58 -28 -133 -28q-230 0 -364 143t-134 390v940h208v-927q0 -169 81 -262t228 -93t228 93t81 262v927h208v-940q0 -161 -52 -274.5t-163 -193.5q-83 -59 -120 -109t-37 -104q0 -53 33.5 -84.5t89.5 -31.5q41 0 68 7
v-131q-45 -17 -113 -17z" />
    <glyph glyph-name="uogonek" unicode="&#x173;" 
d="M897 0v189h-14q-43 -101 -132 -155.5t-211 -54.5q-178 0 -271.5 103.5t-93.5 300.5v707h201v-658q0 -140 57.5 -207t178.5 -67q125 0 202 80.5t77 212.5v639h200v-1090q-84 -37 -130 -88.5t-46 -107.5q0 -44 30 -70.5t81 -26.5q42 0 65 10v-136q-40 -21 -117 -21
q-98 0 -159 55.5t-61 144.5q0 145 174 240h-31z" />
    <glyph glyph-name="Wcircumflex" unicode="&#x174;" 
d="M727 1925l285 -315h-200l-171 197h-15l-172 -197h-199l284 315h188zM639 883h-12l-195 -883h-191l-241 1443h194l78 -556l78 -593h13l181 819h178l181 -819h13l78 593l78 556h194l-241 -1443h-191z" />
    <glyph glyph-name="wcircumflex" unicode="&#x175;" 
d="M520 1625h226l272 -346h-214l-163 222h-16l-164 -222h-213zM1227 1090l-230 -1090h-185l-173 817h-11l-174 -817h-185l-230 1090h194l129 -845h23l159 843h178l159 -843h23l129 845h194z" />
    <glyph glyph-name="Ycircumflex" unicode="&#x176;" 
d="M727 1925l285 -315h-200l-172 197h-14l-172 -197h-200l285 315h188zM737 0h-208v579l-476 864h230l343 -648h14l343 648h230l-476 -864v-579z" />
    <glyph glyph-name="ycircumflex" unicode="&#x177;" 
d="M519 1625h226l272 -346h-213l-164 222h-16l-164 -222h-213zM322 -390q-43 0 -82 3v169q16 -3 60 -3q79 0 125.5 36.5t76.5 122.5l17 54l-397 1098h220l287 -892h14l285 892h213l-400 -1123q-71 -203 -161.5 -280t-257.5 -77z" />
    <glyph glyph-name="Ydieresis" unicode="&#x178;" 
d="M423 1643q-51 0 -88.5 38.5t-37.5 90.5t37.5 90.5t88.5 38.5q50 0 88 -38.5t38 -90.5t-38 -90.5t-88 -38.5zM843 1643q-50 0 -88 38.5t-38 90.5t38 90.5t88 38.5q51 0 88.5 -38.5t37.5 -90.5t-37.5 -90.5t-88.5 -38.5zM737 0h-208v579l-476 864h230l343 -648h14l343 648
h230l-476 -864v-579z" />
    <glyph glyph-name="Zacute" unicode="&#x179;" 
d="M514 1610l294 307h232l-319 -307h-207zM136 0v147l727 1097v14h-704v185h965v-147l-726 -1097v-14h741v-185h-1003z" />
    <glyph glyph-name="zacute" unicode="&#x17a;" 
d="M521 1296l240 343h235l-270 -343h-205zM201 0v132l618 777v15h-614v166h854v-142l-602 -767v-15h608v-166h-864z" />
    <glyph glyph-name="Zdotaccent" unicode="&#x17b;" 
d="M637 1628q-55 0 -95 41t-40 97t40 97t95 41t95.5 -41t40.5 -97t-40.5 -97t-95.5 -41zM136 0v147l727 1097v14h-704v185h965v-147l-726 -1097v-14h741v-185h-1003z" />
    <glyph glyph-name="zdotaccent" unicode="&#x17c;" 
d="M633 1301q-55 0 -95.5 41t-40.5 97t40.5 97t95.5 41t95.5 -41t40.5 -97t-40.5 -97t-95.5 -41zM201 0v132l618 777v15h-614v166h854v-142l-602 -767v-15h608v-166h-864z" />
    <glyph glyph-name="Zcaron" unicode="&#x17d;" 
d="M731 1606h-188l-285 315h200l172 -197h14l172 197h200zM136 0v147l727 1097v14h-704v185h965v-147l-726 -1097v-14h741v-185h-1003z" />
    <glyph glyph-name="zcaron" unicode="&#x17e;" 
d="M520 1296l-272 346h213l164 -222h15l164 222h213l-271 -346h-226zM201 0v132l618 777v15h-614v166h854v-142l-602 -767v-15h608v-166h-864z" />
    <glyph glyph-name="florin" unicode="&#x192;" 
d="M215 -52q-93 0 -188 35v178q100 -32 166 -32q110 0 174 57.5t84 186.5l55 326h-302v169h325l33 215q29 199 141.5 302.5t301.5 103.5q119 0 200 -32v-179q-59 30 -172 30q-117 0 -179 -59.5t-82 -191.5l-31 -189h367v-169h-389l-58 -352q-30 -209 -139.5 -304t-306.5 -95
z" />
    <glyph glyph-name="Ohorn" unicode="&#x1a0;" 
d="M633 -30q-251 0 -393.5 169t-142.5 468v229q0 299 142.5 468t393.5 169q69 0 177 -21t185 -21q71 0 100.5 22.5t29.5 77.5v145h168v-197q0 -92 -54 -141t-154 -49h-69v-12q74 -58 113.5 -171.5t39.5 -269.5v-229q0 -299 -142.5 -468t-393.5 -169zM633 160q156 0 241 116
t85 332v227q0 216 -85 332t-241 116t-241 -116t-85 -332v-227q0 -216 85 -332t241 -116z" />
    <glyph glyph-name="ohorn" unicode="&#x1a1;" 
d="M1114 462q0 -221 -130.5 -352t-350.5 -131t-350.5 131t-130.5 352v165q0 222 130 352.5t351 130.5q66 0 150 -14.5t140 -14.5q62 0 87 20.5t25 71.5v139h168v-195q0 -81 -44 -126t-123 -45h-57v-10q64 -43 99.5 -125.5t35.5 -190.5v-158zM633 940q-131 0 -207 -88
t-76 -239v-137q0 -151 76 -239t207 -88t207 88t76 239v137q0 151 -76 239t-207 88z" />
    <glyph glyph-name="Uhorn" unicode="&#x1af;" 
d="M627 -30q-241 0 -374.5 140t-133.5 393v940h208v-937q0 -164 78.5 -254.5t221.5 -90.5q142 0 220.5 90.5t78.5 254.5v937h194q96 0 96 86v171h167v-212q0 -90 -53.5 -140t-150.5 -50h-45v-795q0 -253 -133 -393t-374 -140z" />
    <glyph glyph-name="uhorn" unicode="&#x1b0;" 
d="M605 158q122 0 196 79.5t74 212.5v640h169q92 0 92 86v149h169v-190q0 -91 -55 -141t-150 -50h-25v-944h-193v189h-15q-43 -103 -128.5 -156.5t-206.5 -53.5q-176 0 -266.5 102.5t-90.5 301.5v707h199v-658q0 -274 231 -274z" />
    <glyph glyph-name="uni01C4" unicode="&#x1c4;" 
d="M1040 1584h-182l-267 307h188l162 -199h16l162 199h188zM42 1443h189q155 0 243.5 -68.5t129 -223.5t40.5 -426q0 -276 -40 -432t-128.5 -224.5t-244.5 -68.5h-189v1443zM659 0v147l387 1118v14h-364v164h540v-147l-381 -1118v-14h389v-164h-571zM206 1290v-1138h26
q94 0 146 53t75 175.5t23 344.5q0 217 -23 338t-75 174t-146 53h-26z" />
    <glyph glyph-name="uni01C5" unicode="&#x1c5;" 
d="M1085 1296h-196l-212 346h172l129 -241h18l128 241h172zM42 1443h189q155 0 243.5 -68.5t129 -223.5t40.5 -426q0 -276 -40 -432t-128.5 -224.5t-244.5 -68.5h-189v1443zM208 1290v-1138h23q94 0 145.5 53.5t74 175t22.5 344.5q0 218 -22.5 338.5t-74 173.5t-145.5 53
h-23zM712 0v132l354 795v15h-343v148h516v-142l-344 -785v-15h350v-148h-533z" />
    <glyph glyph-name="uni01C6" unicode="&#x1c6;" 
d="M1094 1296h-196l-196 346h172l113 -241h18l113 241h172zM300 -18q-144 0 -208.5 105t-64.5 338v241q0 234 63 338t203 104q83 0 128 -44.5t64 -146.5h19v598h162v-1515h-157v172h-19q-29 -106 -71.5 -148t-118.5 -42zM735 0v132l335 795v15h-330v148h501v-142l-332 -785
v-15h336v-148h-510zM348 146q83 0 118 70.5t35 234.5v188q0 165 -35 235.5t-118 70.5t-118.5 -70.5t-35.5 -235.5v-188q0 -164 35.5 -234.5t118.5 -70.5z" />
    <glyph glyph-name="uni01C7" unicode="&#x1c7;" 
d="M563 174v-174h-492v1443h189v-1269h303zM884 -30q-149 0 -229 98t-81 283h181q5 -204 130 -204q68 0 96 55.5t28 197.5v869h-324v174h504v-1062q0 -411 -305 -411z" />
    <glyph glyph-name="uni01C8" unicode="&#x1c8;" 
d="M988 1345q-68 0 -111.5 42t-43.5 106q0 65 43.5 107t111.5 42q67 0 111 -42t44 -107q0 -64 -44 -106t-111 -42zM672 174v-174h-502v1443h186v-1269h316zM1096 1090v-1074q0 -190 -100 -271.5t-332 -81.5q-188 0 -264 7v170q68 -7 262 -7q138 0 190 42t52 150v1065h192z
" />
    <glyph glyph-name="uni01C9" unicode="&#x1c9;" 
d="M956 1345q-68 0 -111.5 42t-43.5 106q0 65 43.5 107t111.5 42t111.5 -42t43.5 -107q0 -64 -43.5 -106t-111.5 -42zM512 0h-193v1346h-327v169h520v-1515zM1064 1090v-1074q0 -190 -99.5 -271.5t-331.5 -81.5q-181 0 -265 7v170q75 -7 263 -7q137 0 189 42t52 150v1065
h192z" />
    <glyph glyph-name="uni01CA" unicode="&#x1ca;" 
d="M943 -30q-125 0 -191 98t-65 283h157q4 -120 25 -167.5t70 -47.5q54 0 72.5 49t18.5 194v1064h159v-1062q0 -211 -59.5 -311t-186.5 -100zM208 0h-144v1443h165l246 -1049h15l-13 219v830h143v-1443h-162l-248 1053h-15l13 -217v-836z" />
    <glyph glyph-name="uni01CB" unicode="&#x1cb;" 
d="M995 1353q-65 0 -108 41t-43 104q0 62 43 103t108 41t108 -41t43 -103q0 -63 -43 -104t-108 -41zM232 0h-154v1443h184l290 -1049h19v1049h153v-1443h-182l-292 1053h-18v-1053zM1096 1090v-1074q0 -192 -98.5 -272.5t-329.5 -80.5q-188 0 -265 7v163q60 -6 272 -6
q137 0 189.5 43.5t52.5 154.5v1065h179z" />
    <glyph glyph-name="uni01CC" unicode="&#x1cc;" 
d="M995 1345q-68 0 -111.5 42t-43.5 106q0 65 43.5 107t111.5 42q67 0 111 -42t44 -107q0 -64 -44 -106t-111 -42zM129 0v1090h178v-190h15q12 99 67.5 155t140.5 56q198 0 198 -275v-836h-185v754q0 179 -102 179q-127 0 -127 -258v-675h-185zM1099 1090v-1074
q0 -190 -100 -271.5t-332 -81.5q-204 0 -264 7v170q58 -7 269 -7q137 0 189.5 42t52.5 150v1065h185z" />
    <glyph glyph-name="Acaron" unicode="&#x1cd;" 
d="M727 1606h-188l-285 315h200l172 -197h14l172 197h200zM983 0l-115 398h-480l-116 -398h-210l455 1443h232l455 -1443h-221zM625 1212l-188 -645h382l-187 645h-7z" />
    <glyph glyph-name="acaron" unicode="&#x1ce;" 
d="M518 1296l-272 346h213l164 -222h16l163 222h214l-272 -346h-226zM512 -18q-156 0 -251 90t-95 238q0 145 101.5 228.5t292.5 94.5l286 15v96q0 94 -56.5 144.5t-161.5 50.5q-87 0 -146.5 -36t-78.5 -100h-196q15 135 132.5 218.5t292.5 83.5q197 0 305 -94.5t108 -266.5
v-745h-191v159h-19q-39 -84 -123.5 -130t-199.5 -46zM574 149q117 0 194.5 69t77.5 173v115l-259 -13q-109 -6 -165 -50t-56 -124q0 -79 56 -124.5t152 -45.5z" />
    <glyph glyph-name="Icaron" unicode="&#x1cf;" 
d="M727 1606h-188l-285 315h200l172 -197h14l172 197h200zM1031 0h-796v181h294v1081h-294v181h796v-181h-294v-1081h294v-181z" />
    <glyph glyph-name="icaron" unicode="&#x1d0;" 
d="M541 1290l-272 345h213l164 -221h16l163 221h214l-272 -345h-226zM1111 0h-915v162h367v766h-359v162h555v-928h352v-162z" />
    <glyph glyph-name="Ocaron" unicode="&#x1d1;" 
d="M727 1606h-188l-285 315h200l172 -197h14l172 197h200zM1169 607q0 -299 -143 -468t-393 -169t-393 169t-143 468v229q0 299 143 468t393 169t393 -169t143 -468v-229zM633 160q155 0 240.5 116t85.5 332v227q0 216 -85.5 332t-240.5 116t-240.5 -116t-85.5 -332v-227
q0 -216 85.5 -332t240.5 -116z" />
    <glyph glyph-name="ocaron" unicode="&#x1d2;" 
d="M520 1296l-272 346h213l164 -222h16l164 222h213l-272 -346h-226zM633 -21q-220 0 -350.5 131t-130.5 352v165q0 222 130 352.5t351 130.5t351 -130.5t130 -352.5v-165q0 -221 -130.5 -352t-350.5 -131zM633 940q-131 0 -207 -88t-76 -239v-137q0 -151 76 -239t207 -88
t207 88t76 239v137q0 151 -76 239t-207 88z" />
    <glyph glyph-name="Ucaron" unicode="&#x1d3;" 
d="M725 1606h-188l-285 315h200l172 -197h14l172 197h200zM633 161q147 0 228 93t81 262v927h208v-940q0 -251 -137 -392t-380 -141t-380 141t-137 392v940h208v-927q0 -169 81 -262t228 -93z" />
    <glyph glyph-name="ucaron" unicode="&#x1d4;" 
d="M520 1296l-272 346h213l164 -222h16l164 222h213l-272 -346h-226zM1091 1090v-1090h-194v189h-14q-43 -101 -132 -155.5t-211 -54.5q-178 0 -271.5 103.5t-93.5 300.5v707h201v-658q0 -140 57.5 -207t178.5 -67q125 0 202 80.5t77 212.5v639h200z" />
    <glyph glyph-name="Udieresismacron" unicode="&#x1d5;" 
d="M290 2074h683v-133h-683v133zM428 1806q49 0 83 -35.5t34 -85.5t-34 -85t-83 -35t-83 35t-34 85t34 85.5t83 35.5zM836 1806q49 0 83 -35.5t34 -85.5t-34 -85t-83 -35q-48 0 -82.5 35.5t-34.5 84.5q0 50 34.5 85.5t82.5 35.5zM633 161q147 0 228 93t81 262v927h208v-940
q0 -251 -137 -392t-380 -141t-380 141t-137 392v940h208v-927q0 -169 81 -262t228 -93z" />
    <glyph glyph-name="udieresismacron" unicode="&#x1d6;" 
d="M972 1727h-678v151h678v-151zM423 1559q50 0 88 -38.5t38 -90.5t-38 -90.5t-88 -38.5q-51 0 -88.5 38.5t-37.5 90.5t37.5 90.5t88.5 38.5zM843 1559q51 0 88.5 -38.5t37.5 -90.5t-37.5 -90.5t-88.5 -38.5q-50 0 -88 38.5t-38 90.5t38 90.5t88 38.5zM1091 1090v-1090h-194
v189h-14q-43 -101 -132 -155.5t-211 -54.5q-178 0 -271.5 103.5t-93.5 300.5v707h201v-658q0 -140 57.5 -207t178.5 -67q125 0 202 80.5t77 212.5v639h200z" />
    <glyph glyph-name="Udieresisacute" unicode="&#x1d7;" 
d="M504 1876l195 229h217l-224 -229h-188zM427 1565q-48 0 -82.5 35.5t-34.5 84.5q0 50 34.5 85.5t82.5 35.5q49 0 83 -35.5t34 -85.5t-34 -85t-83 -35zM836 1565q-49 0 -83 35t-34 85t34 85.5t83 35.5t83 -35.5t34 -85.5t-34 -85t-83 -35zM633 161q147 0 228 93t81 262v927
h208v-940q0 -251 -137 -392t-380 -141t-380 141t-137 392v940h208v-927q0 -169 81 -262t228 -93z" />
    <glyph glyph-name="udieresisacute" unicode="&#x1d8;" 
d="M521 1658l212 316h214l-242 -316h-184zM423 1301q-51 0 -88.5 38.5t-37.5 90.5t37.5 90.5t88.5 38.5q50 0 88 -38.5t38 -90.5t-38 -90.5t-88 -38.5zM843 1301q-50 0 -88 38.5t-38 90.5t38 90.5t88 38.5q51 0 88.5 -38.5t37.5 -90.5t-37.5 -90.5t-88.5 -38.5zM1091 1090
v-1090h-194v189h-14q-43 -101 -132 -155.5t-211 -54.5q-178 0 -271.5 103.5t-93.5 300.5v707h201v-658q0 -140 57.5 -207t178.5 -67q125 0 202 80.5t77 212.5v639h200z" />
    <glyph glyph-name="Udieresiscaron" unicode="&#x1d9;" 
d="M730 1866h-198l-280 261h208l163 -158h15l164 158h208zM427 1565q-48 0 -82.5 35.5t-34.5 84.5q0 50 34.5 85.5t82.5 35.5q49 0 83 -35.5t34 -85.5t-34 -85t-83 -35zM836 1565q-49 0 -83 35t-34 85t34 85.5t83 35.5t83 -35.5t34 -85.5t-34 -85t-83 -35zM633 161
q147 0 228 93t81 262v927h208v-940q0 -251 -137 -392t-380 -141t-380 141t-137 392v940h208v-927q0 -169 81 -262t228 -93z" />
    <glyph glyph-name="udieresiscaron" unicode="&#x1da;" 
d="M734 1658h-202l-273 324h193l174 -214h14l174 214h193zM423 1301q-51 0 -88.5 38.5t-37.5 90.5t37.5 90.5t88.5 38.5q50 0 88 -38.5t38 -90.5t-38 -90.5t-88 -38.5zM843 1301q-50 0 -88 38.5t-38 90.5t38 90.5t88 38.5q51 0 88.5 -38.5t37.5 -90.5t-37.5 -90.5
t-88.5 -38.5zM1091 1090v-1090h-194v189h-14q-43 -101 -132 -155.5t-211 -54.5q-178 0 -271.5 103.5t-93.5 300.5v707h201v-658q0 -140 57.5 -207t178.5 -67q125 0 202 80.5t77 212.5v639h200z" />
    <glyph glyph-name="Udieresisgrave" unicode="&#x1db;" 
d="M760 1876h-188l-225 229h218zM836 1565q-48 0 -82.5 35.5t-34.5 84.5q0 50 34.5 85.5t82.5 35.5q49 0 83 -35.5t34 -85.5t-34 -85t-83 -35zM428 1565q-49 0 -83 35t-34 85t34 85.5t83 35.5t83 -35.5t34 -85.5t-34 -85t-83 -35zM633 161q147 0 228 93t81 262v927h208v-940
q0 -251 -137 -392t-380 -141t-380 141t-137 392v940h208v-927q0 -169 81 -262t228 -93z" />
    <glyph glyph-name="udieresisgrave" unicode="&#x1dc;" 
d="M745 1658h-184l-242 316h214zM843 1301q-50 0 -88 38.5t-38 90.5t38 90.5t88 38.5q51 0 88.5 -38.5t37.5 -90.5t-37.5 -90.5t-88.5 -38.5zM423 1301q-51 0 -88.5 38.5t-37.5 90.5t37.5 90.5t88.5 38.5q50 0 88 -38.5t38 -90.5t-38 -90.5t-88 -38.5zM1091 1090v-1090h-194
v189h-14q-43 -101 -132 -155.5t-211 -54.5q-178 0 -271.5 103.5t-93.5 300.5v707h201v-658q0 -140 57.5 -207t178.5 -67q125 0 202 80.5t77 212.5v639h200z" />
    <glyph glyph-name="Adieresismacron" unicode="&#x1de;" 
d="M292 2074h683v-133h-683v133zM430 1806q49 0 83 -35.5t34 -85.5t-34 -85t-83 -35t-83 35t-34 85t34 85.5t83 35.5zM838 1806q49 0 83 -35.5t34 -85.5t-34 -85t-83 -35q-48 0 -82.5 35.5t-34.5 84.5q0 50 34.5 85.5t82.5 35.5zM983 0l-115 398h-480l-116 -398h-210
l455 1443h232l455 -1443h-221zM625 1212l-188 -645h382l-187 645h-7z" />
    <glyph glyph-name="adieresismacron" unicode="&#x1df;" 
d="M969 1727h-677v151h677v-151zM420 1559q51 0 88.5 -38.5t37.5 -90.5t-37.5 -90.5t-88.5 -38.5q-50 0 -88 38.5t-38 90.5t38 90.5t88 38.5zM841 1559q51 0 88.5 -38.5t37.5 -90.5t-37.5 -90.5t-88.5 -38.5t-88.5 38.5t-37.5 90.5t37.5 90.5t88.5 38.5zM512 -18
q-156 0 -251 90t-95 238q0 145 101.5 228.5t292.5 94.5l286 15v96q0 94 -56.5 144.5t-161.5 50.5q-87 0 -146.5 -36t-78.5 -100h-196q15 135 132.5 218.5t292.5 83.5q197 0 305 -94.5t108 -266.5v-745h-191v159h-19q-39 -84 -123.5 -130t-199.5 -46zM574 149q117 0 194.5 69
t77.5 173v115l-259 -13q-109 -6 -165 -50t-56 -124q0 -79 56 -124.5t152 -45.5z" />
    <glyph glyph-name="Adotmacron" unicode="&#x1e0;" 
d="M292 2074h683v-133h-683v133zM634 1826q52 0 88 -37t36 -90t-36 -90t-88 -37t-88.5 37t-36.5 90t36.5 90t88.5 37zM983 0l-115 398h-480l-116 -398h-210l455 1443h232l455 -1443h-221zM625 1212l-188 -645h382l-187 645h-7z" />
    <glyph glyph-name="adotmacron" unicode="&#x1e1;" 
d="M969 1728h-677v151h677v-151zM631 1283q-55 0 -95.5 41t-40.5 97t40.5 97t95.5 41t95 -41t40 -97t-40 -97t-95 -41zM512 -18q-156 0 -251 90t-95 238q0 145 101.5 228.5t292.5 94.5l286 15v96q0 94 -56.5 144.5t-161.5 50.5q-87 0 -146.5 -36t-78.5 -100h-196
q15 135 132.5 218.5t292.5 83.5q197 0 305 -94.5t108 -266.5v-745h-191v159h-19q-39 -84 -123.5 -130t-199.5 -46zM574 149q117 0 194.5 69t77.5 173v115l-259 -13q-109 -6 -165 -50t-56 -124q0 -79 56 -124.5t152 -45.5z" />
    <glyph glyph-name="AEmacron" unicode="&#x1e2;" 
d="M1160 1685h-678v151h678v-151zM632 0v413h-310l-108 -413h-211l407 1443h827v-184h-415v-444h379v-176h-379v-454h415v-185h-605zM542 1248l-173 -659h263v659h-90z" />
    <glyph glyph-name="aemacron" unicode="&#x1e3;" 
d="M978 1366h-677v152h677v-152zM1214 307q-31 -160 -112.5 -242.5t-208.5 -82.5q-88 0 -158 58t-105 162h-5q-40 -106 -114.5 -163t-173.5 -57q-125 0 -203 89.5t-78 232.5q0 289 307 321l178 18v89q0 100 -40.5 153.5t-114.5 53.5q-56 0 -94.5 -40t-45.5 -106h-163
q13 141 98.5 227.5t212.5 86.5q86 0 150 -45t96 -129h5q82 174 249 174q155 0 240 -140.5t85 -399.5v-75h-508v-16q1 -153 48.5 -237.5t132.5 -84.5q62 0 102.5 36.5t66.5 116.5h153zM1044 646q-2 144 -42.5 218.5t-117.5 74.5q-73 0 -116.5 -76t-51.5 -217h328zM362 154
q80 0 131 66t51 171v102l-157 -15q-76 -7 -118 -51.5t-42 -117.5q0 -155 135 -155z" />
    <glyph glyph-name="Gcaron" unicode="&#x1e6;" 
d="M740 1606h-189l-284 315h199l172 -197h15l172 197h199zM953 450v125h-313v168h524v-305q0 -209 -140 -338.5t-365 -129.5q-258 0 -400.5 162.5t-142.5 455.5v267q0 293 142.5 455.5t400.5 162.5q229 0 364.5 -131t140.5 -358h-210q-6 134 -88.5 216t-210.5 82
q-162 0 -245.5 -108.5t-83.5 -318.5v-267q0 -211 84 -319t247 -108q137 0 216.5 77.5t79.5 211.5z" />
    <glyph glyph-name="gcaron" unicode="&#x1e7;" 
d="M493 1296l-272 346h213l164 -222h16l163 222h214l-272 -346h-226zM602 -409q-197 0 -319 79.5t-138 217.5h198q16 -64 87 -102t175 -38q135 0 207 65.5t72 188.5v182h-19q-32 -88 -119 -139t-207 -51q-189 0 -301 125.5t-112 338.5v186q0 214 113.5 339t306.5 125
q118 0 203.5 -51t118.5 -140h19v173h198v-1089q0 -192 -128.5 -301t-354.5 -109zM330 477q0 -140 75 -223t202 -83q126 0 201.5 83.5t75.5 222.5v151q0 140 -75.5 223t-201.5 83q-127 0 -202 -83t-75 -223v-151z" />
    <glyph glyph-name="Kcaron" unicode="&#x1e8;" 
d="M761 1606h-188l-284 315h199l172 -197h15l172 197h199zM401 0h-202v1443h202v-701h13l561 701h233l-522 -638l568 -805h-252l-458 651l-143 -174v-477z" />
    <glyph glyph-name="kcaron" unicode="&#x1e9;" 
d="M443 1677h-188l-285 316h199l172 -198h15l172 198h199zM464 615l446 475h238l-417 -438l446 -652h-236l-355 521l-137 -134v-387h-200v1515h200v-900h15z" />
    <glyph glyph-name="Oogonek" unicode="&#x1ea;" 
d="M825 -435q-106 0 -173 55.5t-67 144.5q0 65 33.5 117t108.5 101v15q-45 -24 -127 -24q-231 0 -367 172t-136 461v229q0 298 142.5 467.5t393.5 169.5t393.5 -169.5t142.5 -467.5v-229q0 -198 -55.5 -329t-182.5 -231q-106 -81 -143 -129.5t-37 -105.5q0 -47 34 -76.5
t87 -29.5q50 0 72 7v-129q-48 -19 -119 -19zM633 160q157 0 241.5 116.5t84.5 331.5v227q0 215 -84.5 331.5t-241.5 116.5t-241.5 -116.5t-84.5 -331.5v-227q0 -215 84.5 -331.5t241.5 -116.5z" />
    <glyph glyph-name="oogonek" unicode="&#x1eb;" 
d="M824 -438q-108 0 -177 57.5t-69 147.5q0 61 35.5 117t99.5 94v14q-39 -13 -92 -13q-213 0 -341 131.5t-128 351.5v165q0 222 130 352.5t351 130.5t351 -130.5t130 -352.5v-165q0 -271 -213 -436q-84 -64 -119.5 -114.5t-35.5 -103.5q0 -48 33.5 -77t89.5 -29q39 0 69 7
v-130q-49 -17 -114 -17zM633 940q-131 0 -207 -88t-76 -239v-137q0 -151 76 -239t207 -88t207 88t76 239v137q0 151 -76 239t-207 88z" />
    <glyph glyph-name="Oogonekmacron" unicode="&#x1ec;" 
d="M972 1685h-678v151h678v-151zM825 -435q-106 0 -173 55.5t-67 144.5q0 65 33.5 117t108.5 101v15q-45 -24 -127 -24q-231 0 -367 172t-136 461v229q0 298 142.5 467.5t393.5 169.5t393.5 -169.5t142.5 -467.5v-229q0 -198 -55.5 -329t-182.5 -231q-106 -81 -143 -129.5
t-37 -105.5q0 -47 34 -76.5t87 -29.5q50 0 72 7v-129q-48 -19 -119 -19zM633 160q157 0 241.5 116.5t84.5 331.5v227q0 215 -84.5 331.5t-241.5 116.5t-241.5 -116.5t-84.5 -331.5v-227q0 -215 84.5 -331.5t241.5 -116.5z" />
    <glyph glyph-name="oogonekmacron" unicode="&#x1ed;" 
d="M972 1366h-678v152h678v-152zM824 -438q-108 0 -177 57.5t-69 147.5q0 61 35.5 117t99.5 94v14q-39 -13 -92 -13q-213 0 -341 131.5t-128 351.5v165q0 222 130 352.5t351 130.5t351 -130.5t130 -352.5v-165q0 -271 -213 -436q-84 -64 -119.5 -114.5t-35.5 -103.5
q0 -48 33.5 -77t89.5 -29q39 0 69 7v-130q-49 -17 -114 -17zM633 940q-131 0 -207 -88t-76 -239v-137q0 -151 76 -239t207 -88t207 88t76 239v137q0 151 -76 239t-207 88z" />
    <glyph glyph-name="uni01F1" unicode="&#x1f1;" 
d="M42 1443h189q155 0 243.5 -68.5t129 -223.5t40.5 -426q0 -276 -40 -432t-128.5 -224.5t-244.5 -68.5h-189v1443zM659 0v147l387 1118v14h-364v164h540v-147l-381 -1118v-14h389v-164h-571zM206 1290v-1138h26q94 0 146 53t75 175.5t23 344.5q0 217 -23 338t-75 174
t-146 53h-26z" />
    <glyph glyph-name="uni01F2" unicode="&#x1f2;" 
d="M42 1443h189q155 0 243.5 -68.5t129 -223.5t40.5 -426q0 -276 -40 -432t-128.5 -224.5t-244.5 -68.5h-189v1443zM208 1290v-1138h23q94 0 145.5 53.5t74 175t22.5 344.5q0 218 -22.5 338.5t-74 173.5t-145.5 53h-23zM712 0v132l354 795v15h-343v148h516v-142l-344 -785
v-15h350v-148h-533z" />
    <glyph glyph-name="uni01F3" unicode="&#x1f3;" 
d="M300 -18q-144 0 -208.5 105t-64.5 338v241q0 234 63 338t203 104q83 0 128 -44.5t64 -146.5h19v598h162v-1515h-157v172h-19q-29 -106 -71.5 -148t-118.5 -42zM735 0v132l335 795v15h-330v148h501v-142l-332 -785v-15h336v-148h-510zM348 146q83 0 118 70.5t35 234.5v188
q0 165 -35 235.5t-118 70.5t-118.5 -70.5t-35.5 -235.5v-188q0 -164 35.5 -234.5t118.5 -70.5z" />
    <glyph glyph-name="Gacute" unicode="&#x1f4;" 
d="M529 1610l294 307h233l-320 -307h-207zM953 450v125h-313v168h524v-305q0 -209 -140 -338.5t-365 -129.5q-258 0 -400.5 162.5t-142.5 455.5v267q0 293 142.5 455.5t400.5 162.5q229 0 364.5 -131t140.5 -358h-210q-6 134 -88.5 216t-210.5 82q-162 0 -245.5 -108.5
t-83.5 -318.5v-267q0 -211 84 -319t247 -108q137 0 216.5 77.5t79.5 211.5z" />
    <glyph glyph-name="gacute" unicode="&#x1f5;" 
d="M494 1296l240 343h235l-270 -343h-205zM602 -409q-197 0 -319 79.5t-138 217.5h198q16 -64 87 -102t175 -38q135 0 207 65.5t72 188.5v182h-19q-32 -88 -119 -139t-207 -51q-189 0 -301 125.5t-112 338.5v186q0 214 113.5 339t306.5 125q118 0 203.5 -51t118.5 -140h19
v173h198v-1089q0 -192 -128.5 -301t-354.5 -109zM330 477q0 -140 75 -223t202 -83q126 0 201.5 83.5t75.5 222.5v151q0 140 -75.5 223t-201.5 83q-127 0 -202 -83t-75 -223v-151z" />
    <glyph glyph-name="Ngrave" unicode="&#x1f8;" 
d="M752 1610h-207l-319 307h232zM330 0h-185v1443h194l582 -1079h15v1079h185v-1443h-192l-584 1082h-15v-1082z" />
    <glyph glyph-name="ngrave" unicode="&#x1f9;" 
d="M813 1296h-205l-269 343h234zM175 0v1090h194v-190h14q43 101 132 156t211 55q178 0 271.5 -103.5t93.5 -300.5v-707h-201v657q0 140 -57.5 207.5t-178.5 67.5q-125 0 -202 -80.5t-77 -212.5v-639h-200z" />
    <glyph glyph-name="Aringacute" unicode="&#x1fa;" 
d="M662 2170h196l-136 -178h-173zM633 1542q-83 0 -139.5 56t-56.5 138t56.5 137.5t139.5 55.5t139.5 -55.5t56.5 -137.5t-56.5 -138t-139.5 -56zM633 1636q43 0 71.5 28t28.5 72q0 43 -28.5 71t-71.5 28t-71.5 -28t-28.5 -71t28.5 -71.5t71.5 -28.5zM983 0l-115 398h-480
l-116 -398h-210l455 1443h232l455 -1443h-221zM625 1212l-188 -645h382l-187 645h-7z" />
    <glyph glyph-name="aringacute" unicode="&#x1fb;" 
d="M549 1730l163 241h195l-194 -241h-164zM631 1228q-88 0 -147.5 58.5t-59.5 145.5q0 86 59.5 144.5t147.5 58.5q87 0 146.5 -58.5t59.5 -144.5q0 -87 -59.5 -145.5t-146.5 -58.5zM631 1330q43 0 72 29.5t29 72.5t-29 72t-72 29t-72.5 -29t-29.5 -72q0 -44 29.5 -73
t72.5 -29zM512 -18q-156 0 -251 90t-95 238q0 145 101.5 228.5t292.5 94.5l286 15v96q0 94 -56.5 144.5t-161.5 50.5q-87 0 -146.5 -36t-78.5 -100h-196q15 135 132.5 218.5t292.5 83.5q197 0 305 -94.5t108 -266.5v-745h-191v159h-19q-39 -84 -123.5 -130t-199.5 -46z
M574 149q117 0 194.5 69t77.5 173v115l-259 -13q-109 -6 -165 -50t-56 -124q0 -79 56 -124.5t152 -45.5z" />
    <glyph glyph-name="AEacute" unicode="&#x1fc;" 
d="M698 1610l294 307h232l-319 -307h-207zM632 0v413h-310l-108 -413h-211l407 1443h827v-184h-415v-444h379v-176h-379v-454h415v-185h-605zM542 1248l-173 -659h263v659h-90z" />
    <glyph glyph-name="aeacute" unicode="&#x1fd;" 
d="M528 1296l240 343h234l-269 -343h-205zM1214 307q-31 -160 -112.5 -242.5t-208.5 -82.5q-88 0 -158 58t-105 162h-5q-40 -106 -114.5 -163t-173.5 -57q-125 0 -203 89.5t-78 232.5q0 289 307 321l178 18v89q0 100 -40.5 153.5t-114.5 53.5q-56 0 -94.5 -40t-45.5 -106
h-163q13 141 98.5 227.5t212.5 86.5q86 0 150 -45t96 -129h5q82 174 249 174q155 0 240 -140.5t85 -399.5v-75h-508v-16q1 -153 48.5 -237.5t132.5 -84.5q62 0 102.5 36.5t66.5 116.5h153zM1044 646q-2 144 -42.5 218.5t-117.5 74.5q-73 0 -116.5 -76t-51.5 -217h328z
M362 154q80 0 131 66t51 171v102l-157 -15q-76 -7 -118 -51.5t-42 -117.5q0 -155 135 -155z" />
    <glyph glyph-name="Oslashacute" unicode="&#x1fe;" 
d="M480 1610l294 307h232l-319 -307h-207zM84 0l122 184q-109 163 -109 423v229q0 299 143 468t393 169q209 0 347 -121l61 91h139l-121 -182q110 -162 110 -425v-229q0 -299 -143 -468t-393 -169q-211 0 -348 123l-62 -93h-139zM307 608q0 -130 32 -224l526 794
q-84 105 -232 105q-155 0 -240.5 -116t-85.5 -332v-227zM633 160q155 0 240.5 116t85.5 332v227q0 132 -32 226l-527 -795q84 -106 233 -106z" />
    <glyph glyph-name="oslashacute" unicode="&#x1ff;" 
d="M521 1296l239 343h235l-269 -343h-205zM633 -21q-179 0 -302 89l-53 -68h-136l111 143q-101 126 -101 319v165q0 222 130 352.5t351 130.5q179 0 301 -88l52 68h139l-112 -144q101 -126 101 -319v-165q0 -221 -130.5 -352t-350.5 -131zM633 940q-131 0 -207 -88t-76 -239
v-137q0 -94 31 -167l438 565q-75 66 -186 66zM916 613q0 96 -32 168l-438 -564q74 -68 187 -68q131 0 207 88t76 239v137z" />
    <glyph glyph-name="Adblgrave" unicode="&#x200;" 
d="M561 1610h-191l-302 307h211zM951 1610h-191l-302 307h212zM983 0l-115 398h-480l-116 -398h-210l455 1443h232l455 -1443h-221zM625 1212l-188 -645h382l-187 645h-7z" />
    <glyph glyph-name="adblgrave" unicode="&#x201;" 
d="M536 1296h-186l-242 343h209zM935 1296h-185l-242 343h209zM512 -18q-156 0 -251 90t-95 238q0 145 101.5 228.5t292.5 94.5l286 15v96q0 94 -56.5 144.5t-161.5 50.5q-87 0 -146.5 -36t-78.5 -100h-196q15 135 132.5 218.5t292.5 83.5q197 0 305 -94.5t108 -266.5v-745
h-191v159h-19q-39 -84 -123.5 -130t-199.5 -46zM574 149q117 0 194.5 69t77.5 173v115l-259 -13q-109 -6 -165 -50t-56 -124q0 -79 56 -124.5t152 -45.5z" />
    <glyph glyph-name="Ainvertedbreve" unicode="&#x202;" 
d="M276 1604q0 141 98.5 228.5t258.5 87.5t258.5 -87.5t98.5 -228.5h-154q-1 82 -57.5 134t-145.5 52t-145.5 -52t-57.5 -134h-154zM983 0l-115 398h-480l-116 -398h-210l455 1443h232l455 -1443h-221zM625 1212l-188 -645h382l-187 645h-7z" />
    <glyph glyph-name="ainvertedbreve" unicode="&#x203;" 
d="M631 1452q-93 0 -146 -53.5t-53 -139.5h-167q0 150 99 243t267 93q167 0 266.5 -93t99.5 -243h-167q0 86 -53 139.5t-146 53.5zM512 -18q-156 0 -251 90t-95 238q0 145 101.5 228.5t292.5 94.5l286 15v96q0 94 -56.5 144.5t-161.5 50.5q-87 0 -146.5 -36t-78.5 -100h-196
q15 135 132.5 218.5t292.5 83.5q197 0 305 -94.5t108 -266.5v-745h-191v159h-19q-39 -84 -123.5 -130t-199.5 -46zM574 149q117 0 194.5 69t77.5 173v115l-259 -13q-109 -6 -165 -50t-56 -124q0 -79 56 -124.5t152 -45.5z" />
    <glyph glyph-name="Edblgrave" unicode="&#x204;" 
d="M583 1610h-191l-302 307h211zM974 1610h-192l-301 307h211zM1089 185v-185h-868v1443h868v-185h-659v-437h622v-174h-622v-462h659z" />
    <glyph glyph-name="edblgrave" unicode="&#x205;" 
d="M546 1296h-185l-242 343h209zM946 1296h-185l-242 343h209zM910 288h192q-22 -137 -145 -223t-299 -86q-229 0 -355 128.5t-126 361.5v166q0 215 129 345.5t341 130.5q214 0 336 -133t122 -365v-118h-731v-49q0 -138 77 -220t206 -82q97 0 165 38.5t88 105.5zM645 947
q-127 0 -199 -82.5t-72 -228.5h534q0 146 -69.5 228.5t-193.5 82.5z" />
    <glyph glyph-name="Einvertedbreve" unicode="&#x206;" 
d="M298 1604q0 141 98.5 228.5t258.5 87.5t259 -87.5t99 -228.5h-155q-1 82 -57.5 134t-145.5 52t-145.5 -52t-57.5 -134h-154zM1089 185v-185h-868v1443h868v-185h-659v-437h622v-174h-622v-462h659z" />
    <glyph glyph-name="einvertedbreve" unicode="&#x207;" 
d="M641 1452q-93 0 -145.5 -53.5t-52.5 -139.5h-168q0 150 99.5 243t266.5 93q168 0 267 -93t99 -243h-167q0 86 -52.5 139.5t-146.5 53.5zM910 288h192q-22 -137 -145 -223t-299 -86q-229 0 -355 128.5t-126 361.5v166q0 215 129 345.5t341 130.5q214 0 336 -133t122 -365
v-118h-731v-49q0 -138 77 -220t206 -82q97 0 165 38.5t88 105.5zM645 947q-127 0 -199 -82.5t-72 -228.5h534q0 146 -69.5 228.5t-193.5 82.5z" />
    <glyph glyph-name="Idblgrave" unicode="&#x208;" 
d="M561 1610h-191l-302 307h211zM951 1610h-191l-302 307h212zM1031 0h-796v181h294v1081h-294v181h796v-181h-294v-1081h294v-181z" />
    <glyph glyph-name="idblgrave" unicode="&#x209;" 
d="M559 1290h-186l-242 343h209zM958 1290h-185l-242 343h209zM1111 0h-915v162h367v766h-359v162h555v-928h352v-162z" />
    <glyph glyph-name="Iinvertedbreve" unicode="&#x20a;" 
d="M276 1604q0 141 98.5 228.5t258.5 87.5t258.5 -87.5t98.5 -228.5h-154q-1 82 -57.5 134t-145.5 52t-145.5 -52t-57.5 -134h-154zM1031 0h-796v181h294v1081h-294v181h796v-181h-294v-1081h294v-181z" />
    <glyph glyph-name="iinvertedbreve" unicode="&#x20b;" 
d="M654 1446q-93 0 -145.5 -53.5t-53.5 -140.5h-167q0 150 99 243.5t267 93.5q167 0 266.5 -93.5t99.5 -243.5h-167q0 87 -53 140.5t-146 53.5zM1111 0h-915v162h367v766h-359v162h555v-928h352v-162z" />
    <glyph glyph-name="Odblgrave" unicode="&#x20c;" 
d="M561 1610h-191l-302 307h211zM951 1610h-191l-302 307h212zM1169 607q0 -299 -143 -468t-393 -169t-393 169t-143 468v229q0 299 143 468t393 169t393 -169t143 -468v-229zM633 160q155 0 240.5 116t85.5 332v227q0 216 -85.5 332t-240.5 116t-240.5 -116t-85.5 -332
v-227q0 -216 85.5 -332t240.5 -116z" />
    <glyph glyph-name="odblgrave" unicode="&#x20d;" 
d="M538 1296h-185l-243 343h210zM938 1296h-185l-243 343h210zM633 -21q-220 0 -350.5 131t-130.5 352v165q0 222 130 352.5t351 130.5t351 -130.5t130 -352.5v-165q0 -221 -130.5 -352t-350.5 -131zM633 940q-131 0 -207 -88t-76 -239v-137q0 -151 76 -239t207 -88t207 88
t76 239v137q0 151 -76 239t-207 88z" />
    <glyph glyph-name="Oinvertedbreve" unicode="&#x20e;" 
d="M276 1604q0 141 98.5 228.5t258.5 87.5t258.5 -87.5t98.5 -228.5h-154q-1 82 -57.5 134t-145.5 52t-145.5 -52t-57.5 -134h-154zM1169 607q0 -299 -143 -468t-393 -169t-393 169t-143 468v229q0 299 143 468t393 169t393 -169t143 -468v-229zM633 160q155 0 240.5 116
t85.5 332v227q0 216 -85.5 332t-240.5 116t-240.5 -116t-85.5 -332v-227q0 -216 85.5 -332t240.5 -116z" />
    <glyph glyph-name="oinvertedbreve" unicode="&#x20f;" 
d="M633 1452q-93 0 -145.5 -53.5t-52.5 -139.5h-168q0 150 99.5 243t266.5 93t266.5 -93t99.5 -243h-167q0 86 -53 139.5t-146 53.5zM633 -21q-220 0 -350.5 131t-130.5 352v165q0 222 130 352.5t351 130.5t351 -130.5t130 -352.5v-165q0 -221 -130.5 -352t-350.5 -131z
M633 940q-131 0 -207 -88t-76 -239v-137q0 -151 76 -239t207 -88t207 88t76 239v137q0 151 -76 239t-207 88z" />
    <glyph glyph-name="Rdblgrave" unicode="&#x210;" 
d="M521 1610h-191l-302 307h211zM912 1610h-191l-302 307h211zM672 563h-295v-563h-207v1443h496q221 0 349 -118t128 -323q0 -141 -72 -249.5t-193 -150.5l292 -602h-234zM377 1266v-535h260q142 0 219 69.5t77 197.5q0 127 -76 197.5t-213 70.5h-267z" />
    <glyph glyph-name="rdblgrave" unicode="&#x211;" 
d="M559 1296h-185l-242 343h209zM959 1296h-185l-242 343h209zM597 486v-332h331v-154h-742v154h216v782h-237v154h431v-278h28q64 306 379 306q102 0 157 -23v-220q-84 31 -180 31q-184 0 -283.5 -109.5t-99.5 -310.5z" />
    <glyph glyph-name="Rinvertedbreve" unicode="&#x212;" 
d="M236 1604q0 141 98.5 228.5t258.5 87.5t259 -87.5t99 -228.5h-155q-1 82 -57.5 134t-145.5 52t-145 -52t-57 -134h-155zM672 563h-295v-563h-207v1443h496q221 0 349 -118t128 -323q0 -141 -72 -249.5t-193 -150.5l292 -602h-234zM377 1266v-535h260q142 0 219 69.5
t77 197.5q0 127 -76 197.5t-213 70.5h-267z" />
    <glyph glyph-name="rinvertedbreve" unicode="&#x213;" 
d="M655 1452q-93 0 -146 -53.5t-53 -139.5h-168q0 150 99.5 243t267.5 93q167 0 266.5 -93t99.5 -243h-167q-1 86 -53.5 139.5t-145.5 53.5zM597 486v-332h331v-154h-742v154h216v782h-237v154h431v-278h28q64 306 379 306q102 0 157 -23v-220q-84 31 -180 31
q-184 0 -283.5 -109.5t-99.5 -310.5z" />
    <glyph glyph-name="Udblgrave" unicode="&#x214;" 
d="M559 1610h-191l-302 307h211zM949 1610h-191l-302 307h211zM633 161q147 0 228 93t81 262v927h208v-940q0 -251 -137 -392t-380 -141t-380 141t-137 392v940h208v-927q0 -169 81 -262t228 -93z" />
    <glyph glyph-name="udblgrave" unicode="&#x215;" 
d="M538 1296h-185l-243 343h210zM938 1296h-185l-243 343h210zM1091 1090v-1090h-194v189h-14q-43 -101 -132 -155.5t-211 -54.5q-178 0 -271.5 103.5t-93.5 300.5v707h201v-658q0 -140 57.5 -207t178.5 -67q125 0 202 80.5t77 212.5v639h200z" />
    <glyph glyph-name="Uinvertedbreve" unicode="&#x216;" 
d="M273 1604q0 141 99 228.5t259 87.5t258.5 -87.5t98.5 -228.5h-154q-1 82 -57.5 134t-145.5 52t-145.5 -52t-57.5 -134h-155zM633 161q147 0 228 93t81 262v927h208v-940q0 -251 -137 -392t-380 -141t-380 141t-137 392v940h208v-927q0 -169 81 -262t228 -93z" />
    <glyph glyph-name="uinvertedbreve" unicode="&#x217;" 
d="M633 1452q-93 0 -145.5 -53.5t-52.5 -139.5h-168q0 150 99.5 243t266.5 93t266.5 -93t99.5 -243h-167q0 86 -53 139.5t-146 53.5zM1091 1090v-1090h-194v189h-14q-43 -101 -132 -155.5t-211 -54.5q-178 0 -271.5 103.5t-93.5 300.5v707h201v-658q0 -140 57.5 -207
t178.5 -67q125 0 202 80.5t77 212.5v639h200z" />
    <glyph glyph-name="Scommaaccent" unicode="&#x218;" 
d="M126 390h201q12 -112 96.5 -175.5t222.5 -63.5q137 0 218 64.5t81 173.5q0 88 -62 143t-202 89l-132 31q-199 49 -294 148.5t-95 257.5q0 189 132 302t352 113q211 0 343.5 -111t140.5 -294h-200q-12 106 -86.5 165t-195.5 59q-130 0 -203.5 -58t-73.5 -161
q0 -89 60 -143t194 -86l132 -33q210 -50 304.5 -147t94.5 -261q0 -199 -137.5 -316t-372.5 -117q-230 0 -368.5 112.5t-149.5 307.5zM628 -503h-182l117 359h205z" />
    <glyph glyph-name="scommaaccent" unicode="&#x219;" 
d="M223 789q0 146 113 234.5t300 88.5q179 0 289 -80.5t123 -222.5h-192q-14 67 -73.5 105.5t-149.5 38.5q-96 0 -153.5 -41t-57.5 -109q0 -58 42 -93t138 -56l158 -35q162 -36 237 -108t75 -192q0 -155 -118.5 -247t-318.5 -92q-193 0 -310.5 81.5t-130.5 225.5h202
q16 -70 80.5 -108t163.5 -38q103 0 164 42.5t61 113.5q0 60 -41 94.5t-140 56.5l-163 37q-298 67 -298 304zM607 -503h-182l116 359h206z" />
    <glyph glyph-name="Tcommaaccent" unicode="&#x21a;" 
d="M737 0h-208v1258h-429v185h1066v-185h-429v-1258zM610 -503h-182l117 359h205z" />
    <glyph glyph-name="tcommaaccent" unicode="&#x21b;" 
d="M435 1388h198v-304h431v-165h-428v-589q0 -81 55 -124t159 -43q168 0 208 5v-164q-44 -8 -222 -8q-210 0 -305.5 79.5t-95.5 254.5v589h-288v165h288v304zM717 -503h-182l117 359h205z" />
    <glyph glyph-name="Hcaron" unicode="&#x21e;" 
d="M727 1606h-188l-285 315h200l172 -197h14l172 197h200zM1123 0h-206v643h-568v-643h-206v1443h206v-615h568v615h206v-1443z" />
    <glyph glyph-name="hcaron" unicode="&#x21f;" 
d="M366 1677h-188l-285 316h200l172 -198h14l172 198h200zM173 0v1515h194v-616h15q42 101 131.5 155.5t213.5 54.5q178 0 272 -104t94 -300v-705h-200v656q0 139 -58.5 206.5t-179.5 67.5q-127 0 -204 -80.5t-77 -212.5v-637h-201z" />
    <glyph glyph-name="Adotaccent" unicode="&#x226;" 
d="M633 1628q-55 0 -95.5 41t-40.5 97t40.5 97t95.5 41t95.5 -41t40.5 -97t-40.5 -97t-95.5 -41zM983 0l-115 398h-480l-116 -398h-210l455 1443h232l455 -1443h-221zM625 1212l-188 -645h382l-187 645h-7z" />
    <glyph glyph-name="adotaccent" unicode="&#x227;" 
d="M631 1295q-56 0 -96 40.5t-40 96.5q0 57 40 97.5t96 40.5q55 0 95 -40.5t40 -97.5q0 -56 -40 -96.5t-95 -40.5zM512 -18q-156 0 -251 90t-95 238q0 145 101.5 228.5t292.5 94.5l286 15v96q0 94 -56.5 144.5t-161.5 50.5q-87 0 -146.5 -36t-78.5 -100h-196
q15 135 132.5 218.5t292.5 83.5q197 0 305 -94.5t108 -266.5v-745h-191v159h-19q-39 -84 -123.5 -130t-199.5 -46zM574 149q117 0 194.5 69t77.5 173v115l-259 -13q-109 -6 -165 -50t-56 -124q0 -79 56 -124.5t152 -45.5z" />
    <glyph glyph-name="Ecedilla" unicode="&#x228;" 
d="M535 -236v94l59 142h-373v1443h868v-185h-659v-437h622v-174h-622v-462h659v-185h-352l-51 -126q95 -2 145 -45t50 -123q0 -89 -66 -141.5t-179 -52.5q-68 0 -134 18v117q44 -14 117 -14q113 0 113 68q0 33 -32.5 48t-106.5 15h-58z" />
    <glyph glyph-name="ecedilla" unicode="&#x229;" 
d="M522 -236v94l52 126q-191 23 -294 149t-103 336v166q0 215 129 345.5t341 130.5q214 0 336 -133t122 -365v-118h-731v-49q0 -138 77 -220t206 -82q97 0 165 38.5t88 105.5h192q-20 -126 -125 -209t-261 -97l-43 -108q94 -1 144 -44.5t50 -123.5q0 -89 -66 -141.5
t-179 -52.5q-68 0 -134 18v117q44 -14 117 -14q113 0 113 68q0 33 -32.5 48t-105.5 15h-58zM645 947q-127 0 -199 -82.5t-72 -228.5h534q0 146 -69.5 228.5t-193.5 82.5z" />
    <glyph glyph-name="Odieresismacron" unicode="&#x22a;" 
d="M291 2074h683v-133h-683v133zM429 1806q49 0 83 -35.5t34 -85.5t-34 -85t-83 -35q-48 0 -82.5 35.5t-34.5 84.5q0 50 34.5 85.5t82.5 35.5zM838 1806q49 0 83 -35.5t34 -85.5t-34 -85t-83 -35t-83 35t-34 85t34 85.5t83 35.5zM1169 607q0 -299 -143 -468t-393 -169
t-393 169t-143 468v229q0 299 143 468t393 169t393 -169t143 -468v-229zM633 160q155 0 240.5 116t85.5 332v227q0 216 -85.5 332t-240.5 116t-240.5 -116t-85.5 -332v-227q0 -216 85.5 -332t240.5 -116z" />
    <glyph glyph-name="odieresismacron" unicode="&#x22b;" 
d="M972 1727h-678v151h678v-151zM423 1559q50 0 88 -38.5t38 -90.5t-38 -90.5t-88 -38.5q-51 0 -88.5 38.5t-37.5 90.5t37.5 90.5t88.5 38.5zM843 1559q51 0 88.5 -38.5t37.5 -90.5t-37.5 -90.5t-88.5 -38.5q-50 0 -88 38.5t-38 90.5t38 90.5t88 38.5zM633 -21
q-220 0 -350.5 131t-130.5 352v165q0 222 130 352.5t351 130.5t351 -130.5t130 -352.5v-165q0 -221 -130.5 -352t-350.5 -131zM633 940q-131 0 -207 -88t-76 -239v-137q0 -151 76 -239t207 -88t207 88t76 239v137q0 151 -76 239t-207 88z" />
    <glyph glyph-name="Otildemacron" unicode="&#x22c;" 
d="M974 1947h-682v133h682v-133zM777 1555q-55 0 -98 20.5t-65 44.5t-52.5 44.5t-63.5 20.5q-86 0 -91 -117h-138q0 115 60.5 182.5t159.5 67.5q55 0 98 -20.5t65 -44.5t52.5 -44.5t63.5 -20.5q41 0 65 29.5t27 86.5h137q0 -113 -61.5 -181t-158.5 -68zM1169 607
q0 -299 -143 -468t-393 -169t-393 169t-143 468v229q0 299 143 468t393 169t393 -169t143 -468v-229zM633 160q155 0 240.5 116t85.5 332v227q0 216 -85.5 332t-240.5 116t-240.5 -116t-85.5 -332v-227q0 -216 85.5 -332t240.5 -116z" />
    <glyph glyph-name="otildemacron" unicode="&#x22d;" 
d="M972 1729h-678v151h678v-151zM494 1421q-85 0 -85 -152h-153q0 139 63 220t172 81q52 0 96.5 -24t70.5 -52t56.5 -52t57.5 -24q44 0 64.5 36t21.5 114h153q0 -139 -63.5 -220t-172.5 -81q-42 0 -79 16t-62.5 38.5t-48 45t-45.5 38.5t-46 16zM633 -21q-220 0 -350.5 131
t-130.5 352v165q0 222 130 352.5t351 130.5t351 -130.5t130 -352.5v-165q0 -221 -130.5 -352t-350.5 -131zM633 940q-131 0 -207 -88t-76 -239v-137q0 -151 76 -239t207 -88t207 88t76 239v137q0 151 -76 239t-207 88z" />
    <glyph glyph-name="Odotaccent" unicode="&#x22e;" 
d="M633 1628q-55 0 -95.5 41t-40.5 97t40.5 97t95.5 41t95.5 -41t40.5 -97t-40.5 -97t-95.5 -41zM1169 607q0 -299 -143 -468t-393 -169t-393 169t-143 468v229q0 299 143 468t393 169t393 -169t143 -468v-229zM633 160q155 0 240.5 116t85.5 332v227q0 216 -85.5 332
t-240.5 116t-240.5 -116t-85.5 -332v-227q0 -216 85.5 -332t240.5 -116z" />
    <glyph glyph-name="odotaccent" unicode="&#x22f;" 
d="M633 1295q-55 0 -95.5 40.5t-40.5 96.5q0 57 40.5 97.5t95.5 40.5t95.5 -40.5t40.5 -97.5q0 -56 -40.5 -96.5t-95.5 -40.5zM633 -21q-220 0 -350.5 131t-130.5 352v165q0 222 130 352.5t351 130.5t351 -130.5t130 -352.5v-165q0 -221 -130.5 -352t-350.5 -131zM633 940
q-131 0 -207 -88t-76 -239v-137q0 -151 76 -239t207 -88t207 88t76 239v137q0 151 -76 239t-207 88z" />
    <glyph glyph-name="Odotaccentmacron" unicode="&#x230;" 
d="M292 2074h683v-133h-683v133zM634 1826q52 0 88 -37t36 -90t-36 -90t-88 -37t-88.5 37t-36.5 90t36.5 90t88.5 37zM1169 607q0 -299 -143 -468t-393 -169t-393 169t-143 468v229q0 299 143 468t393 169t393 -169t143 -468v-229zM633 160q155 0 240.5 116t85.5 332v227
q0 216 -85.5 332t-240.5 116t-240.5 -116t-85.5 -332v-227q0 -216 85.5 -332t240.5 -116z" />
    <glyph glyph-name="odotaccentmacron" unicode="&#x231;" 
d="M972 1728h-678v151h678v-151zM633 1283q-55 0 -95.5 41t-40.5 97t40.5 97t95.5 41t95.5 -41t40.5 -97t-40.5 -97t-95.5 -41zM633 -21q-220 0 -350.5 131t-130.5 352v165q0 222 130 352.5t351 130.5t351 -130.5t130 -352.5v-165q0 -221 -130.5 -352t-350.5 -131zM633 940
q-131 0 -207 -88t-76 -239v-137q0 -151 76 -239t207 -88t207 88t76 239v137q0 151 -76 239t-207 88z" />
    <glyph glyph-name="Ymacron" unicode="&#x232;" 
d="M972 1685h-678v151h678v-151zM737 0h-208v579l-476 864h230l343 -648h14l343 648h230l-476 -864v-579z" />
    <glyph glyph-name="ymacron" unicode="&#x233;" 
d="M971 1366h-677v152h677v-152zM322 -390q-43 0 -82 3v169q16 -3 60 -3q79 0 125.5 36.5t76.5 122.5l17 54l-397 1098h220l287 -892h14l285 892h213l-400 -1123q-71 -203 -161.5 -280t-257.5 -77z" />
    <glyph glyph-name="dotlessj" unicode="&#x237;" 
d="M883 1090v-1074q0 -190 -99.5 -271.5t-331.5 -81.5q-186 0 -269 7v175q64 -6 262 -6q137 0 189.5 41.5t52.5 149.5v898h-483v162h679z" />
    <glyph glyph-name="uni02BC" unicode="&#x2bc;" 
d="M624 781h-185l120 662h250z" />
    <glyph glyph-name="circumflex" unicode="&#x2c6;" 
d="M520 1625h226l272 -346h-213l-164 222h-16l-164 -222h-213z" />
    <glyph glyph-name="caron" unicode="&#x2c7;" 
d="M520 1296l-272 346h213l164 -222h16l164 222h213l-272 -346h-226z" />
    <glyph glyph-name="breve" unicode="&#x2d8;" 
d="M633 1387q93 0 146 53.5t53 140.5h167q0 -150 -99.5 -243.5t-266.5 -93.5t-266.5 93.5t-99.5 243.5h168q0 -87 52.5 -140.5t145.5 -53.5z" />
    <glyph glyph-name="dotaccent" unicode="&#x2d9;" 
d="M633 1295q-55 0 -95.5 40.5t-40.5 96.5q0 57 40.5 97.5t95.5 40.5t95.5 -40.5t40.5 -97.5q0 -56 -40.5 -96.5t-95.5 -40.5z" />
    <glyph glyph-name="ring" unicode="&#x2da;" 
d="M633 1248q-95 0 -162 68.5t-67 165.5t67 165.5t162 68.5t162 -68.5t67 -165.5t-67 -165.5t-162 -68.5zM633 1366q48 0 80.5 33.5t32.5 82.5t-32.5 82.5t-80.5 33.5t-80.5 -33.5t-32.5 -82.5t32.5 -82.5t80.5 -33.5z" />
    <glyph glyph-name="ogonek" unicode="&#x2db;" 
d="M816 -283v-135q-44 -22 -125 -22q-110 0 -175.5 56t-65.5 150q0 134 121 234h160q-113 -83 -113 -179q0 -53 33 -83t92 -30q47 0 73 9z" />
    <glyph glyph-name="tilde" unicode="&#x2dc;" 
d="M494 1424q-85 0 -85 -152h-153q0 139 63 220t172 81q42 0 79 -15.5t62.5 -38t48 -45t46 -38t45.5 -15.5q44 0 64.5 36t21.5 114h153q0 -139 -63.5 -219.5t-172.5 -80.5q-52 0 -96.5 24t-70 52.5t-56.5 52.5t-58 24z" />
    <glyph glyph-name="hungarumlaut" unicode="&#x2dd;" 
d="M619 1296l218 343h210l-243 -343h-185zM219 1296l218 343h210l-243 -343h-185z" />
    <glyph glyph-name="gravecmb" unicode="&#x300;" 
d="M870 1296h-205l-269 343h235z" />
    <glyph glyph-name="acutecmb" unicode="&#x301;" horiz-adv-x="0" 
d="M-112 1296l240 343h235l-270 -343h-205z" />
    <glyph glyph-name="circumflexcmb" unicode="&#x302;" 
d="M520 1625h226l272 -346h-213l-164 222h-16l-164 -222h-213z" />
    <glyph glyph-name="tildecmb" unicode="&#x303;" 
d="M494 1419q-85 0 -85 -153h-153q0 140 63 221t172 81q52 0 96.5 -24t70.5 -52t56.5 -52t57.5 -24q44 0 64.5 36t21.5 113h153q0 -138 -63.5 -219t-172.5 -81q-42 0 -79 16t-62.5 38.5t-48 45t-45.5 38.5t-46 16z" />
    <glyph glyph-name="macroncmb" unicode="&#x304;" 
d="M972 1366h-678v152h678v-152z" />
    <glyph glyph-name="brevecmb" unicode="&#x306;" 
d="M633 1387q93 0 146 53.5t53 140.5h167q0 -150 -99.5 -243.5t-266.5 -93.5t-266.5 93.5t-99.5 243.5h168q0 -87 52.5 -140.5t145.5 -53.5z" />
    <glyph glyph-name="dotaccentcmb" unicode="&#x307;" 
d="M633 1295q-55 0 -95.5 40.5t-40.5 96.5q0 57 40.5 97.5t95.5 40.5t95.5 -40.5t40.5 -97.5q0 -56 -40.5 -96.5t-95.5 -40.5z" />
    <glyph glyph-name="dieresiscmb" unicode="&#x308;" 
d="M423 1296q-51 0 -88.5 38.5t-37.5 91.5q0 52 37.5 90.5t88.5 38.5q50 0 88 -38.5t38 -90.5t-38 -91t-88 -39zM843 1296q-50 0 -88 39t-38 91t38 90.5t88 38.5q51 0 88.5 -38.5t37.5 -90.5q0 -53 -37.5 -91.5t-88.5 -38.5z" />
    <glyph glyph-name="hookabovecmb" unicode="&#x309;" 
d="M459 1496v124q63 28 147 28q95 0 154.5 -52.5t59.5 -137.5q0 -73 -46 -130.5t-128 -89.5l-74 95q46 16 74 45t28 62q0 35 -29 57.5t-75 22.5q-61 0 -111 -24z" />
    <glyph glyph-name="ringcmb" unicode="&#x30a;" 
d="M633 1248q-95 0 -162 68.5t-67 165.5t67 165.5t162 68.5t162 -68.5t67 -165.5t-67 -165.5t-162 -68.5zM633 1366q48 0 80.5 33.5t32.5 82.5t-32.5 82.5t-80.5 33.5t-80.5 -33.5t-32.5 -82.5t32.5 -82.5t80.5 -33.5z" />
    <glyph glyph-name="hungarumlautcmb" unicode="&#x30b;" 
d="M619 1296l218 343h210l-243 -343h-185zM219 1296l218 343h210l-243 -343h-185z" />
    <glyph glyph-name="caroncmb" unicode="&#x30c;" 
d="M520 1296l-272 346h213l164 -222h16l164 222h213l-272 -346h-226z" />
    <glyph glyph-name="dblgravecmb" unicode="&#x30f;" 
d="M647 1296h-185l-243 343h210zM1047 1296h-185l-243 343h210z" />
    <glyph glyph-name="invertedbrevecmb" unicode="&#x311;" 
d="M633 1452q-93 0 -145.5 -53.5t-52.5 -139.5h-168q0 150 99.5 243t266.5 93t266.5 -93t99.5 -243h-167q0 86 -53 139.5t-146 53.5z" />
    <glyph glyph-name="horncmb" unicode="&#x31b;" 
d="M633 957v153q28 -25 75 -23q58 2 85 36.5t27 109.5v148h168v-192q0 -119 -66 -189t-175 -70q-76 0 -114 27z" />
    <glyph glyph-name="dotbelowcmb" unicode="&#x323;" 
d="M633 -458q-55 0 -95.5 41t-40.5 97t40.5 97t95.5 41t95.5 -41t40.5 -97t-40.5 -97t-95.5 -41z" />
    <glyph glyph-name="dieresisbelowcmb" unicode="&#x324;" 
d="M423 -449q-51 0 -88.5 38.5t-37.5 90.5t37.5 90.5t88.5 38.5q50 0 88 -38.5t38 -90.5t-38 -90.5t-88 -38.5zM843 -449q-50 0 -88 38.5t-38 90.5t38 90.5t88 38.5q51 0 88.5 -38.5t37.5 -90.5t-37.5 -90.5t-88.5 -38.5z" />
    <glyph glyph-name="ringbelowcmb" unicode="&#x325;" 
d="M633 -581q-95 0 -162 68.5t-67 165.5t67 165.5t162 68.5t162 -68.5t67 -165.5t-67 -165.5t-162 -68.5zM633 -463q48 0 80.5 33.5t32.5 82.5t-32.5 82.5t-80.5 33.5t-80.5 -33.5t-32.5 -82.5t32.5 -82.5t80.5 -33.5z" />
    <glyph glyph-name="commabelowcmb" unicode="&#x326;" 
d="M652 -516h-182l116 359h205z" />
    <glyph glyph-name="cedillacmb" unicode="&#x327;" 
d="M513 -236v94l59 142h143l-51 -126q95 -2 145 -45t50 -123q0 -89 -66 -141.5t-179 -52.5q-68 0 -134 18v117q44 -14 117 -14q113 0 113 68q0 33 -32.5 48t-106.5 15h-58z" />
    <glyph glyph-name="ogonekcmb" unicode="&#x328;" 
d="M919 -283v-135q-42 -22 -124 -22q-110 0 -176 56t-66 150q0 134 121 234h161q-113 -82 -113 -179q0 -53 33 -83t92 -30q46 0 72 9z" />
    <glyph glyph-name="circumflexbelowcmb" unicode="&#x32d;" 
d="M520 -164h226l272 -346h-213l-164 221h-16l-164 -221h-213z" />
    <glyph glyph-name="brevebelowcmb" unicode="&#x32e;" 
d="M633 -333q93 0 146 53.5t53 140.5h167q0 -150 -99.5 -243.5t-266.5 -93.5t-266.5 93.5t-99.5 243.5h168q0 -87 52.5 -140.5t145.5 -53.5z" />
    <glyph glyph-name="tildebelowcmb" unicode="&#x330;" 
d="M494 -314q-85 0 -85 -153h-153q0 140 63 221t172 81q52 0 96.5 -24t70.5 -52.5t56.5 -52.5t57.5 -24q44 0 64.5 36t21.5 114h153q0 -138 -63.5 -219t-172.5 -81q-42 0 -79 16t-62.5 38.5t-48 45t-45.5 38.5t-46 16z" />
    <glyph glyph-name="macronbelowcmb" unicode="&#x331;" 
d="M972 -401h-678v152h678v-152z" />
    <glyph glyph-name="greekquestionmark" unicode="&#x37e;" 
d="M633 756q-79 0 -135.5 57.5t-56.5 137.5q0 81 56.5 138.5t135.5 57.5t135.5 -57.5t56.5 -138.5q0 -80 -56.5 -137.5t-135.5 -57.5zM563 -337h-185l120 662h250z" />
    <glyph glyph-name="tonosgreek" unicode="&#x384;" 
d="M490 1286l81 354h234l-139 -354h-176z" />
    <glyph glyph-name="dieresistonosgreek" unicode="&#x385;" 
d="M511 1286l29 354h234l-87 -354h-176zM307 1308q-50 0 -86 37t-36 88t36 88t86 37q49 0 85.5 -37t36.5 -88t-36.5 -88t-85.5 -37zM959 1308q-49 0 -85.5 37t-36.5 88t36.5 88t85.5 37q50 0 86 -37t36 -88t-36 -88t-86 -37z" />
    <glyph glyph-name="Alphatonosgreek" unicode="&#x386;" 
d="M962 0l-95 398h-393l-96 -398h-207l388 1443h232l390 -1443h-219zM92 1092l82 351h202l-133 -351h-151zM667 1197l-152 -630h311l-151 630h-8z" />
    <glyph glyph-name="anoteleia" unicode="&#x387;" 
d="M634 774q-68 0 -113 45t-45 113t45 113t113 45q69 0 113 -44.5t44 -113.5t-44 -113.5t-113 -44.5z" />
    <glyph glyph-name="Epsilontonosgreek" unicode="&#x388;" 
d="M1130 185v-185h-675v1443h675v-185h-473v-437h436v-174h-436v-462h473zM48 1092l82 351h202l-133 -351h-151z" />
    <glyph glyph-name="Etatonosgreek" unicode="&#x389;" 
d="M1179 0h-185v646h-382v-646h-186v1443h186v-617h382v617h185v-1443zM31 1092l83 351h201l-133 -351h-151z" />
    <glyph glyph-name="Iotatonosgreek" unicode="&#x38a;" 
d="M1184 0h-716v181h263v1081h-263v181h716v-181h-264v-1081h264v-181zM93 1092l83 351h201l-133 -351h-151z" />
    <glyph glyph-name="Omicrontonosgreek" unicode="&#x38c;" 
d="M1200 607q0 -312 -111.5 -474.5t-323.5 -162.5t-323 162.5t-111 474.5v229q0 312 111 474.5t323 162.5t323.5 -162.5t111.5 -474.5v-229zM54 1092l82 351h201l-133 -351h-150zM765 160q121 0 183.5 110t62.5 324v255q0 214 -62.5 324t-183.5 110q-120 0 -183 -110.5
t-63 -323.5v-255q0 -213 63 -323.5t183 -110.5z" />
    <glyph glyph-name="Upsilontonosgreek" unicode="&#x38e;" 
d="M906 0h-196v571l-342 872h211l222 -648h13l221 648h212l-341 -872v-571zM38 1092l83 351h201l-133 -351h-151z" />
    <glyph glyph-name="Omegatonosgreek" unicode="&#x38f;" 
d="M742 1473q233 0 359 -173.5t126 -495.5q0 -223 -67 -382.5t-197 -238.5v-14h266v-169h-428v253q127 81 183 206.5t56 341.5q0 482 -298 482q-299 0 -299 -482q0 -216 56 -341t183 -207v-253h-428v169h266v14q-131 79 -197.5 238.5t-66.5 382.5q0 322 126 495.5t360 173.5
zM7 1092l82 351h201l-132 -351h-151z" />
    <glyph glyph-name="iotadieresistonosgreek" unicode="&#x390;" 
d="M488 1286l30 354h233l-87 -354h-176zM284 1308q-50 0 -86 37t-36 88t36 88t86 37q49 0 85.5 -37t36.5 -88t-36.5 -88t-85.5 -37zM937 1308q-50 0 -86.5 37t-36.5 88t36.5 88t86.5 37q49 0 85.5 -37t36.5 -88t-36.5 -88t-85.5 -37zM897 -7q-191 0 -278 71.5t-87 234.5v626
h-352v165h553v-770q0 -85 46 -122.5t151 -37.5q82 0 164 14v-160q-94 -21 -197 -21z" />
    <glyph glyph-name="Alphagreek" unicode="&#x391;" 
d="M983 0l-115 398h-480l-116 -398h-210l455 1443h232l455 -1443h-221zM625 1212l-188 -645h382l-187 645h-7z" />
    <glyph glyph-name="Betagreek" unicode="&#x392;" 
d="M668 0h-493v1443h486q202 0 316.5 -95t114.5 -262q0 -119 -70.5 -207.5t-181.5 -107.5v-15q145 -13 234.5 -110t89.5 -241q0 -190 -132 -297.5t-364 -107.5zM380 1273v-445h207q143 0 219.5 57t76.5 164t-71 165.5t-202 58.5h-230zM380 172h236q332 0 332 249
q0 121 -85 182.5t-252 61.5h-231v-493z" />
    <glyph glyph-name="Gammagreek" unicode="&#x393;" 
d="M249 0v1443h869v-185h-661v-1258h-208z" />
    <glyph glyph-name="Deltagreek" unicode="&#x394;" 
d="M81 0v132l436 1311h232l436 -1311v-132h-1104zM302 185h651v14l-321 1016h-7l-323 -1016v-14z" />
    <glyph glyph-name="Deltagreek" unicode="&#x2206;" 
d="M81 0v132l436 1311h232l436 -1311v-132h-1104zM302 185h651v14l-321 1016h-7l-323 -1016v-14z" />
    <glyph glyph-name="Deltagreek" unicode="&#x2206;" 
d="M81 0v132l436 1311h232l436 -1311v-132h-1104zM302 185h651v14l-321 1016h-7l-323 -1016v-14z" />
    <glyph glyph-name="Epsilongreek" unicode="&#x395;" 
d="M1089 185v-185h-868v1443h868v-185h-659v-437h622v-174h-622v-462h659z" />
    <glyph glyph-name="Zetagreek" unicode="&#x396;" 
d="M136 0v147l727 1097v14h-704v185h965v-147l-726 -1097v-14h741v-185h-1003z" />
    <glyph glyph-name="Etagreek" unicode="&#x397;" 
d="M1123 0h-206v643h-568v-643h-206v1443h206v-615h568v615h206v-1443z" />
    <glyph glyph-name="Thetagreek" unicode="&#x398;" 
d="M1183 607q0 -296 -147 -466.5t-403 -170.5t-403 170.5t-147 466.5v229q0 296 147 466.5t403 170.5t403 -170.5t147 -466.5v-229zM633 160q163 0 257 119.5t94 328.5v227q0 209 -94 328.5t-257 119.5t-257 -119.5t-94 -328.5v-227q0 -209 94 -328.5t257 -119.5zM401 629
v182h464v-182h-464z" />
    <glyph glyph-name="Iotagreek" unicode="&#x399;" 
d="M1031 0h-796v181h294v1081h-294v181h796v-181h-294v-1081h294v-181z" />
    <glyph glyph-name="Kappagreek" unicode="&#x39a;" 
d="M401 0h-202v1443h202v-701h13l561 701h233l-522 -638l568 -805h-252l-458 651l-143 -174v-477z" />
    <glyph glyph-name="Lambdagreek" unicode="&#x39b;" 
d="M76 0l441 1443h232l441 -1443h-221l-337 1205h-7l-339 -1205h-210z" />
    <glyph glyph-name="Mugreek" unicode="&#x39c;" 
d="M288 533v-533h-181v1443h226l293 -877h14l292 877h227v-1443h-181v533l17 582h-15l-270 -776h-154l-270 776h-15z" />
    <glyph glyph-name="Nugreek" unicode="&#x39d;" 
d="M330 0h-185v1443h194l582 -1079h15v1079h185v-1443h-192l-584 1082h-15v-1082z" />
    <glyph glyph-name="Xigreek" unicode="&#x39e;" 
d="M155 1253v190h956v-190h-956zM236 637v188h795v-188h-795zM155 0v190h956v-190h-956z" />
    <glyph glyph-name="Omicrongreek" unicode="&#x39f;" 
d="M1169 607q0 -299 -143 -468t-393 -169t-393 169t-143 468v229q0 299 143 468t393 169t393 -169t143 -468v-229zM633 160q155 0 240.5 116t85.5 332v227q0 216 -85.5 332t-240.5 116t-240.5 -116t-85.5 -332v-227q0 -216 85.5 -332t240.5 -116z" />
    <glyph glyph-name="Pigreek" unicode="&#x3a0;" 
d="M150 0v1443h966v-1443h-209v1258h-548v-1258h-209z" />
    <glyph glyph-name="Rhogreek" unicode="&#x3a1;" 
d="M183 1443h494q215 0 344.5 -128.5t129.5 -342.5t-131 -342t-349 -128h-279v-502h-209v1443zM392 1265v-586h234q152 0 232.5 75t80.5 218t-80.5 218t-232.5 75h-234z" />
    <glyph glyph-name="Sigmagreek" unicode="&#x3a3;" 
d="M131 0v142l373 586l-354 550v165h925v-185h-662v-14l312 -495v-29l-333 -521v-14h702v-185h-963z" />
    <glyph glyph-name="Taugreek" unicode="&#x3a4;" 
d="M737 0h-208v1258h-429v185h1066v-185h-429v-1258z" />
    <glyph glyph-name="Upsilongreek" unicode="&#x3a5;" 
d="M737 0h-208v579l-476 864h230l343 -648h14l343 648h230l-476 -864v-579z" />
    <glyph glyph-name="Phigreek" unicode="&#x3a6;" 
d="M538 -84v153q-236 11 -360.5 177.5t-124.5 470.5t124.5 470.5t360.5 177.5v151h190v-151q236 -11 360.5 -177.5t124.5 -470.5t-124.5 -470.5t-360.5 -177.5v-153h-190zM544 233v969q-308 -21 -308 -485t308 -484zM722 233q308 20 308 484t-308 485v-969z" />
    <glyph glyph-name="Chigreek" unicode="&#x3a7;" 
d="M59 0l449 725l-446 718h233l341 -562h9l344 562h218l-457 -722l451 -721h-227l-345 553h-9l-348 -553h-213z" />
    <glyph glyph-name="Psigreek" unicode="&#x3a8;" 
d="M533 0v323q-244 11 -348 137.5t-104 415.5v567h185v-552q0 -150 26 -233t84.5 -120.5t163.5 -41.5v947h186v-947q105 4 163.5 41.5t84.5 120.5t26 233v552h185v-567q0 -289 -104.5 -415.5t-347.5 -137.5v-323h-200z" />
    <glyph glyph-name="Omegagreek" unicode="&#x3a9;" 
d="M633 1473q278 0 430.5 -176t152.5 -498q0 -207 -81 -361.5t-236 -242.5v-15h325v-180h-525v232q163 84 238 216.5t75 337.5q0 497 -379 497t-379 -497q0 -205 75 -337.5t238 -216.5v-232h-525v180h325v15q-155 88 -236 242.5t-81 361.5q0 322 152.5 498t430.5 176z" />
    <glyph glyph-name="Omegagreek" unicode="&#x2126;" 
d="M633 1473q278 0 430.5 -176t152.5 -498q0 -207 -81 -361.5t-236 -242.5v-15h325v-180h-525v232q163 84 238 216.5t75 337.5q0 497 -379 497t-379 -497q0 -205 75 -337.5t238 -216.5v-232h-525v180h325v15q-155 88 -236 242.5t-81 361.5q0 322 152.5 498t430.5 176z" />
    <glyph glyph-name="Omegagreek" unicode="&#x2126;" 
d="M633 1473q278 0 430.5 -176t152.5 -498q0 -207 -81 -361.5t-236 -242.5v-15h325v-180h-525v232q163 84 238 216.5t75 337.5q0 497 -379 497t-379 -497q0 -205 75 -337.5t238 -216.5v-232h-525v180h325v15q-155 88 -236 242.5t-81 361.5q0 322 152.5 498t430.5 176z" />
    <glyph glyph-name="Iotadieresisgreek" unicode="&#x3aa;" 
d="M423 1643q-51 0 -88.5 38.5t-37.5 90.5t37.5 90.5t88.5 38.5q50 0 88 -38.5t38 -90.5t-38 -90.5t-88 -38.5zM843 1643q-50 0 -88 38.5t-38 90.5t38 90.5t88 38.5q51 0 88.5 -38.5t37.5 -90.5t-37.5 -90.5t-88.5 -38.5zM1031 0h-796v181h294v1081h-294v181h796v-181h-294
v-1081h294v-181z" />
    <glyph glyph-name="Upsilondieresisgreek" unicode="&#x3ab;" 
d="M423 1643q-51 0 -88.5 38.5t-37.5 90.5t37.5 90.5t88.5 38.5q50 0 88 -38.5t38 -90.5t-38 -90.5t-88 -38.5zM843 1643q-50 0 -88 38.5t-38 90.5t38 90.5t88 38.5q51 0 88.5 -38.5t37.5 -90.5t-37.5 -90.5t-88.5 -38.5zM737 0h-208v579l-476 864h230l343 -648h14l343 648
h230l-476 -864v-579z" />
    <glyph glyph-name="alphatonosgreek" unicode="&#x3ac;" 
d="M492 1286l81 354h234l-139 -354h-176zM859 168h-19q-36 -89 -115 -137.5t-195 -48.5q-185 0 -296.5 128.5t-111.5 341.5v186q0 214 111 341.5t296 127.5q113 0 192 -47.5t116 -133.5h19v164h191v-804q0 -69 21.5 -99t70.5 -30q26 0 56 7v-160q-34 -14 -116 -14
q-96 0 -153 45.5t-67 132.5zM588 160q123 0 194 84.5t71 227.5v150q0 143 -71 227.5t-194 84.5t-196.5 -85t-73.5 -227v-150q0 -142 73.5 -227t196.5 -85z" />
    <glyph glyph-name="epsilontonosgreek" unicode="&#x3ad;" 
d="M557 1286l80 354h234l-139 -354h-175zM613 -21q-219 0 -336.5 82t-117.5 232q0 192 200 251v16q-178 58 -178 235q0 141 115.5 228.5t340.5 87.5q435 0 483 -355h-198q-20 98 -93 141.5t-198 43.5q-117 0 -185 -41.5t-68 -117.5q0 -74 59.5 -112.5t173.5 -38.5h151v-156
h-152q-117 0 -181 -41t-64 -117q0 -82 68.5 -123.5t186.5 -41.5q130 0 212.5 50t105.5 140h205q-26 -159 -173 -261t-357 -102z" />
    <glyph glyph-name="etatonosgreek" unicode="&#x3ae;" 
d="M453 1286l80 354h234l-139 -354h-175zM230 0v810q0 66 -22 95.5t-75 29.5q-19 0 -55 -6v160q36 13 107 13q109 0 164 -48t67 -151l2 -11h14q42 105 131 162t212 57q170 0 261.5 -104.5t91.5 -299.5v-1073h-200v1031q0 135 -56.5 201t-172.5 66q-122 0 -195.5 -77
t-73.5 -207v-648h-200z" />
    <glyph glyph-name="iotatonosgreek" unicode="&#x3af;" 
d="M531 1286l81 354h233l-139 -354h-175zM897 -7q-191 0 -278 71.5t-87 234.5v626h-352v165h553v-770q0 -85 46 -122.5t151 -37.5q82 0 164 14v-160q-94 -21 -197 -21z" />
    <glyph glyph-name="upsilondieresistonosgreek" unicode="&#x3b0;" 
d="M482 1286l29 354h234l-87 -354h-176zM278 1308q-50 0 -86.5 37t-36.5 88t36.5 88t86.5 37q49 0 85.5 -37t36.5 -88t-36.5 -88t-85.5 -37zM930 1308q-49 0 -85.5 37t-36.5 88t36.5 88t85.5 37q50 0 86 -37t36 -88t-36 -88t-86 -37zM637 -21q-455 2 -455 453v658h193v-636
q0 -296 258 -296q282 0 282 395q0 312 -99 537h199q45 -92 72 -234.5t27 -282.5q0 -286 -121.5 -440t-355.5 -154z" />
    <glyph glyph-name="alphagreek" unicode="&#x3b1;" 
d="M859 168h-19q-36 -89 -115 -137.5t-195 -48.5q-185 0 -296.5 128.5t-111.5 341.5v186q0 214 111 341.5t296 127.5q113 0 192 -47.5t116 -133.5h19v164h191v-804q0 -69 21.5 -99t70.5 -30q26 0 56 7v-160q-34 -14 -116 -14q-96 0 -153 45.5t-67 132.5zM588 160
q123 0 194 84.5t71 227.5v150q0 143 -71 227.5t-194 84.5t-196.5 -85t-73.5 -227v-150q0 -142 73.5 -227t196.5 -85z" />
    <glyph glyph-name="betagreek" unicode="&#x3b2;" 
d="M175 -366v1437q0 219 117.5 341.5t328.5 122.5q194 0 304.5 -104.5t110.5 -283.5q0 -110 -58 -194t-158 -117v-15q158 -33 239 -132t81 -258q0 -199 -113 -324t-300 -125q-262 0 -339 191h-19v-539h-194zM677 157q120 0 192.5 78.5t72.5 205.5q0 136 -87 212t-242 76
h-102v171h89q116 0 181.5 61.5t65.5 171.5q0 106 -60 168.5t-166 62.5q-125 0 -189.5 -79t-64.5 -232v-578q0 -157 82 -237.5t228 -80.5z" />
    <glyph glyph-name="gammagreek" unicode="&#x3b3;" 
d="M479 -349v309l-375 1130h215l275 -897h15q149 210 212.5 370.5t63.5 327.5q0 107 -21 199h198q21 -87 21 -198q0 -197 -95 -415t-311 -504v-322h-198z" />
    <glyph glyph-name="deltagreek" unicode="&#x3b4;" 
d="M1142 520v-31q0 -237 -136.5 -373.5t-370.5 -136.5q-242 0 -376 131.5t-134 369.5v35q0 188 106 316t290 152v18q-114 56 -163.5 118.5t-49.5 147.5q0 119 101.5 193.5t272.5 74.5q218 0 356 -76v-175q-169 86 -338 86q-89 0 -141 -30.5t-52 -86.5q0 -48 40 -85.5
t149 -88.5q240 -117 343 -240t103 -319zM638 860q-143 0 -227.5 -89.5t-84.5 -248.5v-40q0 -162 82 -247.5t232 -85.5q145 0 224 89.5t79 252.5v30q0 153 -84 246t-221 93z" />
    <glyph glyph-name="epsilongreek" unicode="&#x3b5;" 
d="M613 -21q-219 0 -336.5 82.5t-117.5 231.5q0 193 200 252v15q-178 60 -178 235q0 142 115.5 229.5t340.5 87.5q435 0 483 -356h-198q-20 99 -93 142.5t-198 43.5q-117 0 -185 -42t-68 -118q0 -73 60 -112t173 -39h151v-155h-152q-117 0 -181 -41t-64 -117
q0 -82 68.5 -123.5t186.5 -41.5q130 0 212.5 50t105.5 140h205q-26 -160 -173 -262t-357 -102z" />
    <glyph glyph-name="zetagreek" unicode="&#x3b6;" 
d="M950 -361l-153 60q81 116 81 187q0 54 -36.5 87t-154.5 79q-120 47 -200.5 91.5t-146.5 105.5t-97.5 141t-31.5 183q0 196 138 377t435 376v16h-502v173h807v-158q-179 -119 -298.5 -211t-208 -185.5t-129 -182t-40.5 -183.5q0 -134 81.5 -213.5t277.5 -156.5
q174 -68 239 -126.5t65 -162.5q0 -131 -126 -297z" />
    <glyph glyph-name="etagreek" unicode="&#x3b7;" 
d="M230 0v810q0 66 -22 95.5t-75 29.5q-19 0 -55 -6v160q36 13 107 13q109 0 164 -48t67 -151l2 -11h14q42 105 131 162t212 57q170 0 261.5 -104.5t91.5 -299.5v-1073h-200v1031q0 135 -56.5 201t-172.5 66q-122 0 -195.5 -77t-73.5 -207v-648h-200z" />
    <glyph glyph-name="thetagreek" unicode="&#x3b8;" 
d="M633 -21q-507 0 -507 779q0 777 507 777t507 -777q0 -779 -507 -779zM325 850h616q-12 515 -308 515q-149 0 -225 -127t-83 -388zM633 150q153 0 229 129t80 398h-617q4 -269 80 -398t228 -129z" />
    <glyph glyph-name="iotagreek" unicode="&#x3b9;" 
d="M897 -7q-191 0 -278 71.5t-87 234.5v626h-352v165h553v-770q0 -85 46 -122.5t151 -37.5q82 0 164 14v-160q-94 -21 -197 -21z" />
    <glyph glyph-name="kappagreek" unicode="&#x3ba;" 
d="M188 0v1090h193v-549h14l347 390q84 98 145 134.5t145 36.5q52 0 100 -13v-162q-30 8 -63 8q-52 0 -89.5 -23.5t-100.5 -92.5l-158 -175l446 -644h-222l-354 508l-210 -217v-291h-193z" />
    <glyph glyph-name="lambdagreek" unicode="&#x3bb;" 
d="M99 0l452 1034l-44 118q-50 131 -96 174t-138 43q-28 0 -60 -7v160q49 13 109 13q139 0 214.5 -75t152.5 -289l330 -903q22 -60 52 -85.5t80 -25.5q30 0 58 7v-160q-36 -14 -110 -14q-105 0 -158 42.5t-93 157.5l-207 583h-14l-318 -773h-210z" />
    <glyph glyph-name="nugreek" unicode="&#x3bd;" 
d="M700 0h-230l-363 1090h215l275 -898h15q149 212 212.5 373t63.5 327q0 107 -21 198h198q22 -88 22 -196q0 -196 -91.5 -407.5t-295.5 -486.5z" />
    <glyph glyph-name="xigreek" unicode="&#x3be;" 
d="M991 -361l-152 60q81 115 81 188q0 52 -36.5 85.5t-149.5 77.5q-144 56 -232 99t-152 93.5t-90 107t-26 131.5q0 123 78 201t210 107v15q-115 42 -170.5 107.5t-55.5 166.5q0 91 58.5 157t170.5 91v16h-228v173h795v-154l-138 -13q-94 -9 -161.5 -20.5t-127.5 -30
t-96.5 -44t-57.5 -62.5t-21 -86q0 -101 92.5 -151t265.5 -50h166v-167h-178q-398 0 -398 -224q0 -25 3.5 -45.5t16 -40t24 -34t40 -32.5t51.5 -31t71 -34.5t85.5 -37t106.5 -43.5q161 -65 221 -123t60 -157q0 -132 -126 -296z" />
    <glyph glyph-name="omicrongreek" unicode="&#x3bf;" 
d="M633 -21q-220 0 -350.5 131t-130.5 352v165q0 222 130 352.5t351 130.5t351 -130.5t130 -352.5v-165q0 -221 -130.5 -352t-350.5 -131zM633 940q-131 0 -207 -88t-76 -239v-137q0 -151 76 -239t207 -88t207 88t76 239v137q0 151 -76 239t-207 88z" />
    <glyph glyph-name="pigreek" unicode="&#x3c0;" 
d="M259 0v914h-216v176h1170v-176h-208v-635q0 -67 22 -94.5t79 -27.5q25 0 56 7v-160q-39 -14 -109 -14q-123 0 -180 66t-57 206v652h-368v-914h-189z" />
    <glyph glyph-name="rhogreek" unicode="&#x3c1;" 
d="M166 -366v919q0 269 127 413.5t364 144.5q236 0 365.5 -146.5t129.5 -411.5q0 -271 -117.5 -421t-330.5 -150q-241 0 -318 191h-20v-539h-200zM660 157q140 0 216 101t76 293q0 194 -75.5 291.5t-219.5 97.5q-293 0 -293 -398q0 -176 79.5 -280.5t216.5 -104.5z" />
    <glyph glyph-name="sigmafinalgreek" unicode="&#x3c2;" 
d="M1040 -64q0 -131 -126 -297l-153 60q81 116 81 187q0 54 -36.5 87.5t-154.5 78.5q-98 38 -165.5 71.5t-130 81t-99.5 103t-58.5 132t-21.5 172.5q0 229 132 364.5t367 135.5q194 0 310 -100t137 -273h-197q-17 91 -84 145.5t-175 54.5q-143 0 -216 -90t-73 -224
q0 -83 19.5 -142t67.5 -105.5t109.5 -79.5t162.5 -73q174 -68 239 -126.5t65 -162.5z" />
    <glyph glyph-name="sigmagreek" unicode="&#x3c3;" 
d="M1079 462q0 -221 -129.5 -352t-348.5 -131q-218 0 -347.5 131t-129.5 352v145q0 221 129.5 352t347.5 131h623v-176h-290v-15q70 -50 107.5 -127t37.5 -168v-142zM601 914q-128 0 -203.5 -88t-75.5 -237v-115q0 -150 75.5 -237.5t203.5 -87.5q129 0 204.5 87.5
t75.5 237.5v115q0 149 -75.5 237t-204.5 88z" />
    <glyph glyph-name="taugreek" unicode="&#x3c4;" 
d="M827 -7q-185 0 -265.5 66.5t-80.5 220.5v634h-384v176h1019v-176h-435v-590q0 -89 41 -126t137 -37q54 0 110 7v-162q-61 -13 -142 -13z" />
    <glyph glyph-name="upsilongreek" unicode="&#x3c5;" 
d="M637 -21q-455 2 -455 453v658h193v-636q0 -296 258 -296q282 0 282 395q0 312 -99 537h199q45 -92 72 -234.5t27 -282.5q0 -286 -121.5 -440t-355.5 -154z" />
    <glyph glyph-name="phigreek" unicode="&#x3c6;" 
d="M545 -366v345q-238 16 -364.5 162t-126.5 403q0 260 126.5 406t364.5 161v250h176v-250q237 -15 364 -161.5t127 -405.5q0 -257 -126.5 -403t-364.5 -162v-345h-176zM717 130q317 27 317 414q0 391 -317 415v-829zM549 130v829q-157 -12 -237 -117t-80 -298
q0 -387 317 -414z" />
    <glyph glyph-name="chigreek" unicode="&#x3c7;" 
d="M138 -366l404 728l-235 454q-35 68 -64.5 93.5t-77.5 25.5q-27 0 -54 -6v160q40 13 101 13q96 0 148.5 -40.5t105.5 -147.5l186 -365h15l285 541h208l-409 -734l229 -443q35 -67 68 -94.5t80 -27.5q26 0 54 7v-161q-44 -13 -107 -13q-92 0 -144 38.5t-101 134.5l-190 370
h-14l-281 -533h-207z" />
    <glyph glyph-name="psigreek" unicode="&#x3c8;" 
d="M543 -366v345q-212 4 -323.5 119.5t-111.5 332.5v659h178v-632q0 -162 61 -235.5t196 -78.5v1217h175v-1216q156 6 220 109t64 305q0 303 -99 531h183q42 -86 70.5 -226.5t28.5 -286.5q0 -290 -110.5 -440t-356.5 -158v-345h-175z" />
    <glyph glyph-name="omegagreek" unicode="&#x3c9;" 
d="M898 -21q-182 0 -258 231h-14q-76 -231 -258 -231q-308 0 -308 529q0 176 40.5 330.5t112.5 251.5h194q-163 -239 -163 -604q0 -168 37 -247.5t116 -79.5q72 0 110 70.5t38 195.5v339h176v-339q0 -125 38 -195.5t110 -70.5q79 0 116 79.5t37 247.5q0 365 -163 604h194
q72 -96 112.5 -250.5t40.5 -331.5q0 -529 -308 -529z" />
    <glyph glyph-name="iotadieresisgreek" unicode="&#x3ca;" 
d="M357 1296q-51 0 -88.5 38.5t-37.5 91.5q0 52 37.5 90.5t88.5 38.5t88.5 -38.5t37.5 -90.5q0 -53 -37.5 -91.5t-88.5 -38.5zM778 1296q-51 0 -88.5 38.5t-37.5 91.5q0 52 37.5 90.5t88.5 38.5q50 0 88 -38.5t38 -90.5t-38 -91t-88 -39zM897 -7q-191 0 -278 71.5t-87 234.5
v626h-352v165h553v-770q0 -85 46 -122.5t151 -37.5q82 0 164 14v-160q-94 -21 -197 -21z" />
    <glyph glyph-name="upsilondieresisgreek" unicode="&#x3cb;" 
d="M389 1296q-51 0 -88.5 38.5t-37.5 91.5q0 52 37.5 90.5t88.5 38.5q50 0 88 -38.5t38 -90.5t-38 -91t-88 -39zM809 1296q-50 0 -88 39t-38 91t38 90.5t88 38.5q51 0 88.5 -38.5t37.5 -90.5q0 -53 -37.5 -91.5t-88.5 -38.5zM637 -21q-455 2 -455 453v658h193v-636
q0 -296 258 -296q282 0 282 395q0 312 -99 537h199q45 -92 72 -234.5t27 -282.5q0 -286 -121.5 -440t-355.5 -154z" />
    <glyph glyph-name="omicrontonosgreek" unicode="&#x3cc;" 
d="M545 1286l81 354h233l-139 -354h-175zM633 -21q-220 0 -350.5 131t-130.5 352v165q0 222 130 352.5t351 130.5t351 -130.5t130 -352.5v-165q0 -221 -130.5 -352t-350.5 -131zM633 940q-131 0 -207 -88t-76 -239v-137q0 -151 76 -239t207 -88t207 88t76 239v137
q0 151 -76 239t-207 88z" />
    <glyph glyph-name="upsilontonosgreek" unicode="&#x3cd;" 
d="M495 1286l81 354h234l-139 -354h-176zM637 -21q-455 2 -455 453v658h193v-636q0 -296 258 -296q282 0 282 395q0 312 -99 537h199q45 -92 72 -234.5t27 -282.5q0 -286 -121.5 -440t-355.5 -154z" />
    <glyph glyph-name="omegatonosgreek" unicode="&#x3ce;" 
d="M545 1286l80 354h234l-139 -354h-175zM898 -21q-182 0 -258 231h-14q-76 -231 -258 -231q-308 0 -308 529q0 176 40.5 330.5t112.5 251.5h194q-163 -239 -163 -604q0 -168 37 -247.5t116 -79.5q72 0 110 70.5t38 195.5v339h176v-339q0 -125 38 -195.5t110 -70.5
q79 0 116 79.5t37 247.5q0 365 -163 604h194q72 -96 112.5 -250.5t40.5 -331.5q0 -529 -308 -529z" />
    <glyph glyph-name="uni0400" unicode="&#x400;" 
d="M777 1610h-207l-320 307h233zM1089 185v-185h-868v1443h868v-185h-659v-437h622v-174h-622v-462h659z" />
    <glyph glyph-name="Iocyrillic" unicode="&#x401;" 
d="M445 1643q-51 0 -88.5 38.5t-37.5 90.5t37.5 90.5t88.5 38.5q50 0 88 -38.5t38 -90.5t-38 -90.5t-88 -38.5zM865 1643q-50 0 -87.5 38.5t-37.5 90.5t37.5 90.5t87.5 38.5q51 0 88.5 -38.5t37.5 -90.5t-37.5 -90.5t-88.5 -38.5zM1089 185v-185h-868v1443h868v-185h-659
v-437h622v-174h-622v-462h659z" />
    <glyph glyph-name="Djecyrillic" unicode="&#x402;" 
d="M811 710q-86 0 -153 -33t-103 -77v-600h-196v1259h-359v184h926v-184h-371v-459h13q101 96 285 96q187 0 294.5 -125.5t107.5 -339.5q0 -221 -101.5 -345.5t-279.5 -124.5q-83 0 -120 16v179q36 -12 94 -12q96 0 150 73.5t54 205.5q0 133 -64 210t-177 77z" />
    <glyph glyph-name="Gjecyrillic" unicode="&#x403;" 
d="M543 1610l293 307h233l-319 -307h-207zM850 0h-774v181h266v1081h-266v181h1152v-436h-189v255h-489v-1081h300v-181z" />
    <glyph glyph-name="Ecyrillic" unicode="&#x404;" 
d="M665 161q135 0 215 79t83 215h210q0 -219 -139.5 -352t-367.5 -133q-258 0 -401.5 162.5t-143.5 455.5v267q0 293 143.5 455.5t401.5 162.5q234 0 369 -134.5t138 -371.5h-210q-4 142 -86.5 228.5t-212.5 86.5q-162 0 -245.5 -108.5t-83.5 -318.5v-32h500v-176h-500v-59
q0 -210 83.5 -318.5t246.5 -108.5z" />
    <glyph glyph-name="Dzecyrillic" unicode="&#x405;" 
d="M126 390h201q12 -112 96.5 -175.5t222.5 -63.5q137 0 218 64.5t81 173.5q0 88 -62 143t-202 89l-132 31q-199 49 -294 148.5t-95 257.5q0 189 132 302t352 113q211 0 343.5 -111t140.5 -294h-200q-12 106 -86.5 165t-195.5 59q-130 0 -203.5 -58t-73.5 -161
q0 -89 60 -143t194 -86l132 -33q210 -50 304.5 -147t94.5 -261q0 -199 -137.5 -316t-372.5 -117q-230 0 -368.5 112.5t-149.5 307.5z" />
    <glyph glyph-name="Icyrillic" unicode="&#x406;" 
d="M1031 0h-796v181h294v1081h-294v181h796v-181h-294v-1081h294v-181z" />
    <glyph glyph-name="Yicyrillic" unicode="&#x407;" 
d="M423 1643q-51 0 -88.5 38.5t-37.5 90.5t37.5 90.5t88.5 38.5q50 0 88 -38.5t38 -90.5t-38 -90.5t-88 -38.5zM843 1643q-50 0 -88 38.5t-38 90.5t38 90.5t88 38.5q51 0 88.5 -38.5t37.5 -90.5t-37.5 -90.5t-88.5 -38.5zM1031 0h-796v181h294v1081h-294v181h796v-181h-294
v-1081h294v-181z" />
    <glyph glyph-name="Jecyrillic" unicode="&#x408;" 
d="M591 -30q-197 0 -319 112.5t-123 296.5h203q4 -97 69 -156.5t167 -59.5q116 0 178.5 68t62.5 195v836h-503v181h711v-1021q0 -212 -118.5 -332t-327.5 -120z" />
    <glyph glyph-name="Ljecyrillic" unicode="&#x409;" 
d="M358 530q-11 -291 -75.5 -416t-206.5 -125q-45 0 -76 12v184q21 -7 51 -7q65 0 93.5 79.5t35.5 279.5l33 906h571v-523h122q164 0 262 -124t98 -336t-98 -336t-262 -124h-309v1269h-211zM776 180h95q99 0 154.5 74t55.5 207t-55.5 207t-154.5 74h-95v-562z" />
    <glyph glyph-name="Njecyrillic" unicode="&#x40a;" 
d="M262 0h-179v1443h179v-614h318v614h184v-614h113q162 0 258.5 -110.5t96.5 -297.5q0 -193 -96.5 -307t-258.5 -114h-297v654h-318v-654zM760 657v-492h87q96 0 150 66.5t54 186.5q0 114 -53.5 176.5t-150.5 62.5h-87z" />
    <glyph glyph-name="Tshecyrillic" unicode="&#x40b;" 
d="M775 707q-84 0 -147 -33t-101 -78v-596h-201v1258h-326v185h874v-185h-347v-458h13q103 96 291 96q187 0 283.5 -109t96.5 -313v-474h-203v446q0 125 -57.5 193t-175.5 68z" />
    <glyph glyph-name="Kjecyrillic" unicode="&#x40c;" 
d="M518 1610l294 307h233l-320 -307h-207zM353 809h44l550 634h238l-614 -702l662 -741h-257l-579 641h-44v-641h-206v1443h206v-634z" />
    <glyph glyph-name="uni040D" unicode="&#x40d;" 
d="M765 1610h-207l-319 307h232zM327 1443v-1078h14l591 1078h190v-1443h-183v1076h-14l-594 -1076h-187v1443h183z" />
    <glyph glyph-name="Ushortcyrillic" unicode="&#x40e;" 
d="M290 1930h163q1 -86 50.5 -139.5t128.5 -53.5t129 53.5t51 139.5h163q0 -143 -95 -231.5t-248 -88.5t-247.5 88.5t-94.5 231.5zM327 -12q-73 0 -96 14v183q31 -9 78 -9q70 0 123 38t99 124l-473 1105h223l352 -884h17l339 884h219l-434 -1039q-64 -153 -125 -240.5
t-138.5 -131.5t-183.5 -44z" />
    <glyph glyph-name="Dzhecyrillic" unicode="&#x40f;" 
d="M535 0h-430v1443h208v-1258h640v1258h208v-1443h-430v-285h-196v285z" />
    <glyph glyph-name="Acyrillic" unicode="&#x410;" 
d="M983 0l-115 398h-480l-116 -398h-210l455 1443h232l455 -1443h-221zM625 1212l-188 -645h382l-187 645h-7z" />
    <glyph glyph-name="Becyrillic" unicode="&#x411;" 
d="M1167 440q0 -197 -129.5 -318.5t-339.5 -121.5h-529v1443h869v-185h-660v-383h315q211 0 342.5 -120.5t131.5 -314.5zM378 180h270q145 0 225.5 68.5t80.5 191.5q0 124 -81 192.5t-225 68.5h-270v-521z" />
    <glyph glyph-name="Vecyrillic" unicode="&#x412;" 
d="M668 0h-493v1443h486q202 0 316.5 -95t114.5 -262q0 -119 -70.5 -207.5t-181.5 -107.5v-15q145 -13 234.5 -110t89.5 -241q0 -190 -132 -297.5t-364 -107.5zM380 1273v-445h207q143 0 219.5 57t76.5 164t-71 165.5t-202 58.5h-230zM380 172h236q332 0 332 249
q0 121 -85 182.5t-252 61.5h-231v-493z" />
    <glyph glyph-name="Gecyrillic" unicode="&#x413;" 
d="M850 0h-774v181h266v1081h-266v181h1152v-436h-189v255h-489v-1081h300v-181z" />
    <glyph glyph-name="Decyrillic" unicode="&#x414;" 
d="M210 0v-285h-191v470h82q62 41 92 129.5t39 253.5l47 875h813v-1258h153v-470h-190v285h-845zM425 553q-7 -136 -28 -218t-61 -133v-17h549v1074h-421z" />
    <glyph glyph-name="Iecyrillic" unicode="&#x415;" 
d="M1089 185v-185h-868v1443h868v-185h-659v-437h622v-174h-622v-462h659z" />
    <glyph glyph-name="Zhecyrillic" unicode="&#x416;" 
d="M186 0h-196l345 735l-314 708h193l269 -628h61v628h177v-628h60l269 628h192l-314 -706l348 -737h-198l-298 649h-59v-649h-177v649h-59z" />
    <glyph glyph-name="Zecyrillic" unicode="&#x417;" 
d="M431 650v176h183q130 0 209 65.5t79 173.5q0 106 -77 169t-206 63q-127 0 -208 -65t-89 -173h-196q10 189 145.5 301.5t354.5 112.5q211 0 344.5 -107.5t133.5 -276.5q0 -123 -74.5 -214t-196.5 -116v-15q152 -14 242.5 -108t90.5 -239q0 -185 -153 -306t-386 -121
q-228 0 -375 117t-155 305h200q7 -107 99 -173.5t232 -66.5q145 0 234.5 70.5t89.5 184.5q0 115 -88 179t-245 64h-188z" />
    <glyph glyph-name="Iicyrillic" unicode="&#x418;" 
d="M327 1443v-1078h14l591 1078h190v-1443h-183v1076h-14l-594 -1076h-187v1443h183z" />
    <glyph glyph-name="Iishortcyrillic" unicode="&#x419;" 
d="M291 1930h162q1 -86 51 -139.5t129 -53.5t129 53.5t51 139.5h162q0 -143 -94.5 -231.5t-247.5 -88.5t-247.5 88.5t-94.5 231.5zM327 1443v-1078h14l591 1078h190v-1443h-183v1076h-14l-594 -1076h-187v1443h183z" />
    <glyph glyph-name="Kacyrillic" unicode="&#x41a;" 
d="M353 809h44l550 634h238l-614 -702l662 -741h-257l-579 641h-44v-641h-206v1443h206v-634z" />
    <glyph glyph-name="Elcyrillic" unicode="&#x41b;" 
d="M1133 0h-205v1258h-453l-39 -721q-14 -283 -99 -415.5t-251 -132.5q-43 0 -81 12v192q21 -7 55 -7q88 0 130.5 85t52.5 280l45 892h845v-1443z" />
    <glyph glyph-name="Emcyrillic" unicode="&#x41c;" 
d="M288 533v-533h-181v1443h226l293 -877h14l292 877h227v-1443h-181v533l17 582h-15l-270 -776h-154l-270 776h-15z" />
    <glyph glyph-name="Encyrillic" unicode="&#x41d;" 
d="M1123 0h-206v643h-568v-643h-206v1443h206v-615h568v615h206v-1443z" />
    <glyph glyph-name="Ocyrillic" unicode="&#x41e;" 
d="M1169 607q0 -299 -143 -468t-393 -169t-393 169t-143 468v229q0 299 143 468t393 169t393 -169t143 -468v-229zM633 160q155 0 240.5 116t85.5 332v227q0 216 -85.5 332t-240.5 116t-240.5 -116t-85.5 -332v-227q0 -216 85.5 -332t240.5 -116z" />
    <glyph glyph-name="Pecyrillic" unicode="&#x41f;" 
d="M1148 0h-209v1258h-612v-1258h-209v1443h1030v-1443z" />
    <glyph glyph-name="Ercyrillic" unicode="&#x420;" 
d="M183 1443h494q215 0 344.5 -128.5t129.5 -342.5t-131 -342t-349 -128h-279v-502h-209v1443zM392 1265v-586h234q152 0 232.5 75t80.5 218t-80.5 218t-232.5 75h-234z" />
    <glyph glyph-name="Escyrillic" unicode="&#x421;" 
d="M665 161q135 0 215 79t83 215h210q0 -219 -139.5 -352t-367.5 -133q-258 0 -401.5 162.5t-143.5 455.5v267q0 293 143.5 455.5t401.5 162.5q234 0 369 -134.5t138 -371.5h-210q-4 142 -86.5 228.5t-212.5 86.5q-162 0 -245.5 -108.5t-83.5 -318.5v-267
q0 -210 83.5 -318.5t246.5 -108.5z" />
    <glyph glyph-name="Tecyrillic" unicode="&#x422;" 
d="M737 0h-208v1258h-429v185h1066v-185h-429v-1258z" />
    <glyph glyph-name="Ucyrillic" unicode="&#x423;" 
d="M327 -12q-73 0 -96 14v183q31 -9 78 -9q70 0 123 38t99 124l-473 1105h223l352 -884h17l339 884h219l-434 -1039q-64 -153 -125 -240.5t-138.5 -131.5t-183.5 -44z" />
    <glyph glyph-name="Efcyrillic" unicode="&#x424;" 
d="M534 -23v161q-249 7 -387 160.5t-138 425.5q0 271 138 424.5t387 161.5v156h198v-156q249 -8 387 -161.5t138 -424.5q0 -272 -138 -425.5t-387 -160.5v-161h-198zM205 724q0 -192 88 -303t244 -116v839q-155 -7 -243.5 -118t-88.5 -302zM729 1144v-839q156 5 244 116
t88 303q0 191 -88.5 302t-243.5 118z" />
    <glyph glyph-name="Xacyrillic" unicode="&#x425;" 
d="M59 0l449 725l-446 718h233l341 -562h9l344 562h218l-457 -722l451 -721h-227l-345 553h-9l-348 -553h-213z" />
    <glyph glyph-name="Tsecyrillic" unicode="&#x426;" 
d="M1265 -285h-191v285h-972v1443h208v-1258h593v1258h209v-1258h153v-470z" />
    <glyph glyph-name="Checyrillic" unicode="&#x427;" 
d="M1133 0h-208v621h-14q-124 -91 -331 -91q-227 0 -359 137.5t-132 364.5v411h209v-398q0 -152 84 -237.5t229 -85.5q201 0 314 99v622h208v-1443z" />
    <glyph glyph-name="Shacyrillic" unicode="&#x428;" 
d="M73 0v1443h178v-1265h293v1265h178v-1265h293v1265h178v-1443h-1120z" />
    <glyph glyph-name="Shchacyrillic" unicode="&#x429;" 
d="M1096 -285v285h-1050v1443h177v-1269h279v1269h177v-1269h279v1269h177v-1265h131v-463h-170z" />
    <glyph glyph-name="Hardsigncyrillic" unicode="&#x42a;" 
d="M796 0h-485v1259h-290v184h499v-522h267q197 0 318.5 -127.5t121.5 -333.5t-119 -333t-312 -127zM520 180h227q129 0 201 74t72 206q0 133 -72.5 207.5t-200.5 74.5h-227v-562z" />
    <glyph glyph-name="Yericyrillic" unicode="&#x42b;" 
d="M1170 0h-186v1443h186v-1443zM96 0v1443h187v-523h123q208 0 330.5 -124t122.5 -336q0 -210 -125 -335t-334 -125h-304zM280 180h96q136 0 214.5 75t78.5 206t-77 206t-213 75h-99v-562z" />
    <glyph glyph-name="Softsigncyrillic" unicode="&#x42c;" 
d="M168 0v1443h209v-523h316q213 0 344 -126.5t131 -333.5t-129 -333.5t-339 -126.5h-532zM377 180h270q146 0 227.5 74t81.5 207t-81.5 207t-227.5 74h-270v-562z" />
    <glyph glyph-name="Ereversedcyrillic" unicode="&#x42d;" 
d="M609 -29q-231 0 -377.5 128.5t-167.5 349.5h204q23 -137 112.5 -212.5t229.5 -75.5q168 0 262 124.5t105 361.5h-546v176h544q-15 225 -108.5 342t-256.5 117q-138 0 -228 -82t-113 -228h-205q20 225 169.5 363t375.5 138q278 0 430 -195.5t152 -555.5t-152 -555.5
t-430 -195.5z" />
    <glyph glyph-name="IUcyrillic" unicode="&#x42e;" 
d="M791 -30q-204 0 -311 161t-127 501h-129v-632h-177v1443h177v-627h129q22 332 130.5 494.5t307.5 162.5q221 0 335.5 -191.5t114.5 -560.5q0 -368 -114.5 -559.5t-335.5 -191.5zM793 1290q-260 0 -260 -569t260 -569q129 0 195 143.5t66 425.5t-66 425.5t-195 143.5z" />
    <glyph glyph-name="IAcyrillic" unicode="&#x42f;" 
d="M706 552l-364 -552h-234l387 581q-150 38 -237 149.5t-87 264.5q0 203 131 325.5t349 122.5h493v-1443h-205v552h-233zM939 723v543h-254q-142 0 -221.5 -71.5t-79.5 -199.5t79.5 -200t221.5 -72h254z" />
    <glyph glyph-name="acyrillic" unicode="&#x430;" 
d="M512 -18q-156 0 -251 90t-95 238q0 145 101.5 228.5t292.5 94.5l286 15v96q0 94 -56.5 144.5t-161.5 50.5q-87 0 -146.5 -36t-78.5 -100h-196q15 135 132.5 218.5t292.5 83.5q197 0 305 -94.5t108 -266.5v-745h-191v159h-19q-39 -84 -123.5 -130t-199.5 -46zM574 149
q117 0 194.5 69t77.5 173v115l-259 -13q-109 -6 -165 -50t-56 -124q0 -79 56 -124.5t152 -45.5z" />
    <glyph glyph-name="becyrillic" unicode="&#x431;" 
d="M645 -21q-254 0 -384 162t-130 481v33q0 413 134.5 603t434.5 201q64 2 154 10q159 15 237 44v-170q-96 -41 -227 -48q-115 -7 -151 -7q-197 -5 -292.5 -111.5t-118.5 -345.5h20q48 110 142.5 171.5t221.5 61.5q218 0 344.5 -141.5t126.5 -387.5q0 -261 -136 -408.5
t-376 -147.5zM644 152q146 0 226.5 98.5t80.5 278.5q0 174 -80.5 269.5t-226.5 95.5q-143 0 -225 -97.5t-82 -267.5q0 -180 80.5 -278.5t226.5 -98.5z" />
    <glyph glyph-name="vecyrillic" unicode="&#x432;" 
d="M218 0v1090h502q158 0 247.5 -72.5t89.5 -201.5q0 -88 -55.5 -154.5t-140.5 -81.5v-15q109 -11 177.5 -81.5t68.5 -171.5q0 -147 -100.5 -229.5t-279.5 -82.5h-509zM674 944h-260v-312h243q97 0 148 40.5t51 118.5q0 74 -47 113.5t-135 39.5zM669 494h-255v-348h274
q216 0 216 176q0 172 -235 172z" />
    <glyph glyph-name="gecyrillic" unicode="&#x433;" 
d="M786 165v-165h-644v165h194v759h-194v166h988v-372h-177v204h-416v-757h249z" />
    <glyph glyph-name="decyrillic" unicode="&#x434;" 
d="M235 -285h-185v450h83q104 63 125 342q5 82 19.5 291.5t19.5 291.5h733v-925h166v-450h-185v285h-776v-285zM833 165v761h-361q-8 -199 -34 -465q-19 -198 -90 -278v-18h485z" />
    <glyph glyph-name="iecyrillic" unicode="&#x435;" 
d="M910 288h192q-22 -137 -145 -223t-299 -86q-229 0 -355 128.5t-126 361.5v166q0 215 129 345.5t341 130.5q214 0 336 -133t122 -365v-118h-731v-49q0 -138 77 -220t206 -82q97 0 165 38.5t88 105.5zM645 947q-127 0 -199 -82.5t-72 -228.5h534q0 146 -69.5 228.5
t-193.5 82.5z" />
    <glyph glyph-name="zhecyrillic" unicode="&#x436;" 
d="M-7 0l343 570l-329 520h195l277 -465h72v465h164v-465h72l277 465h195l-329 -520l343 -570h-203l-280 491h-75v-491h-164v491h-74l-281 -491h-203z" />
    <glyph glyph-name="zecyrillic" unicode="&#x437;" 
d="M627 -21q-195 0 -315 88.5t-138 245.5h197q20 -82 85.5 -124.5t170.5 -42.5q113 0 181.5 48t68.5 127q0 81 -65 123.5t-187 42.5h-155v149h154q101 0 158 40.5t57 112.5q0 73 -57.5 114.5t-157.5 41.5t-162 -41.5t-76 -119.5h-193q19 155 132 241t298 86
q192 0 302.5 -80.5t110.5 -220.5q0 -80 -54 -144t-139 -84v-15q110 -23 172 -89t62 -160q0 -154 -123 -246.5t-327 -92.5z" />
    <glyph glyph-name="iicyrillic" unicode="&#x438;" 
d="M365 0h-196v1090h190v-795h15l527 795h196v-1090h-190v799h-14z" />
    <glyph glyph-name="iishortcyrillic" unicode="&#x439;" 
d="M291 1585h162q1 -85 51 -139t129 -54t129 54t51 139h162q0 -143 -94.5 -231.5t-247.5 -88.5t-247.5 88.5t-94.5 231.5zM365 0h-196v1090h190v-795h15l527 795h196v-1090h-190v799h-14z" />
    <glyph glyph-name="kacyrillic" unicode="&#x43a;" 
d="M402 636h65l444 454h236l-513 -512l538 -578h-249l-454 480h-67v-480h-192v1090h192v-454z" />
    <glyph glyph-name="elcyrillic" unicode="&#x43b;" 
d="M470 495q-19 -260 -95.5 -383t-234.5 -123q-44 0 -76 12v182q26 -8 59 -8q75 0 113.5 82t50.5 250q2 28 18.5 275t19.5 308h753v-1090h-198v922h-379q-9 -163 -31 -427z" />
    <glyph glyph-name="emcyrillic" unicode="&#x43c;" 
d="M275 0h-164v1090h216l301 -810h13l301 810h213v-1090h-165l6 794h-14l-285 -754h-127l-287 761h-15z" />
    <glyph glyph-name="encyrillic" unicode="&#x43d;" 
d="M172 0v1090h198v-444h526v444h198v-1090h-198v478h-526v-478h-198z" />
    <glyph glyph-name="ocyrillic" unicode="&#x43e;" 
d="M633 -21q-220 0 -350.5 131t-130.5 352v165q0 222 130 352.5t351 130.5t351 -130.5t130 -352.5v-165q0 -221 -130.5 -352t-350.5 -131zM633 940q-131 0 -207 -88t-76 -239v-137q0 -151 76 -239t207 -88t207 88t76 239v137q0 151 -76 239t-207 88z" />
    <glyph glyph-name="pecyrillic" unicode="&#x43f;" 
d="M890 0v922h-514v-922h-200v1090h914v-1090h-200z" />
    <glyph glyph-name="ercyrillic" unicode="&#x440;" 
d="M714 1107q188 0 299.5 -125t111.5 -338v-199q0 -213 -111.5 -338t-299.5 -125q-118 0 -200 49.5t-116 141.5h-19v-539h-206v1456h201v-173h20q38 93 120 141.5t200 48.5zM648 929q-125 0 -199.5 -82.5t-74.5 -222.5v-163q0 -141 74.5 -223.5t199.5 -82.5q126 0 200 83
t74 223v163q0 140 -74 222.5t-200 82.5z" />
    <glyph glyph-name="escyrillic" unicode="&#x441;" 
d="M1099 739h-198q-14 94 -81.5 147.5t-168.5 53.5q-133 0 -204 -90t-71 -258v-92q0 -168 71 -258t204 -90q101 0 168 52t82 144h198q-20 -174 -138 -271.5t-308 -97.5q-227 0 -352.5 131t-125.5 369v134q0 238 125 368.5t353 130.5q191 0 308.5 -98t137.5 -275z" />
    <glyph glyph-name="tecyrillic" unicode="&#x442;" 
d="M1117 1090v-168h-383v-922h-202v922h-383v168h968z" />
    <glyph glyph-name="ucyrillic" unicode="&#x443;" 
d="M322 -390q-43 0 -82 3v169q16 -3 60 -3q79 0 125.5 36.5t76.5 122.5l17 54l-397 1098h220l287 -892h14l285 892h213l-400 -1123q-71 -203 -161.5 -280t-257.5 -77z" />
    <glyph glyph-name="efcyrillic" unicode="&#x444;" 
d="M540 -361v345q-245 14 -373.5 157.5t-128.5 402.5q0 258 129 402.5t373 157.5v352h188v-352q243 -14 372.5 -158t129.5 -402q0 -259 -128.5 -402.5t-373.5 -157.5v-345h-188zM225 544q0 -190 81 -293t237 -108v803q-155 -4 -236.5 -108t-81.5 -294zM725 946v-803
q155 5 236.5 108t81.5 293t-81.5 294t-236.5 108z" />
    <glyph glyph-name="hacyrillic" unicode="&#x445;" 
d="M637 405h-14l-258 -405h-219l366 544l-368 546h234l253 -401h14l251 401h224l-365 -538l368 -552h-229z" />
    <glyph glyph-name="tsecyrillic" unicode="&#x446;" 
d="M1220 -285h-185v285h-879v1090h197v-922h502v922h198v-922h167v-453z" />
    <glyph glyph-name="checyrillic" unicode="&#x447;" 
d="M1062 0h-201v473h-15q-117 -101 -300 -101q-182 0 -286 103.5t-104 285.5v329h201v-303q0 -117 59.5 -176.5t174.5 -59.5q84 0 157 32t113 85v422h201v-1090z" />
    <glyph glyph-name="shacyrillic" unicode="&#x448;" 
d="M71 0v1090h174v-929h301v929h174v-929h301v929h174v-1090h-1124z" />
    <glyph glyph-name="shchacyrillic" unicode="&#x449;" 
d="M1134 -285v285h-1072v1090h174v-925h289v925h174v-925h290v925h174v-925h140v-450h-169z" />
    <glyph glyph-name="hardsigncyrillic" unicode="&#x44a;" 
d="M777 0h-431v925h-285v165h483v-345h233q183 0 289 -101t106 -272t-106.5 -271.5t-288.5 -100.5zM755 581h-211v-416h211q101 0 159.5 56.5t58.5 151.5t-58.5 151.5t-159.5 56.5z" />
    <glyph glyph-name="yericyrillic" unicode="&#x44b;" 
d="M969 0v1090h186v-1090h-186zM111 0v1090h182v-345h184q170 0 269.5 -100t99.5 -272t-99.5 -272.5t-269.5 -100.5h-366zM470 581h-179v-416h179q89 0 142 56.5t53 151.5t-53 151.5t-142 56.5z" />
    <glyph glyph-name="softsigncyrillic" unicode="&#x44c;" 
d="M224 0v1090h200v-346h271q205 0 313.5 -97t108.5 -275t-108.5 -275t-313.5 -97h-471zM674 581h-250v-416h250q121 0 183 54t62 154t-62 154t-183 54z" />
    <glyph glyph-name="ereversedcyrillic" unicode="&#x44d;" 
d="M615 -22q-203 0 -325.5 96.5t-145.5 265.5h193q20 -89 91 -138.5t183 -49.5q138 0 219 88t89 246h-477v149h475q-12 144 -93 223t-213 79q-111 0 -182 -52.5t-93 -140.5h-192q22 166 146.5 266.5t324.5 100.5q238 0 371.5 -149t133.5 -414q0 -270 -133.5 -420
t-371.5 -150z" />
    <glyph glyph-name="iucyrillic" unicode="&#x44e;" 
d="M825 -21q-183 0 -289.5 131t-120.5 366h-171v-476h-176v1090h176v-449h174q18 221 124.5 345.5t282.5 124.5q199 0 306 -146.5t107 -419.5t-107 -419.5t-306 -146.5zM823 150q111 0 171 102t60 293t-60 292.5t-171 101.5t-171 -101.5t-60 -292.5t60 -293t171 -102z" />
    <glyph glyph-name="iacyrillic" unicode="&#x44f;" 
d="M822 0v384h-176l-273 -384h-232l302 418q-119 28 -188.5 111t-69.5 200q0 166 110 263.5t296 97.5h428v-1090h-197zM605 539h217v387h-217q-102 0 -161.5 -53t-59.5 -144q0 -86 60.5 -138t160.5 -52z" />
    <glyph glyph-name="uni0450" unicode="&#x450;" 
d="M773 1296h-205l-269 343h235zM910 288h192q-22 -137 -145 -223t-299 -86q-229 0 -355 128.5t-126 361.5v166q0 215 129 345.5t341 130.5q214 0 336 -133t122 -365v-118h-731v-49q0 -138 77 -220t206 -82q97 0 165 38.5t88 105.5zM645 947q-127 0 -199 -82.5t-72 -228.5
h534q0 146 -69.5 228.5t-193.5 82.5z" />
    <glyph glyph-name="iocyrillic" unicode="&#x451;" 
d="M430 1315q-50 0 -88 38.5t-38 90.5t38 90.5t88 38.5q51 0 88.5 -38.5t37.5 -90.5t-37.5 -90.5t-88.5 -38.5zM851 1315q-51 0 -88.5 38.5t-37.5 90.5t37.5 90.5t88.5 38.5t88.5 -38.5t37.5 -90.5t-37.5 -90.5t-88.5 -38.5zM910 288h192q-22 -137 -145 -223t-299 -86
q-229 0 -355 128.5t-126 361.5v166q0 215 129 345.5t341 130.5q214 0 336 -133t122 -365v-118h-731v-49q0 -138 77 -220t206 -82q97 0 165 38.5t88 105.5zM645 947q-127 0 -199 -82.5t-72 -228.5h534q0 146 -69.5 228.5t-193.5 82.5z" />
    <glyph glyph-name="djecyrillic" unicode="&#x452;" 
d="M173 0v1268h-152v121h152v126h194v-126h254v-121h-254v-369h15q42 101 131.5 155.5t213.5 54.5q178 0 272 -104t94 -300v-760q0 -160 -85 -238t-258 -78q-42 0 -52 2v163q2 -1 31 -1q88 0 126 36t38 120v707q0 139 -58.5 206.5t-179.5 67.5q-127 0 -204 -80.5t-77 -212.5
v-637h-201z" />
    <glyph glyph-name="gjecyrillic" unicode="&#x453;" 
d="M562 1296l240 343h235l-270 -343h-205zM786 165v-165h-644v165h194v759h-194v166h988v-372h-177v204h-416v-757h249z" />
    <glyph glyph-name="ecyrillic" unicode="&#x454;" 
d="M650 -22q-239 0 -372.5 150t-133.5 420q0 265 133.5 414t372.5 149q200 0 324 -100.5t147 -266.5h-193q-22 88 -93 140.5t-182 52.5q-132 0 -212.5 -79.5t-92.5 -222.5h474v-149h-477q8 -158 89 -246t219 -88q113 0 183.5 49t91.5 139h193q-23 -169 -145.5 -265.5
t-325.5 -96.5z" />
    <glyph glyph-name="dzecyrillic" unicode="&#x455;" 
d="M223 789q0 146 113 234.5t300 88.5q179 0 289 -80.5t123 -222.5h-192q-14 67 -73.5 105.5t-149.5 38.5q-96 0 -153.5 -41t-57.5 -109q0 -58 42 -93t138 -56l158 -35q162 -36 237 -108t75 -192q0 -155 -118.5 -247t-318.5 -92q-193 0 -310.5 81.5t-130.5 225.5h202
q16 -70 80.5 -108t163.5 -38q103 0 164 42.5t61 113.5q0 60 -41 94.5t-140 56.5l-163 37q-298 67 -298 304z" />
    <glyph glyph-name="icyrillic" unicode="&#x456;" 
d="M651 1345q-67 0 -111 42t-44 106q0 65 44 107t111 42q68 0 111.5 -42t43.5 -107q0 -64 -43.5 -106t-111.5 -42zM1111 0h-915v162h367v766h-359v162h555v-928h352v-162z" />
    <glyph glyph-name="yicyrillic" unicode="&#x457;" 
d="M443 1308q-51 0 -88.5 38.5t-37.5 91.5q0 52 37.5 90.5t88.5 38.5q50 0 88 -38.5t38 -90.5t-38 -91t-88 -39zM863 1308q-50 0 -88 39t-38 91t38 90.5t88 38.5q51 0 88.5 -38.5t37.5 -90.5q0 -53 -37.5 -91.5t-88.5 -38.5zM1111 0h-915v162h367v766h-359v162h555v-928h352
v-162z" />
    <glyph glyph-name="jecyrillic" unicode="&#x458;" 
d="M771 1345q-68 0 -111.5 42t-43.5 106q0 65 43.5 107t111.5 42q67 0 110.5 -42t43.5 -107q0 -64 -43.5 -106t-110.5 -42zM883 1090v-1074q0 -190 -99.5 -271.5t-331.5 -81.5q-186 0 -269 7v175q64 -6 262 -6q137 0 189.5 41.5t52.5 149.5v898h-483v162h679z" />
    <glyph glyph-name="ljecyrillic" unicode="&#x459;" 
d="M333 480q-12 -264 -73.5 -377.5t-191.5 -113.5q-31 0 -68 10v182q20 -6 44 -6q54 0 82.5 76t36.5 242l28 597h585v-346h153q155 0 244.5 -100t89.5 -272t-89.5 -272t-244.5 -100h-335v932h-238zM919 581h-147v-416h147q77 0 122 56t45 152t-45 152t-122 56z" />
    <glyph glyph-name="njecyrillic" unicode="&#x45a;" 
d="M588 0v504h-334v-504h-176v1090h176v-424h334v424h176v-421h160q154 0 245 -90.5t91 -243.5q0 -154 -91 -244.5t-245 -90.5h-336zM920 507h-157v-345h157q74 0 119 47t45 126q0 78 -45 125t-119 47z" />
    <glyph glyph-name="tshecyrillic" unicode="&#x45b;" 
d="M173 0v1268h-152v121h152v126h194v-126h254v-121h-254v-369h15q42 101 131.5 155.5t213.5 54.5q178 0 272 -104t94 -300v-705h-200v656q0 139 -58.5 206.5t-179.5 67.5q-127 0 -204 -80.5t-77 -212.5v-637h-201z" />
    <glyph glyph-name="kjecyrillic" unicode="&#x45c;" 
d="M505 1296l240 343h235l-270 -343h-205zM402 636h65l444 454h236l-513 -512l538 -578h-249l-454 480h-67v-480h-192v1090h192v-454z" />
    <glyph glyph-name="uni045D" unicode="&#x45d;" 
d="M739 1296h-205l-269 343h234zM365 0h-196v1090h190v-795h15l527 795h196v-1090h-190v799h-14z" />
    <glyph glyph-name="ushortcyrillic" unicode="&#x45e;" 
d="M291 1585h162q1 -85 51 -138.5t129 -53.5t129 53.5t51 138.5h162q0 -143 -94.5 -231t-247.5 -88t-247.5 88t-94.5 231zM322 -390q-43 0 -82 3v169q16 -3 60 -3q79 0 125.5 36.5t76.5 122.5l17 54l-397 1098h220l287 -892h14l285 892h213l-400 -1123q-71 -203 -161.5 -280
t-257.5 -77z" />
    <glyph glyph-name="dzhecyrillic" unicode="&#x45f;" 
d="M1094 0h-368v-285h-186v285h-368v1090h201v-925h520v925h201v-1090z" />
    <glyph glyph-name="uni0462" unicode="&#x462;" 
d="M289 0v1074h-289v172h289v197h209v-197h482v-172h-482v-208h246q213 0 343.5 -119.5t130.5 -313.5q0 -195 -128.5 -314t-338.5 -119h-462zM498 180h200q146 0 227 67t81 187t-81 187t-227 67h-200v-508z" />
    <glyph glyph-name="uni0463" unicode="&#x463;" 
d="M281 0v949h-253v141h253v425h201v-425h456v-141h-456v-219h240q205 0 314 -95t109 -270t-109 -270t-314 -95h-441zM702 567h-220v-402h220q122 0 183.5 52t61.5 149t-62 149t-183 52z" />
    <glyph glyph-name="uni0472" unicode="&#x472;" 
d="M1169 607q0 -299 -143 -467.5t-393 -168.5t-393 168.5t-143 467.5v230q0 299 143 467.5t393 168.5t393 -168.5t143 -467.5v-230zM476 853q58 0 106.5 -14.5t76.5 -31.5t69.5 -31.5t87.5 -14.5q90 0 143 74v1q0 216 -85 331.5t-241 115.5t-241 -115.5t-85 -331.5v-52
q71 69 169 69zM633 161q155 0 240.5 116t85.5 332v44q-69 -69 -169 -69q-58 0 -106 14t-76.5 31.5t-70 31.5t-87.5 14q-90 0 -143 -74q1 -212 86.5 -326t239.5 -114z" />
    <glyph glyph-name="uni0473" unicode="&#x473;" 
d="M633 -21q-220 0 -350.5 131t-130.5 352v165q0 222 130 352.5t351 130.5t351 -130.5t130 -352.5v-165q0 -221 -130.5 -352t-350.5 -131zM633 940q-131 0 -207 -88t-76 -239v-6q58 58 138 58q64 0 115 -19.5t95 -38.5t92 -19q75 0 125 58q-9 137 -84 215.5t-198 78.5z
M477 509q-79 0 -126 -61q7 -139 82.5 -219t199.5 -80q131 0 207 88t76 239v11q-55 -57 -139 -57q-64 0 -114.5 20t-94 39.5t-91.5 19.5z" />
    <glyph glyph-name="uni0474" unicode="&#x474;" 
d="M812 1154q37 173 100.5 246.5t189.5 73.5q51 0 96 -14t63 -28l-53 -162q-32 18 -80 18q-49 0 -76.5 -28t-44.5 -94l-318 -1166h-220l-407 1443h213l305 -1195h6z" />
    <glyph glyph-name="uni0475" unicode="&#x475;" 
d="M816 821q45 158 104.5 225.5t179.5 67.5q52 0 98 -13.5t65 -26.5l-60 -169q-29 19 -81 19q-44 0 -67 -25t-44 -85l-283 -814h-223l-394 1090h215l285 -885h14z" />
    <glyph glyph-name="uni048A" unicode="&#x48a;" 
d="M274 1930h157q1 -86 50.5 -139.5t126.5 -53.5t126.5 53.5t50.5 139.5h157q0 -143 -92.5 -231.5t-241.5 -88.5t-241.5 88.5t-92.5 231.5zM308 1443v-1078h15l585 1078h186v-1252h165v-52l-135 -425h-174l97 286h-132v1076h-14l-588 -1076h-183v1443h178z" />
    <glyph glyph-name="uni048B" unicode="&#x48b;" 
d="M290 1585h162q1 -85 51 -139t129 -54t129 54t51 139h162q0 -143 -94.5 -231.5t-247.5 -88.5t-247.5 88.5t-94.5 231.5zM364 0h-196v1090h190v-795h15l527 795h196v-913h147v-53l-135 -410h-181l101 286h-122v799h-14z" />
    <glyph glyph-name="uni048C" unicode="&#x48c;" 
d="M289 0v1074h-289v172h289v197h209v-197h482v-172h-482v-208h246q213 0 343.5 -119.5t130.5 -313.5q0 -195 -128.5 -314t-338.5 -119h-462zM498 180h200q146 0 227 67t81 187t-81 187t-227 67h-200v-508z" />
    <glyph glyph-name="uni048D" unicode="&#x48d;" 
d="M281 0v949h-253v141h253v425h201v-425h456v-141h-456v-219h240q205 0 314 -95t109 -270t-109 -270t-314 -95h-441zM702 567h-220v-402h220q122 0 183.5 52t61.5 149t-62 149t-183 52z" />
    <glyph glyph-name="uni048E" unicode="&#x48e;" 
d="M183 1443h494q215 0 344.5 -128.5t129.5 -342.5q0 -130 -51.5 -231.5t-144.5 -162.5l141 -219l-139 -100l-164 255q-57 -12 -122 -12h-279v-502h-209v1443zM575 880l113 77l144 -224q107 75 107 239q0 143 -80.5 218t-232.5 75h-234v-586h234q40 0 76 6z" />
    <glyph glyph-name="uni048F" unicode="&#x48f;" 
d="M718 1107q188 0 299.5 -125t111.5 -338v-199q0 -231 -130 -358l125 -194l-139 -100l-134 208q-60 -19 -133 -19q-118 0 -200.5 49.5t-115.5 141.5h-19v-539h-206v1456h201v-173h19q38 93 120 141.5t201 48.5zM595 426l113 79l159 -248q59 81 59 204v163
q0 140 -74.5 222.5t-200.5 82.5q-125 0 -199 -82.5t-74 -222.5v-163q0 -141 74 -223.5t199 -82.5q57 0 108 19z" />
    <glyph glyph-name="Geupturncyrillic" unicode="&#x490;" 
d="M785 0h-712v185h241v1073h-241v185h972v277h189v-713h-189v251h-521v-1073h261v-185z" />
    <glyph glyph-name="geupturncyrillic" unicode="&#x491;" 
d="M786 165v-165h-644v165h194v759h-194v166h811v278h177v-650h-177v204h-416v-757h249z" />
    <glyph glyph-name="uni0492" unicode="&#x492;" 
d="M850 0h-774v181h266v468h-279v169h279v444h-266v181h1152v-436h-189v255h-489v-444h303v-169h-303v-468h300v-181z" />
    <glyph glyph-name="uni0493" unicode="&#x493;" 
d="M786 165v-165h-644v165h194v286h-202v141h202v332h-194v166h988v-372h-177v204h-416v-330h326v-141h-326v-286h249z" />
    <glyph glyph-name="uni0494" unicode="&#x494;" 
d="M721 -15q-78 0 -113 16v183q26 -11 93 -11q94 0 149 69t55 189q0 123 -69 195t-186 72q-92 0 -165.5 -37.5t-114.5 -96.5v-564h-208v1443h803v-184h-595v-475h10q111 108 298 108q203 0 318.5 -123.5t115.5 -325.5q0 -207 -106 -332.5t-285 -125.5z" />
    <glyph glyph-name="uni0495" unicode="&#x495;" 
d="M423 509h8q40 41 114 74t179 33q193 0 302.5 -125.5t109.5 -331.5q0 -220 -110.5 -354.5t-290.5 -134.5q-85 0 -117 12v176q30 -9 94 -9q100 0 161.5 83.5t61.5 214.5q0 127 -63 204.5t-175 77.5q-96 0 -165 -37t-109 -88v-304h-201v1090h778v-168h-577v-413z" />
    <glyph glyph-name="uni0496" unicode="&#x496;" 
d="M175 0h-185l324 735l-295 708h183l252 -628h57v628h166v-628h58l251 628h181l-294 -706l247 -557h146v-466h-163v286h-90l-280 649h-56v-649h-166v649h-55z" />
    <glyph glyph-name="uni0497" unicode="&#x497;" 
d="M-4 0l327 570l-314 520h184l267 -465h69v465h156v-465h69l267 465h184l-314 -520l231 -402h144v-453h-159v285h-80l-271 491h-71v-491h-156v491h-71l-271 -491h-191z" />
    <glyph glyph-name="uni0498" unicode="&#x498;" 
d="M431 650v176h183q130 0 209 65.5t79 173.5q0 106 -77 169t-206 63q-127 0 -208 -65t-89 -173h-196q10 189 145.5 301.5t354.5 112.5q211 0 344.5 -107.5t133.5 -276.5q0 -123 -74.5 -214t-196.5 -116v-15q152 -14 242.5 -108t90.5 -239q0 -162 -119.5 -277t-311.5 -142
v-264h-196v261q-194 23 -314.5 135.5t-127.5 281.5h200q7 -107 99 -173.5t232 -66.5q145 0 234.5 70.5t89.5 184.5q0 115 -88 179t-245 64h-188z" />
    <glyph glyph-name="uni0499" unicode="&#x499;" 
d="M1069 318q0 -134 -95 -223t-258 -110v-270h-183v268q-158 19 -254.5 105t-112.5 225h197q20 -82 85.5 -124.5t170.5 -42.5q113 0 181.5 48t68.5 127q0 81 -65 123.5t-187 42.5h-155v149h154q101 0 158 40.5t57 112.5q0 73 -57.5 114.5t-157.5 41.5t-162 -41.5t-76 -119.5
h-193q19 155 132 241t298 86q192 0 302.5 -80.5t110.5 -220.5q0 -80 -54 -144t-139 -84v-15q110 -23 172 -89t62 -160z" />
    <glyph glyph-name="uni049A" unicode="&#x49a;" 
d="M351 809h43l548 634h236l-611 -702l489 -550h196v-477h-188v286h-93l-576 641h-44v-641h-204v1443h204v-634z" />
    <glyph glyph-name="uni049B" unicode="&#x49b;" 
d="M402 636h65l444 454h236l-513 -512l382 -410h182v-453h-183v285h-92l-454 480h-67v-480h-192v1090h192v-454z" />
    <glyph glyph-name="uni049C" unicode="&#x49c;" 
d="M337 0h-196v1443h196v-1443zM505 1157h144v-334h13l317 620h218l-358 -692l395 -751h-230l-342 643h-13v-336h-144v850z" />
    <glyph glyph-name="uni049D" unicode="&#x49d;" 
d="M346 0h-192v1090h192v-1090zM499 197v726h136v-287h12l317 454h222l-369 -512l395 -578h-236l-327 480h-14v-283h-136z" />
    <glyph glyph-name="uni049E" unicode="&#x49e;" 
d="M373 809h44l536 634h239l-600 -702l648 -741h-257l-565 641h-45v-641h-205v1163h-156v172h156v108h205v-108h240v-172h-240v-354z" />
    <glyph glyph-name="uni049F" unicode="&#x49f;" 
d="M447 615l446 475h238l-417 -438l446 -652h-236l-355 521l-137 -134v-387h-200v1268h-152v121h152v126h200v-126h249v-121h-249v-653h15z" />
    <glyph glyph-name="uni04A0" unicode="&#x4a0;" 
d="M579 0h-189v1258h-374v185h563v-634h40l390 634h207l-433 -702l479 -741h-222l-420 641h-41v-641z" />
    <glyph glyph-name="uni04A1" unicode="&#x4a1;" 
d="M601 636h29l379 454h225l-438 -512l463 -578h-238l-389 480h-31v-480h-183v915h-411v175h594v-454z" />
    <glyph glyph-name="uni04A2" unicode="&#x4a2;" 
d="M1263 191v-477h-195v286h-168v643h-563v-643h-204v1443h204v-615h563v615h205v-1252h158z" />
    <glyph glyph-name="uni04A3" unicode="&#x4a3;" 
d="M161 0v1090h197v-444h526v444h198v-922h157v-453h-183v285h-172v478h-526v-478h-197z" />
    <glyph glyph-name="uni04A4" unicode="&#x4a4;" 
d="M843 0h-194v643h-388v-643h-194v1443h194v-615h388v615h610v-184h-416v-1259z" />
    <glyph glyph-name="uni04A5" unicode="&#x4a5;" 
d="M49 0v1090h197v-444h408v444h586v-175h-389v-915h-197v478h-408v-478h-197z" />
    <glyph glyph-name="uni04A6" unicode="&#x4a6;" 
d="M677 798h8q80 91 215 91q157 0 240 -121t83 -332q0 -208 -84.5 -329.5t-227.5 -121.5q-58 0 -87 16v177q22 -11 72 -11q71 0 111.5 70.5t40.5 193.5q0 133 -43.5 203t-125.5 70q-122 0 -202 -120v-584h-176v1262h-287v-1262h-176v1443h639v-645z" />
    <glyph glyph-name="uni04A7" unicode="&#x4a7;" 
d="M714 529h6q23 31 75.5 59t125.5 28q151 0 235.5 -124.5t84.5 -332.5q0 -225 -80.5 -357t-217.5 -132q-64 0 -88 12v176q23 -9 71 -9q64 0 103.5 82t39.5 216t-45 211.5t-130 77.5q-118 0 -180 -105v-331h-177v922h-292v-922h-176v1090h645v-561z" />
    <glyph glyph-name="uni04A8" unicode="&#x4a8;" 
d="M1057 -32q-128 0 -237 76h-11q-119 -75 -247 -75q-255 0 -393.5 185t-138.5 520v117q0 142 28 260t84.5 209.5t147 145.5t209.5 60v-179q-285 -22 -285 -505v-104q0 -253 89.5 -393t259.5 -140q60 0 117 16v8q-204 168 -204 532v69q0 230 97 371.5t270 141.5t269.5 -141
t96.5 -372v-69q0 -175 -66 -323t-177 -224v-9q39 -9 95 -9q45 0 93 18.5t86 50.5l57 -146q-102 -91 -240 -91zM660 695q0 -150 42.5 -275t124.5 -195q93 63 146 188.5t53 281.5v69q0 158 -45.5 249t-137.5 91q-93 0 -138 -91t-45 -249v-69z" />
    <glyph glyph-name="uni04A9" unicode="&#x4a9;" 
d="M1032 -21q-123 0 -219 57h-11q-108 -57 -243 -57q-232 0 -365 140t-133 389v101q0 105 24.5 192t73.5 155t128 109t183 48v-163q-117 -13 -173.5 -104.5t-56.5 -244.5v-87q0 -178 86.5 -276.5t235.5 -98.5q46 0 92 7v10q-78 62 -120 159.5t-42 217.5v59q0 182 95.5 286.5
t249.5 104.5q155 0 251 -104t96 -287v-59q0 -119 -53.5 -221t-151.5 -166v-6q9 -1 56 -1q110 1 189 53l37 -149q-91 -64 -229 -64zM671 531q0 -111 36.5 -200t105.5 -134q89 47 140 135.5t51 198.5v51q0 113 -45.5 175t-121.5 62q-75 0 -120.5 -62t-45.5 -175v-51z" />
    <glyph glyph-name="uni04AA" unicode="&#x4aa;" 
d="M536 -236v94l48 117q-221 26 -342 185t-121 428v267q0 293 143.5 455.5t401.5 162.5q234 0 369 -134.5t138 -371.5h-210q-4 142 -86.5 228.5t-212.5 86.5q-162 0 -245.5 -108.5t-83.5 -318.5v-267q0 -210 83.5 -318.5t246.5 -108.5q135 0 215 79t83 215h210
q0 -204 -121.5 -334t-324.5 -148l-40 -99q95 -2 145 -45t50 -123q0 -89 -66.5 -141.5t-179.5 -52.5q-67 0 -133 18v117q44 -14 117 -14q112 0 112 68q0 33 -32.5 48t-105.5 15h-58z" />
    <glyph glyph-name="uni04AB" unicode="&#x4ab;" 
d="M508 -236v94l53 127q-185 26 -285.5 154t-100.5 340v134q0 238 125 368.5t353 130.5q191 0 308.5 -98t137.5 -275h-198q-14 94 -81.5 147.5t-168.5 53.5q-133 0 -204 -90t-71 -258v-92q0 -168 71 -258t204 -90q101 0 168 52t82 144h198q-19 -162 -123 -258t-274 -109
l-43 -107q95 -2 145 -45t50 -123q0 -89 -66.5 -141.5t-179.5 -52.5q-67 0 -133 18v117q44 -14 117 -14q112 0 112 68q0 33 -32.5 48t-105.5 15h-58z" />
    <glyph glyph-name="uni04AC" unicode="&#x4ac;" 
d="M908 195v-481h-196v286h-183v1258h-429v185h1066v-185h-429v-1063h171z" />
    <glyph glyph-name="uni04AD" unicode="&#x4ad;" 
d="M1117 1090v-168h-383v-754h179v-453h-183v285h-198v922h-383v168h968z" />
    <glyph glyph-name="uni04AE" unicode="&#x4ae;" 
d="M737 0h-208v579l-476 864h230l343 -648h14l343 648h230l-476 -864v-579z" />
    <glyph glyph-name="uni04AF" unicode="&#x4af;" 
d="M528 -368v368l-400 1090h215l285 -882h14l283 882h213l-399 -1090v-368h-211z" />
    <glyph glyph-name="uni04B0" unicode="&#x4b0;" 
d="M737 0h-208v410h-351v172h349l-474 861h230l343 -648h14l343 648h230l-474 -861h349v-172h-351v-410z" />
    <glyph glyph-name="uni04B1" unicode="&#x4b1;" 
d="M528 -368v227h-271v141h271l-400 1090h215l285 -882h14l283 882h213l-399 -1090h270v-141h-270v-227h-211z" />
    <glyph glyph-name="uni04B2" unicode="&#x4b2;" 
d="M62 0l447 725l-444 718h231l339 -562h9l342 562h216l-454 -722l330 -530h167v-477h-188v286h-86l-343 553h-9l-346 -553h-211z" />
    <glyph glyph-name="uni04B3" unicode="&#x4b3;" 
d="M637 405h-14l-258 -405h-219l366 544l-368 546h234l253 -401h14l251 401h224l-365 -538l256 -384h179v-453h-183v285h-113z" />
    <glyph glyph-name="uni04B4" unicode="&#x4b4;" 
d="M1245 -285h-190v285h-773v1259h-275v184h711v-184h-227v-1074h423v1258h209v-1258h122v-470z" />
    <glyph glyph-name="uni04B5" unicode="&#x4b5;" 
d="M710 922h-243v-754h422v922h197v-922h134v-453h-185v285h-766v922h-255v168h696v-168z" />
    <glyph glyph-name="uni04B6" unicode="&#x4b6;" 
d="M1229 191v-477h-183v286h-168v621h-13q-123 -91 -313 -91q-214 0 -338.5 137.5t-124.5 364.5v411h203v-398q0 -152 77.5 -237.5t211.5 -85.5q185 0 297 99v622h202v-1252h149z" />
    <glyph glyph-name="uni04B7" unicode="&#x4b7;" 
d="M1222 168v-453h-177v285h-184v473h-15q-117 -101 -300 -101q-182 0 -286 103.5t-104 285.5v329h201v-303q0 -117 59.5 -176.5t174.5 -59.5q84 0 157 32t113 85v422h201v-922h160z" />
    <glyph glyph-name="uni04B8" unicode="&#x4b8;" 
d="M1133 0h-207v624h-13q-89 -65 -224 -83v-312h-144v306q-212 11 -334 145.5t-122 351.5v411h207v-409q0 -134 65 -214t184 -97v343h144v-344q146 16 237 96v625h207v-1443z" />
    <glyph glyph-name="uni04B9" unicode="&#x4b9;" 
d="M537 140v237q-184 2 -287.5 105.5t-103.5 286.5v321h196v-309q0 -211 195 -232v308h136v-301q134 24 195 105v429h196v-1090h-196v475h-15q-73 -62 -180 -85v-250h-136z" />
    <glyph glyph-name="uni04BA" unicode="&#x4ba;" 
d="M133 1443h208v-621h14q124 91 331 91q227 0 359 -137.5t132 -364.5v-411h-209v398q0 152 -84 237.5t-229 85.5q-201 0 -314 -99v-622h-208v1443z" />
    <glyph glyph-name="uni04BB" unicode="&#x4bb;" 
d="M173 0v1515h194v-616h15q42 101 131.5 155.5t213.5 54.5q178 0 272 -104t94 -300v-705h-200v656q0 139 -58.5 206.5t-179.5 67.5q-127 0 -204 -80.5t-77 -212.5v-637h-201z" />
    <glyph glyph-name="uni04BC" unicode="&#x4bc;" 
d="M781 -29q-241 0 -368 181t-127 500v45q-142 1 -210 75t-68 203q0 38 7 74t15 53l7 16h159q-23 -51 -23 -121q0 -120 117 -120q19 285 139.5 440.5t343.5 155.5q229 0 351.5 -165t122.5 -442l-2 -171h-769v-63q0 -231 78.5 -350.5t223.5 -119.5q113 0 183.5 78t93.5 215
h191q-24 -212 -146 -348t-319 -136zM774 1283q-140 0 -215 -105t-80 -295v-5h579v20q0 184 -74.5 284.5t-209.5 100.5z" />
    <glyph glyph-name="uni04BD" unicode="&#x4bd;" 
d="M997 288h186q-23 -138 -140.5 -223.5t-287.5 -85.5q-222 0 -343.5 128.5t-121.5 361.5v27h-7q-136 0 -206 68t-70 188q0 74 30 134h150q-24 -60 -24 -123q0 -58 32.5 -91t91.5 -33h3q1 213 125.5 342.5t328.5 129.5q206 0 324 -133t118 -365v-118h-705v-49
q0 -138 74 -220t199 -82q93 0 158 38.5t85 105.5zM742 947q-123 0 -192 -82.5t-69 -228.5h514q0 146 -67.5 228.5t-185.5 82.5z" />
    <glyph glyph-name="uni04BE" unicode="&#x4be;" 
d="M1246 455q-21 -185 -117 -314t-254 -161v-266h-182v264q-199 33 -303 209.5t-104 464.5v45q-142 1 -210 75t-68 203q0 38 7 74t15 53l7 16h159q-23 -51 -23 -121q0 -120 117 -120q19 285 139.5 440.5t343.5 155.5q229 0 351.5 -165t122.5 -442l-2 -171h-769v-63
q0 -231 78.5 -350.5t223.5 -119.5q113 0 183.5 78t93.5 215h191zM774 1283q-140 0 -215 -105t-80 -295v-5h579v20q0 184 -74.5 284.5t-209.5 100.5z" />
    <glyph glyph-name="uni04BF" unicode="&#x4bf;" 
d="M997 288h186q-19 -118 -110 -199t-227 -103v-271h-180v270q-180 25 -278 150.5t-98 333.5v27h-7q-136 0 -206 68t-70 188q0 74 30 134h150q-24 -60 -24 -123q0 -58 32.5 -91t91.5 -33h3q1 213 125.5 342.5t328.5 129.5q206 0 324 -133t118 -365v-118h-705v-49
q0 -138 74 -220t199 -82q93 0 158 38.5t85 105.5zM742 947q-123 0 -192 -82.5t-69 -228.5h514q0 146 -67.5 228.5t-185.5 82.5z" />
    <glyph glyph-name="uni04C0" unicode="&#x4c0;" 
d="M1031 0h-796v181h294v1081h-294v181h796v-181h-294v-1081h294v-181z" />
    <glyph glyph-name="uni04C1" unicode="&#x4c1;" 
d="M291 1930h162q1 -86 51 -139.5t129 -53.5t129 53.5t51 139.5h162q0 -143 -94.5 -231.5t-247.5 -88.5t-247.5 88.5t-94.5 231.5zM186 0h-196l345 735l-314 708h193l269 -628h61v628h177v-628h60l269 628h192l-314 -706l348 -737h-198l-298 649h-59v-649h-177v649h-59z" />
    <glyph glyph-name="uni04C2" unicode="&#x4c2;" 
d="M289 1579h162q1 -86 51 -139.5t129 -53.5t129 53.5t51 139.5h162q0 -143 -94.5 -231.5t-247.5 -88.5t-247.5 88.5t-94.5 231.5zM-7 0l343 570l-329 520h195l277 -465h72v465h164v-465h72l277 465h195l-329 -520l343 -570h-203l-280 491h-75v-491h-164v491h-74l-281 -491
h-203z" />
    <glyph glyph-name="uni04C3" unicode="&#x4c3;" 
d="M1125 206q0 -243 -138 -403t-360 -160q-57 0 -92 10v184q35 -5 76 -5q140 0 223 103t83 266q0 203 -135 322t-363 119h-66v-642h-206v1443h206v-621h50l538 621h248l-566 -650q233 -46 367.5 -198.5t134.5 -388.5z" />
    <glyph glyph-name="uni04C4" unicode="&#x4c4;" 
d="M1061 123q0 -225 -116 -357t-325 -132q-62 0 -103 9v166q37 -6 83 -6q126 0 197.5 83t71.5 235q0 165 -106 259.5t-292 94.5h-69v-475h-193v1090h193v-459h63l425 459h233l-469 -489q185 -36 296 -162t111 -316z" />
    <glyph glyph-name="uni04C5" unicode="&#x4c5;" 
d="M906 0v191h1v1067h-449l-38 -721q-14 -283 -95.5 -415.5t-241.5 -132.5q-42 0 -78 12v192q21 -7 53 -7q86 0 127.5 85t51.5 280l43 892h821v-1252h156v-52l-138 -425h-182l101 286h-132z" />
    <glyph glyph-name="uni04C6" unicode="&#x4c6;" 
d="M463 495q-19 -260 -95.5 -383t-234.5 -123q-44 0 -76 12v182q26 -8 59 -8q75 0 113.5 82t50.5 250q2 28 18.5 275t19.5 308h753v-913h154v-53l-136 -410h-180l100 286h-136v922h-379q-9 -163 -31 -427z" />
    <glyph glyph-name="uni04C7" unicode="&#x4c7;" 
d="M917 1443h206v-1443q0 -174 -86 -255.5t-233 -81.5q-71 0 -119 6v174q25 -3 86 -3q146 0 146 160v643h-568v-643h-206v1443h206v-615h568v615z" />
    <glyph glyph-name="uni04C8" unicode="&#x4c8;" 
d="M172 0v1090h198v-444h526v444h198v-1098q0 -163 -82 -241.5t-252 -78.5q-12 0 -132 9v168q72 -8 106 -8q91 0 126.5 35t35.5 124v478h-526v-478h-198z" />
    <glyph glyph-name="uni04C9" unicode="&#x4c9;" 
d="M1261 139l-135 -425h-174l97 286h-131v643h-568v-643h-207v1443h207v-615h568v615h207v-1252h136v-52z" />
    <glyph glyph-name="uni04CA" unicode="&#x4ca;" 
d="M176 0v1090h197v-444h527v444h197v-913h150v-53l-136 -410h-181l100 286h-130v478h-527v-478h-197z" />
    <glyph glyph-name="uni04CB" unicode="&#x4cb;" 
d="M1133 0h-179v-286h-183v477h154v430h-14q-124 -91 -331 -91q-227 0 -359 137.5t-132 364.5v411h209v-398q0 -152 84 -237.5t229 -85.5q201 0 314 99v622h208v-1443z" />
    <glyph glyph-name="uni04CC" unicode="&#x4cc;" 
d="M861 1090h201v-1090h-190v-285h-180v450h169v316h-15q-116 -102 -300 -102q-182 0 -286 103.5t-104 285.5v322h201v-296q0 -117 59.5 -176.5t174.5 -59.5q84 0 157 32t113 85v415z" />
    <glyph glyph-name="uni04CD" unicode="&#x4cd;" 
d="M273 533v-533h-177v1443h219l284 -875h14l283 875h219v-1252h151v-52l-137 -425h-169l100 286h-123v533l17 582h-15l-258 -776h-151l-258 776h-15z" />
    <glyph glyph-name="uni04CE" unicode="&#x4ce;" 
d="M278 0h-163v1090h216l280 -810h13l281 810h212v-913h132v-53l-136 -410h-156l100 286h-104l6 794h-14l-265 -754h-127l-267 761h-14z" />
    <glyph glyph-name="uni04CF" unicode="&#x4cf;" 
d="M1111 0h-915v162h365v1190h-357v163h557v-1353h350v-162z" />
    <glyph glyph-name="uni04D0" unicode="&#x4d0;" 
d="M281 1930h162q1 -86 51 -139.5t129 -53.5t129 53.5t51 139.5h162q0 -143 -94.5 -231.5t-247.5 -88.5t-247.5 88.5t-94.5 231.5zM983 0l-115 398h-480l-116 -398h-210l455 1443h232l455 -1443h-221zM625 1212l-188 -645h382l-187 645h-7z" />
    <glyph glyph-name="uni04D1" unicode="&#x4d1;" 
d="M292 1579h162q1 -86 51 -139.5t129 -53.5t129 53.5t51 139.5h162q0 -143 -94.5 -231.5t-247.5 -88.5t-247.5 88.5t-94.5 231.5zM512 -18q-156 0 -251 90t-95 238q0 145 101.5 228.5t292.5 94.5l286 15v96q0 94 -56.5 144.5t-161.5 50.5q-87 0 -146.5 -36t-78.5 -100h-196
q15 135 132.5 218.5t292.5 83.5q197 0 305 -94.5t108 -266.5v-745h-191v159h-19q-39 -84 -123.5 -130t-199.5 -46zM574 149q117 0 194.5 69t77.5 173v115l-259 -13q-109 -6 -165 -50t-56 -124q0 -79 56 -124.5t152 -45.5z" />
    <glyph glyph-name="uni04D2" unicode="&#x4d2;" 
d="M423 1643q-51 0 -88.5 38.5t-37.5 90.5t37.5 90.5t88.5 38.5q50 0 88 -38.5t38 -90.5t-38 -90.5t-88 -38.5zM843 1643q-50 0 -88 38.5t-38 90.5t38 90.5t88 38.5q51 0 88.5 -38.5t37.5 -90.5t-37.5 -90.5t-88.5 -38.5zM983 0l-115 398h-480l-116 -398h-210l455 1443h232
l455 -1443h-221zM625 1212l-188 -645h382l-187 645h-7z" />
    <glyph glyph-name="uni04D3" unicode="&#x4d3;" 
d="M427 1296q-50 0 -88 39t-38 91t38 90.5t88 38.5q51 0 88.5 -38.5t37.5 -90.5q0 -53 -37.5 -91.5t-88.5 -38.5zM848 1296q-50 0 -88 39t-38 91t38 90.5t88 38.5q51 0 88.5 -38.5t37.5 -90.5q0 -53 -37.5 -91.5t-88.5 -38.5zM512 -18q-156 0 -251 90t-95 238
q0 145 101.5 228.5t292.5 94.5l286 15v96q0 94 -56.5 144.5t-161.5 50.5q-87 0 -146.5 -36t-78.5 -100h-196q15 135 132.5 218.5t292.5 83.5q197 0 305 -94.5t108 -266.5v-745h-191v159h-19q-39 -84 -123.5 -130t-199.5 -46zM574 149q117 0 194.5 69t77.5 173v115l-259 -13
q-109 -6 -165 -50t-56 -124q0 -79 56 -124.5t152 -45.5z" />
    <glyph glyph-name="uni04D4" unicode="&#x4d4;" 
d="M642 0v413h-310l-108 -413h-211l407 1443h827v-184h-415v-444h379v-176h-379v-454h415v-185h-605zM552 1248l-173 -659h263v659h-90z" />
    <glyph glyph-name="uni04D5" unicode="&#x4d5;" 
d="M1214 307q-31 -160 -112.5 -242.5t-208.5 -82.5q-88 0 -158 58t-105 162h-5q-40 -106 -114.5 -163t-173.5 -57q-125 0 -203 89.5t-78 232.5q0 289 307 321l178 18v89q0 100 -40.5 153.5t-114.5 53.5q-56 0 -94.5 -40t-45.5 -106h-163q13 141 98.5 227.5t212.5 86.5
q86 0 150 -45t96 -129h5q82 174 249 174q155 0 240 -140.5t85 -399.5v-75h-508v-16q1 -153 48.5 -237.5t132.5 -84.5q62 0 102.5 36.5t66.5 116.5h153zM1044 646q-2 144 -42.5 218.5t-117.5 74.5q-73 0 -116.5 -76t-51.5 -217h328zM362 154q80 0 131 66t51 171v102l-157 -15
q-76 -7 -118 -51.5t-42 -117.5q0 -155 135 -155z" />
    <glyph glyph-name="uni04D6" unicode="&#x4d6;" 
d="M308 1930h162q1 -86 51 -139.5t129 -53.5t129 53.5t51 139.5h162q0 -143 -94.5 -231.5t-247.5 -88.5t-247.5 88.5t-94.5 231.5zM1089 185v-185h-868v1443h868v-185h-659v-437h622v-174h-622v-462h659z" />
    <glyph glyph-name="uni04D7" unicode="&#x4d7;" 
d="M291 1579h162q1 -86 51 -139.5t129 -53.5t129 53.5t51 139.5h162q0 -143 -94.5 -231.5t-247.5 -88.5t-247.5 88.5t-94.5 231.5zM910 288h192q-22 -137 -145 -223t-299 -86q-229 0 -355 128.5t-126 361.5v166q0 215 129 345.5t341 130.5q214 0 336 -133t122 -365v-118
h-731v-49q0 -138 77 -220t206 -82q97 0 165 38.5t88 105.5zM645 947q-127 0 -199 -82.5t-72 -228.5h534q0 146 -69.5 228.5t-193.5 82.5z" />
    <glyph glyph-name="uni04D8" unicode="&#x4d8;" 
d="M630 -29q-174 0 -298.5 87.5t-184 231.5t-59.5 327l3 167h877v28q0 232 -89 351t-254 119q-133 0 -217 -78.5t-107 -214.5h-212q13 102 53.5 189t106.5 153.5t162 104t211 37.5q271 0 413.5 -180.5t142.5 -500.5v-108q0 -339 -135.5 -526t-412.5 -187zM629 161
q166 0 251.5 113.5t85.5 317.5v16h-669v-23q0 -189 88.5 -306.5t243.5 -117.5z" />
    <glyph glyph-name="uni04D9" unicode="&#x4d9;" 
d="M370 802h-192q22 138 144.5 223.5t299.5 85.5q229 0 355 -128.5t126 -361.5v-167q0 -215 -129 -345t-342 -130t-335 132t-122 364v118h731v50q0 139 -77 221t-206 82q-97 0 -165 -39t-88 -105zM635 143q127 0 199 82t72 227h-535q0 -145 70 -227t194 -82z" />
    <glyph glyph-name="uni04DA" unicode="&#x4da;" 
d="M405 1643q-50 0 -88 38.5t-38 90.5t38 90.5t88 38.5q51 0 88.5 -38.5t37.5 -90.5t-37.5 -90.5t-88.5 -38.5zM826 1643q-51 0 -88.5 38.5t-37.5 90.5t37.5 90.5t88.5 38.5q50 0 88 -38.5t38 -90.5t-38 -90.5t-88 -38.5zM630 -29q-174 0 -298.5 87.5t-184 231.5t-59.5 327
l3 167h877v28q0 232 -89 351t-254 119q-133 0 -217 -78.5t-107 -214.5h-212q13 102 53.5 189t106.5 153.5t162 104t211 37.5q271 0 413.5 -180.5t142.5 -500.5v-108q0 -339 -135.5 -526t-412.5 -187zM629 161q166 0 251.5 113.5t85.5 317.5v16h-669v-23q0 -189 88.5 -306.5
t243.5 -117.5z" />
    <glyph glyph-name="uni04DB" unicode="&#x4db;" 
d="M401 1314q-51 0 -88.5 38.5t-37.5 90.5t37.5 90.5t88.5 38.5q50 0 88 -38.5t38 -90.5t-38 -90.5t-88 -38.5zM821 1314q-50 0 -88 38.5t-38 90.5t38 90.5t88 38.5q51 0 88.5 -38.5t37.5 -90.5t-37.5 -90.5t-88.5 -38.5zM370 802h-192q22 138 144.5 223.5t299.5 85.5
q229 0 355 -128.5t126 -361.5v-167q0 -215 -129 -345t-342 -130t-335 132t-122 364v118h731v50q0 139 -77 221t-206 82q-97 0 -165 -39t-88 -105zM635 143q127 0 199 82t72 227h-535q0 -145 70 -227t194 -82z" />
    <glyph glyph-name="uni04DC" unicode="&#x4dc;" 
d="M423 1643q-51 0 -88.5 38.5t-37.5 90.5t37.5 90.5t88.5 38.5q50 0 88 -38.5t38 -90.5t-38 -90.5t-88 -38.5zM843 1643q-50 0 -88 38.5t-38 90.5t38 90.5t88 38.5q51 0 88.5 -38.5t37.5 -90.5t-37.5 -90.5t-88.5 -38.5zM186 0h-196l345 735l-314 708h193l269 -628h61v628
h177v-628h60l269 628h192l-314 -706l348 -737h-198l-298 649h-59v-649h-177v649h-59z" />
    <glyph glyph-name="uni04DD" unicode="&#x4dd;" 
d="M422 1315q-51 0 -88.5 38.5t-37.5 90.5t37.5 90.5t88.5 38.5q50 0 88 -38.5t38 -90.5t-38 -90.5t-88 -38.5zM842 1315q-50 0 -88 38.5t-38 90.5t38 90.5t88 38.5q51 0 88.5 -38.5t37.5 -90.5t-37.5 -90.5t-88.5 -38.5zM-7 0l343 570l-329 520h195l277 -465h72v465h164
v-465h72l277 465h195l-329 -520l343 -570h-203l-280 491h-75v-491h-164v491h-74l-281 -491h-203z" />
    <glyph glyph-name="uni04DE" unicode="&#x4de;" 
d="M405 1643q-50 0 -88 38.5t-38 90.5t38 90.5t88 38.5q51 0 88.5 -38.5t37.5 -90.5t-37.5 -90.5t-88.5 -38.5zM826 1643q-50 0 -88 38.5t-38 90.5t38 90.5t88 38.5q51 0 88.5 -38.5t37.5 -90.5t-37.5 -90.5t-88.5 -38.5zM431 650v176h183q130 0 209 65.5t79 173.5
q0 106 -77 169t-206 63q-127 0 -208 -65t-89 -173h-196q10 189 145.5 301.5t354.5 112.5q211 0 344.5 -107.5t133.5 -276.5q0 -123 -74.5 -214t-196.5 -116v-15q152 -14 242.5 -108t90.5 -239q0 -185 -153 -306t-386 -121q-228 0 -375 117t-155 305h200q7 -107 99 -173.5
t232 -66.5q145 0 234.5 70.5t89.5 184.5q0 115 -88 179t-245 64h-188z" />
    <glyph glyph-name="uni04DF" unicode="&#x4df;" 
d="M406 1315q-50 0 -88 38.5t-38 90.5t38 90.5t88 38.5q51 0 88.5 -38.5t37.5 -90.5t-37.5 -90.5t-88.5 -38.5zM827 1315q-51 0 -88.5 38.5t-37.5 90.5t37.5 90.5t88.5 38.5q50 0 88 -38.5t38 -90.5t-38 -90.5t-88 -38.5zM627 -21q-195 0 -315 88.5t-138 245.5h197
q20 -82 85.5 -124.5t170.5 -42.5q113 0 181.5 48t68.5 127q0 81 -65 123.5t-187 42.5h-155v149h154q101 0 158 40.5t57 112.5q0 73 -57.5 114.5t-157.5 41.5t-162 -41.5t-76 -119.5h-193q19 155 132 241t298 86q192 0 302.5 -80.5t110.5 -220.5q0 -80 -54 -144t-139 -84v-15
q110 -23 172 -89t62 -160q0 -154 -123 -246.5t-327 -92.5z" />
    <glyph glyph-name="uni04E0" unicode="&#x4e0;" 
d="M1130 437q0 -214 -134.5 -340.5t-363.5 -126.5q-216 0 -354 115.5t-149 303.5h198q8 -108 91 -174t215 -66q135 0 212 74.5t77 208.5q0 132 -90 200t-266 68h-132v168l368 383v11h-619v181h877v-161l-394 -410v-12q216 -17 340 -126t124 -297z" />
    <glyph glyph-name="uni04E1" unicode="&#x4e1;" 
d="M627 504q104 -5 190 -33.5t152 -80.5t102.5 -133t36.5 -184q0 -203 -132.5 -329t-351.5 -126q-213 0 -344.5 114.5t-143.5 304.5h195q8 -115 88.5 -186t205.5 -71q129 0 205 81.5t76 210.5q0 147 -96 215t-285 68h-122v150l372 397v10h-595v178h854v-136l-407 -441v-9z
" />
    <glyph glyph-name="uni04E2" unicode="&#x4e2;" 
d="M965 1682h-678v151h678v-151zM327 1443v-1078h14l591 1078h190v-1443h-183v1076h-14l-594 -1076h-187v1443h183z" />
    </font>
</defs>
</svg>
